<?xml version="1.0" standalone="no"?>
<!DOCTYPE svg PUBLIC "-//W3C//DTD SVG 20010904//EN"
 "http://www.w3.org/TR/2001/REC-SVG-20010904/DTD/svg10.dtd">
<svg version="1.0" xmlns="http://www.w3.org/2000/svg"
 width="500.000000pt" height="500.000000pt" viewBox="0 0 500.000000 500.000000"
 preserveAspectRatio="xMidYMid meet">
<metadata>
Created by potrace 1.14, written by Peter Selinger 2001-2017
</metadata>
<g transform="translate(0.000000,500.000000) scale(0.100000,-0.100000)"
fill="#000000" stroke="none">
<path d="M0 2500 l0 -2500 2500 0 2500 0 0 2500 0 2500 -2500 0 -2500 0 0
-2500z m2107 1008 c306 -233 572 -433 590 -446 18 -12 33 -27 33 -32 0 -6 -59
-10 -145 -10 l-145 0 0 -135 0 -135 -35 0 -35 0 0 175 0 174 75 3 76 3 -487
375 c-268 206 -491 374 -497 372 -5 -1 -233 -172 -507 -380 l-497 -377 84 -3
83 -3 2 -617 3 -617 1835 -7 c1009 -4 1891 -9 1960 -10 69 -2 -226 -5 -656 -6
-429 -1 -1321 -5 -1982 -9 l-1202 -6 -2 609 -3 609 -134 5 -133 5 572 443
c315 243 577 442 582 442 5 0 259 -190 565 -422z m-179 -1325 l3 -133 69 0
c68 0 70 -1 70 -25 l0 -25 -100 0 -100 0 0 153 c0 85 3 157 7 161 4 4 16 6 28
4 19 -3 20 -11 23 -135z m284 26 c3 -107 4 -112 31 -135 16 -13 37 -24 47 -24
10 0 31 11 47 24 27 23 28 28 31 136 4 107 5 111 26 108 20 -3 21 -9 24 -115
2 -87 -1 -120 -13 -143 -41 -80 -188 -81 -230 0 -11 21 -15 60 -15 138 0 60 3
112 7 115 3 4 14 7 24 7 15 0 17 -14 21 -111z m376 -51 l3 -158 -26 0 -25 0 0
161 0 160 23 -3 c22 -3 22 -6 25 -160z m351 140 c25 -15 25 -17 7 -41 -12 -15
-18 -16 -35 -8 -94 51 -199 -60 -139 -149 39 -58 138 -69 138 -15 0 21 -5 25
-30 25 -25 0 -30 4 -30 25 0 24 3 25 60 25 l60 0 0 -65 c0 -61 -1 -65 -30 -80
-16 -8 -51 -15 -77 -15 -112 0 -184 87 -161 193 11 52 35 82 83 107 44 23 116
22 154 -2z m189 -140 l3 -158 -26 0 -25 0 0 161 0 160 23 -3 c22 -3 22 -6 25
-160z m-2310 -548 c35 -61 67 -110 70 -110 4 1 36 50 71 111 35 61 67 107 71
102 7 -8 30 -229 30 -285 0 -23 -5 -28 -24 -28 -27 0 -36 21 -36 92 0 26 -4
49 -9 52 -5 3 -28 -28 -52 -69 -23 -41 -46 -75 -51 -75 -4 0 -29 37 -55 82
l-48 82 -9 -82 c-9 -82 -9 -82 -37 -82 -16 0 -29 3 -29 8 0 4 7 68 15 142 8
74 15 143 15 153 0 34 16 15 78 -93z m546 -49 c37 -79 66 -147 66 -152 0 -5
-13 -9 -29 -9 -21 0 -32 6 -36 20 -6 18 -15 20 -80 20 -65 0 -74 -2 -80 -20
-4 -14 -15 -20 -36 -20 -16 0 -29 3 -29 6 0 8 96 226 122 278 11 22 23 35 28
30 5 -5 38 -74 74 -153z m574 -3 l3 -158 -31 0 -30 0 0 153 c0 85 3 157 7 161
4 4 16 6 28 4 19 -3 20 -11 23 -160z m267 32 l70 -71 5 98 c5 97 5 98 30 98
l25 0 3 -157 c2 -101 -1 -158 -7 -158 -6 0 -55 43 -110 96 l-100 96 -3 -94 -3
-93 -27 -3 -28 -3 0 161 0 162 38 -30 c20 -17 69 -62 107 -102z m449 -29 c37
-79 66 -147 66 -152 0 -5 -13 -9 -29 -9 -21 0 -32 6 -36 20 -6 18 -15 20 -80
20 -65 0 -74 -2 -80 -20 -4 -14 -15 -20 -36 -20 -16 0 -29 3 -29 6 0 8 96 226
122 278 11 22 23 35 28 30 5 -5 38 -74 74 -153z m351 -11 l30 -31 5 98 c5 97
5 98 30 98 l25 0 3 -149 c1 -91 -1 -153 -7 -159 -7 -7 -45 22 -113 89 l-103
99 -3 -97 c-3 -97 -3 -98 -27 -98 l-25 0 0 161 0 161 78 -70 c42 -39 91 -84
107 -102z m434 148 c25 -15 25 -17 7 -41 -12 -15 -18 -16 -35 -8 -94 51 -199
-60 -139 -149 39 -58 138 -69 138 -15 0 21 -5 25 -30 25 -25 0 -30 4 -30 25 0
24 3 25 60 25 l60 0 0 -65 c0 -61 -1 -65 -30 -80 -16 -8 -51 -15 -77 -15 -112
0 -184 87 -161 193 11 52 35 82 83 107 44 23 116 22 154 -2z m539 -115 l3
-133 69 0 c68 0 70 -1 70 -25 l0 -25 -100 0 -100 0 0 153 c0 85 3 157 7 161 4
4 16 6 28 4 19 -3 20 -11 23 -135z m290 -25 l3 -158 -26 0 -25 0 0 161 0 160
23 -3 c22 -3 22 -6 25 -160z m-2532 118 c44 -44 48 -108 9 -155 l-26 -30 21
-40 c25 -51 25 -51 -8 -51 -22 0 -32 7 -45 35 -15 32 -20 35 -62 35 -45 0 -45
0 -45 -36 0 -33 -2 -35 -27 -32 l-28 3 -3 153 -3 152 92 0 c90 0 91 0 125 -34z
m2074 9 c0 -25 -1 -25 -90 -25 l-90 0 0 -45 0 -44 73 -3 c64 -3 72 -5 72 -23
0 -18 -8 -20 -73 -23 l-73 -3 3 -32 3 -32 90 -5 c82 -5 90 -7 90 -25 0 -19 -8
-20 -117 -23 l-118 -3 0 156 0 155 115 0 115 0 0 -25z m-2874 -573 c-3 -3 -11
9 -17 26 -11 33 -29 34 -29 2 0 -10 -6 -20 -14 -23 -12 -5 -12 0 1 31 24 58
26 59 46 13 10 -23 16 -45 13 -49z m179 79 c-23 -5 -31 -12 -33 -32 -2 -18 3
-29 14 -33 24 -9 44 12 24 24 -13 8 -12 10 3 10 13 0 18 -6 15 -22 -4 -30 -45
-31 -63 -3 -21 33 -3 65 37 64 l33 -1 -30 -7z m193 2 c-34 -5 -38 -32 -5 -34
l22 -2 -22 -4 c-35 -7 -28 -31 10 -36 31 -4 31 -4 -5 -5 l-38 -2 0 45 c0 44 0
45 33 44 30 -2 30 -2 5 -6z m225 -16 c3 19 4 15 6 -16 l1 -45 -30 29 -30 29 0
-32 c0 -18 -4 -32 -10 -32 -5 0 -10 20 -10 46 l0 45 34 -26 35 -26 4 28z m190
15 c-6 -4 -13 -25 -16 -47 l-4 -40 -1 42 c-2 30 -7 43 -19 46 -10 3 -2 5 17 6
19 0 30 -3 23 -7z m175 1 c-34 -5 -38 -32 -5 -34 l22 -2 -22 -4 c-35 -7 -28
-31 10 -36 31 -4 31 -4 -5 -5 l-38 -2 0 45 c0 44 0 45 33 44 30 -2 30 -2 5 -6z
m309 -60 c-2 -16 -4 -5 -4 22 0 28 2 40 4 28 2 -13 2 -35 0 -50z m231 -8 c1
-14 -3 -11 -12 10 -12 29 -13 29 -20 8 -4 -13 -11 -23 -16 -23 -5 0 -15 10
-22 23 -12 22 -12 22 -19 -8 -6 -27 -7 -26 -8 13 -1 47 10 54 27 17 15 -33 27
-31 43 8 l14 32 6 -30 c4 -16 7 -39 7 -50z m137 13 c-12 -26 -14 -27 -10 -8 2
14 5 36 5 50 1 21 2 23 11 8 7 -12 5 -27 -6 -50z m84 15 c-2 -34 -3 -39 -6
-18 l-5 29 -19 -24 c-16 -21 -20 -23 -29 -10 -14 22 -12 34 4 21 12 -10 18 -7
31 18 8 17 18 31 20 31 3 0 4 -21 4 -47z m211 26 c15 -28 -12 -72 -42 -67 -29
4 -48 38 -37 66 11 30 64 31 79 1z m197 -21 c3 -33 1 -38 -21 -44 -36 -9 -46
2 -46 47 0 39 1 40 31 37 29 -3 32 -7 36 -40z m140 -25 c-2 -16 -4 -5 -4 22 0
28 2 40 4 28 2 -13 2 -35 0 -50z m153 28 c0 -33 4 -40 23 -44 15 -4 12 -5 -8
-4 -28 2 -30 5 -33 45 -2 25 1 42 7 42 6 0 11 -18 11 -39z m180 -6 c0 -25 -4
-45 -10 -45 -5 0 -10 20 -10 45 0 25 5 45 10 45 6 0 10 -20 10 -45z m196 -43
c-3 -3 -11 9 -17 26 -11 33 -29 34 -29 2 0 -10 -6 -20 -14 -23 -12 -5 -12 0 1
31 24 58 26 59 46 13 10 -23 16 -45 13 -49z m199 78 c3 -5 3 -26 -1 -46 -5
-30 -8 -33 -16 -20 -6 11 -6 22 2 31 15 18 5 35 -21 35 -16 0 -19 -6 -17 -35
1 -19 -1 -37 -5 -41 -4 -4 -7 14 -7 39 0 45 1 47 29 47 17 0 33 -4 36 -10z
m173 3 c-34 -5 -38 -32 -5 -34 l22 -2 -22 -4 c-35 -7 -28 -31 10 -36 31 -4 31
-4 -5 -5 l-38 -2 0 45 c0 44 0 45 33 44 30 -2 30 -2 5 -6z"/>
<path d="M1261 1557 c-13 -32 -21 -60 -18 -63 2 -3 25 -4 50 -2 l45 3 -27 60
-27 59 -23 -57z"/>
<path d="M2551 1557 c-13 -32 -21 -60 -18 -63 2 -3 25 -4 50 -2 l45 3 -27 60
-27 59 -23 -57z"/>
<path d="M1588 1664 c-5 -4 -8 -38 -8 -76 l0 -68 39 0 c54 0 69 7 87 42 17 32
12 57 -14 81 -20 18 -93 33 -104 21z"/>
<path d="M2807 1183 c-13 -12 -7 -51 9 -57 21 -8 20 -8 38 10 12 12 13 20 6
35 -10 19 -40 26 -53 12z"/>
<path d="M3020 1180 c0 -5 7 -10 15 -10 8 0 15 5 15 10 0 6 -7 10 -15 10 -8 0
-15 -4 -15 -10z"/>
<path d="M3020 1140 c0 -15 5 -20 18 -18 9 2 17 10 17 18 0 8 -8 16 -17 18
-13 2 -18 -3 -18 -18z"/>
</g>
</svg>
