<?xml version="1.0" standalone="no"?>
<!DOCTYPE svg PUBLIC "-//W3C//DTD SVG 20010904//EN"
 "http://www.w3.org/TR/2001/REC-SVG-20010904/DTD/svg10.dtd">
<svg version="1.0" xmlns="http://www.w3.org/2000/svg"
 width="317.000000pt" height="317.000000pt" viewBox="0 0 317.000000 317.000000"
 preserveAspectRatio="xMidYMid meet">
<metadata>
Created by potrace 1.14, written by Peter Selinger 2001-2017
</metadata>
<g transform="translate(0.000000,317.000000) scale(0.100000,-0.100000)"
fill="#000000" stroke="none">
<path d="M466 3138 c-6 -26 -146 -969 -146 -981 0 -11 2688 -9 2695 2 3 6 37
221 75 478 39 257 73 480 76 496 l6 27 -1351 0 -1351 0 -4 -22z"/>
<path d="M305 2068 c-5 -16 -145 -968 -145 -985 0 -19 2688 -19 2695 0 3 6 36
226 75 487 39 261 72 483 74 493 4 16 -65 17 -1345 17 -1071 0 -1350 -3 -1354
-12z"/>
<path d="M146 993 c-6 -27 -146 -967 -146 -978 0 -3 607 -5 1349 -5 l1350 0 6
42 c4 24 37 248 74 498 38 250 66 458 64 463 -2 4 -609 7 -1348 7 l-1343 0 -6
-27z"/>
</g>
</svg>
