<svg xmlns="http://www.w3.org/2000/svg" xmlns:xlink="http://www.w3.org/1999/xlink" width="130" zoomAndPan="magnify" viewBox="0 0 97.5 97.499997" height="130" preserveAspectRatio="xMidYMid meet" version="1.0"><defs><clipPath id="f53f19c7be"><path d="M 0.304688 0 L 97 0 L 97 97.003906 L 0.304688 97.003906 Z M 0.304688 0 " clip-rule="nonzero"/></clipPath></defs><g clip-path="url(#f53f19c7be)"><path fill="#aa9c77" d="M 97 97.296875 L 25.113281 97.296875 L 25.113281 43.847656 L 25.285156 43.679688 L 55.101562 14.335938 L 42.546875 1.984375 L 1.453125 42.421875 L 1.453125 96.726562 L 0.304688 96.726562 L 0.304688 41.941406 L 0.476562 41.773438 L 42.546875 0.371094 L 55.921875 13.53125 L 69.671875 0 L 69.671875 27.066406 L 97 53.957031 Z M 26.261719 96.152344 L 95.851562 96.152344 L 95.851562 54.433594 L 69.671875 28.675781 L 69.671875 60.871094 L 68.527344 60.871094 L 68.527344 27.546875 L 55.921875 15.140625 L 26.261719 44.328125 Z M 56.738281 14.335938 L 68.527344 25.9375 L 68.527344 2.738281 Z M 56.738281 14.335938 " fill-opacity="1" fill-rule="nonzero"/></g></svg>