<svg xmlns="http://www.w3.org/2000/svg" xmlns:xlink="http://www.w3.org/1999/xlink" width="70" zoomAndPan="magnify" viewBox="0 0 52.5 52.499999" height="70" preserveAspectRatio="xMidYMid meet" version="1.0"><defs><filter x="0%" y="0%" width="100%" height="100%" id="abeae5aaf8"><feColorMatrix values="0 0 0 0 1 0 0 0 0 1 0 0 0 0 1 0 0 0 1 0" color-interpolation-filters="sRGB"/></filter><clipPath id="9874cc9c22"><path d="M 0 0 L 52.003906 0 L 52.003906 52.003906 L 0 52.003906 Z M 0 0 " clip-rule="nonzero"/></clipPath><mask id="e242c44383"><g filter="url(#abeae5aaf8)"><rect x="-5.25" width="63" fill="#000000" y="-5.25" height="62.999999" fill-opacity="0.7"/></g></mask><clipPath id="48a03a00c5"><path d="M 0.617188 0 L 51.878906 0 L 51.878906 52.003906 L 0.617188 52.003906 Z M 0.617188 0 " clip-rule="nonzero"/></clipPath><clipPath id="0a7c892e2b"><rect x="0" width="53" y="0" height="53"/></clipPath></defs><g clip-path="url(#9874cc9c22)"><path fill="#ffffff" d="M 0 0 L 52.003906 0 L 52.003906 52.003906 L 0 52.003906 Z M 0 0 " fill-opacity="1" fill-rule="nonzero"/><path fill="#ffffff" d="M 0 0 L 52.003906 0 L 52.003906 52.003906 L 0 52.003906 Z M 0 0 " fill-opacity="1" fill-rule="nonzero"/><g mask="url(#e242c44383)"><g transform="matrix(1, 0, 0, 1, 0, 0.000000000000000295)"><g clip-path="url(#0a7c892e2b)"><g clip-path="url(#48a03a00c5)"><path fill="#0e3543" d="M 0.996094 5.707031 L 6.292969 0 L 11.039062 5.746094 C 11.1875 5.925781 11.257812 6.148438 11.257812 6.367188 C 11.257812 6.652344 11.132812 6.9375 10.878906 7.136719 C 10.449219 7.472656 9.808594 7.410156 9.460938 6.988281 L 7.257812 4.304688 L 7.257812 36.199219 L 9.46875 33.527344 C 9.816406 33.105469 10.460938 33.03125 10.890625 33.378906 C 11.144531 33.566406 11.269531 33.863281 11.269531 34.148438 C 11.269531 34.367188 11.195312 34.578125 11.050781 34.769531 L 6.300781 40.515625 L 0.996094 34.808594 C 0.617188 34.410156 0.648438 33.789062 1.070312 33.421875 C 1.480469 33.050781 2.121094 33.085938 2.492188 33.496094 L 5.238281 36.453125 L 5.238281 4.074219 L 2.492188 7.019531 C 2.113281 7.421875 1.480469 7.453125 1.070312 7.09375 C 0.648438 6.726562 0.617188 6.105469 0.996094 5.707031 Z M 30.132812 32.441406 L 30.132812 24.398438 L 40.585938 24.398438 L 40.585938 32.441406 Z M 35.804688 25.441406 L 35.804688 31.535156 L 39.636719 31.535156 L 39.636719 25.441406 Z M 31.101562 25.441406 L 31.101562 31.535156 L 34.910156 31.535156 L 34.910156 25.441406 Z M 27.953125 18.136719 L 27.953125 12.484375 C 27.953125 12.074219 28.289062 11.746094 28.691406 11.746094 L 32.753906 11.746094 C 33.164062 11.746094 33.492188 12.074219 33.492188 12.484375 L 33.492188 18.136719 C 33.492188 18.546875 33.152344 18.875 32.753906 18.875 L 28.691406 18.875 C 28.289062 18.875 27.953125 18.535156 27.953125 18.136719 Z M 28.953125 12.746094 L 28.953125 17.875 L 32.5 17.875 L 32.5 12.746094 Z M 45.59375 52.632812 C 45.816406 52.632812 46.027344 52.558594 46.214844 52.410156 L 51.996094 47.664062 L 46.257812 42.367188 C 45.859375 41.988281 45.226562 42.019531 44.859375 42.441406 C 44.492188 42.851562 44.523438 43.496094 44.933594 43.863281 L 47.902344 46.609375 L 15.34375 46.609375 L 18.324219 43.863281 C 18.722656 43.484375 18.753906 42.851562 18.394531 42.441406 C 18.027344 42.03125 17.40625 42 16.996094 42.367188 L 11.257812 47.664062 L 17.039062 52.410156 C 17.21875 52.558594 17.4375 52.632812 17.660156 52.632812 C 17.945312 52.632812 18.238281 52.503906 18.425781 52.253906 C 18.773438 51.820312 18.703125 51.179688 18.28125 50.832031 L 15.597656 48.621094 L 47.667969 48.621094 L 44.984375 50.832031 C 44.5625 51.179688 44.492188 51.820312 44.835938 52.253906 C 45.027344 52.503906 45.3125 52.632812 45.59375 52.632812 Z M 15.878906 36.125 L 16.417969 36.125 L 16.417969 20.285156 L 15.828125 20.769531 C 15.289062 21.199219 14.617188 21.441406 13.933594 21.441406 C 13.027344 21.441406 12.175781 21.042969 11.597656 20.335938 C 11.089844 19.714844 10.859375 18.925781 10.945312 18.136719 C 11.015625 17.335938 11.417969 16.621094 12.039062 16.117188 L 28.617188 2.609375 C 29.667969 1.769531 31.363281 1.769531 32.40625 2.609375 L 38.53125 7.578125 L 38.53125 3.042969 L 44.773438 3.042969 L 44.773438 12.652344 L 49.007812 16.09375 C 49.628906 16.601562 50.015625 17.316406 50.101562 18.117188 C 50.183594 18.914062 49.941406 19.695312 49.4375 20.316406 C 48.890625 21 48.007812 21.398438 47.089844 21.398438 C 46.394531 21.398438 45.730469 21.167969 45.214844 20.746094 L 44.628906 20.273438 L 44.628906 36.117188 L 45.164062 36.117188 C 46.34375 36.117188 47.300781 37.074219 47.300781 38.253906 C 47.300781 39.429688 46.34375 40.390625 45.164062 40.390625 L 15.878906 40.390625 C 14.703125 40.390625 13.742188 39.429688 13.742188 38.253906 C 13.734375 37.082031 14.691406 36.125 15.878906 36.125 Z M 15.878906 37.410156 C 15.40625 37.410156 15.015625 37.800781 15.015625 38.261719 C 15.015625 38.738281 15.40625 39.125 15.878906 39.125 L 45.164062 39.125 C 45.636719 39.125 46.027344 38.738281 46.027344 38.261719 C 46.027344 37.789062 45.636719 37.410156 45.164062 37.410156 Z M 26.628906 36.136719 L 26.628906 25.042969 C 26.628906 24.707031 26.355469 24.429688 26.015625 24.429688 L 22.964844 24.429688 C 22.628906 24.429688 22.355469 24.707031 22.355469 25.042969 L 22.355469 36.136719 Z M 39.828125 8.632812 L 43.492188 11.609375 L 43.492188 4.441406 L 39.828125 4.441406 Z M 30.523438 6.222656 L 46.027344 19.769531 C 46.332031 20.011719 46.710938 20.125 47.089844 20.125 C 47.605469 20.125 48.132812 19.914062 48.449219 19.503906 C 49.046875 18.769531 48.941406 17.683594 48.195312 17.085938 L 43.835938 13.535156 L 43.699219 13.433594 L 38.953125 9.578125 L 38.710938 9.378906 L 31.597656 3.601562 C 30.976562 3.09375 30.039062 3.105469 29.417969 3.601562 L 12.839844 17.09375 C 12.101562 17.695312 11.984375 18.777344 12.585938 19.515625 C 13.152344 20.222656 14.3125 20.335938 15.007812 19.769531 Z M 18.21875 36.085938 L 21.269531 36.085938 L 21.269531 25.042969 C 21.269531 24.105469 22.027344 23.347656 22.964844 23.347656 L 26.015625 23.347656 C 26.953125 23.347656 27.710938 24.105469 27.710938 25.042969 L 27.710938 36.117188 L 42.816406 36.117188 L 42.816406 18.875 L 30.523438 8.136719 L 18.21875 19.054688 Z M 18.21875 36.085938 " fill-opacity="1" fill-rule="nonzero"/></g></g></g></g></g></svg>