<svg xmlns="http://www.w3.org/2000/svg" xmlns:xlink="http://www.w3.org/1999/xlink" width="70" zoomAndPan="magnify" viewBox="0 0 52.5 52.499999" height="70" preserveAspectRatio="xMidYMid meet" version="1.0"><defs><filter x="0%" y="0%" width="100%" height="100%" id="bae0bab740"><feColorMatrix values="0 0 0 0 1 0 0 0 0 1 0 0 0 0 1 0 0 0 1 0" color-interpolation-filters="sRGB"/></filter><clipPath id="de03f1fc6f"><path d="M 0 0 L 52.003906 0 L 52.003906 52.003906 L 0 52.003906 Z M 0 0 " clip-rule="nonzero"/></clipPath><mask id="66f11d8576"><g filter="url(#bae0bab740)"><rect x="-5.25" width="63" fill="#000000" y="-5.25" height="62.999999" fill-opacity="0.7"/></g></mask><clipPath id="d933293908"><path d="M 7 25 L 45 25 L 45 52.003906 L 7 52.003906 Z M 7 25 " clip-rule="nonzero"/></clipPath><clipPath id="e169986a3a"><path d="M 0 0 L 52.003906 0 L 52.003906 52.003906 L 0 52.003906 Z M 0 0 " clip-rule="nonzero"/></clipPath><clipPath id="ebf29e60aa"><rect x="0" width="53" y="0" height="53"/></clipPath></defs><g clip-path="url(#de03f1fc6f)"><path fill="#ffffff" d="M 0 0 L 52.003906 0 L 52.003906 52.003906 L 0 52.003906 Z M 0 0 " fill-opacity="1" fill-rule="nonzero"/><path fill="#ffffff" d="M 0 0 L 52.003906 0 L 52.003906 52.003906 L 0 52.003906 Z M 0 0 " fill-opacity="1" fill-rule="nonzero"/><g mask="url(#66f11d8576)"><g transform="matrix(1, 0, 0, 1, 0, 0.000000000000000295)"><g clip-path="url(#ebf29e60aa)"><path fill="#0e3543" d="M 31.445312 39.910156 L 20.558594 39.910156 C 20.457031 39.910156 20.355469 39.9375 20.265625 39.988281 C 20.175781 40.039062 20.101562 40.109375 20.046875 40.199219 C 19.992188 40.285156 19.960938 40.382812 19.957031 40.488281 C 19.949219 40.59375 19.972656 40.691406 20.019531 40.785156 L 21.226562 43.203125 C 21.339844 43.425781 21.519531 43.539062 21.769531 43.539062 L 30.234375 43.539062 C 30.484375 43.539062 30.664062 43.425781 30.777344 43.203125 L 31.984375 40.785156 C 32.03125 40.691406 32.054688 40.59375 32.050781 40.488281 C 32.042969 40.382812 32.015625 40.285156 31.960938 40.199219 C 31.902344 40.109375 31.832031 40.039062 31.738281 39.988281 C 31.648438 39.9375 31.550781 39.910156 31.445312 39.910156 Z M 29.863281 42.328125 L 22.144531 42.328125 L 21.539062 41.121094 L 30.464844 41.121094 Z M 29.863281 42.328125 " fill-opacity="1" fill-rule="nonzero"/><path fill="#0e3543" d="M 17.601562 39.914062 L 12.160156 39.308594 C 11.980469 39.289062 11.824219 39.339844 11.691406 39.460938 C 11.554688 39.582031 11.488281 39.730469 11.488281 39.910156 L 11.488281 43.539062 C 11.488281 43.71875 11.554688 43.871094 11.691406 43.988281 C 11.824219 44.109375 11.980469 44.160156 12.160156 44.140625 L 17.601562 43.535156 C 17.757812 43.519531 17.882812 43.453125 17.988281 43.335938 C 18.089844 43.222656 18.140625 43.089844 18.140625 42.933594 L 18.140625 40.515625 C 18.140625 40.359375 18.089844 40.226562 17.988281 40.113281 C 17.882812 39.996094 17.757812 39.929688 17.601562 39.914062 Z M 16.933594 42.394531 L 12.699219 42.863281 L 12.699219 40.585938 L 16.933594 41.054688 Z M 16.933594 42.394531 " fill-opacity="1" fill-rule="nonzero"/><path fill="#0e3543" d="M 34.402344 39.914062 C 34.25 39.929688 34.121094 39.996094 34.019531 40.113281 C 33.914062 40.226562 33.863281 40.359375 33.863281 40.515625 L 33.863281 42.933594 C 33.863281 43.089844 33.914062 43.222656 34.019531 43.335938 C 34.121094 43.453125 34.25 43.519531 34.402344 43.535156 L 39.84375 44.140625 C 40.023438 44.160156 40.179688 44.109375 40.3125 43.988281 C 40.449219 43.871094 40.515625 43.71875 40.515625 43.539062 L 40.515625 39.910156 C 40.515625 39.730469 40.449219 39.582031 40.3125 39.460938 C 40.179688 39.339844 40.023438 39.289062 39.84375 39.308594 Z M 39.304688 42.863281 L 35.074219 42.394531 L 35.074219 41.054688 L 39.304688 40.585938 Z M 39.304688 42.863281 " fill-opacity="1" fill-rule="nonzero"/><g clip-path="url(#d933293908)"><path fill="#0e3543" d="M 43.539062 30.234375 L 40.515625 30.234375 C 40.375 30.234375 40.253906 30.277344 40.144531 30.363281 C 40.035156 30.449219 39.960938 30.558594 39.929688 30.691406 L 39.910156 30.765625 L 39.597656 29.519531 C 39.453125 28.929688 39.214844 28.382812 38.882812 27.871094 C 38.554688 27.363281 38.148438 26.921875 37.671875 26.546875 C 37.191406 26.175781 36.664062 25.890625 36.089844 25.691406 C 35.515625 25.496094 34.925781 25.398438 34.320312 25.398438 L 18 25.398438 C 17.429688 25.398438 16.871094 25.484375 16.328125 25.660156 C 15.785156 25.835938 15.28125 26.089844 14.816406 26.421875 C 14.351562 26.757812 13.953125 27.15625 13.613281 27.613281 C 13.277344 28.074219 13.015625 28.578125 12.835938 29.117188 L 12.175781 31.097656 L 12.074219 30.691406 C 12.042969 30.558594 11.972656 30.449219 11.863281 30.363281 C 11.753906 30.277344 11.628906 30.234375 11.488281 30.234375 L 8.464844 30.234375 C 8.371094 30.234375 8.285156 30.253906 8.199219 30.296875 C 8.117188 30.335938 8.046875 30.394531 7.988281 30.46875 C 7.933594 30.542969 7.894531 30.625 7.875 30.714844 C 7.855469 30.804688 7.855469 30.894531 7.878906 30.988281 L 8.484375 33.40625 C 8.519531 33.539062 8.589844 33.648438 8.699219 33.734375 C 8.808594 33.820312 8.933594 33.863281 9.070312 33.863281 L 11.003906 33.863281 L 8.925781 37.1875 C 8.617188 37.679688 8.464844 38.210938 8.464844 38.789062 L 8.464844 45.351562 C 8.464844 45.753906 8.542969 46.140625 8.695312 46.507812 C 8.851562 46.878906 9.070312 47.207031 9.351562 47.488281 C 9.636719 47.773438 9.960938 47.992188 10.332031 48.144531 C 10.703125 48.300781 11.089844 48.375 11.488281 48.375 L 11.488281 50.191406 C 11.488281 50.429688 11.535156 50.664062 11.628906 50.882812 C 11.71875 51.105469 11.851562 51.304688 12.019531 51.472656 C 12.191406 51.644531 12.386719 51.773438 12.609375 51.867188 C 12.832031 51.957031 13.0625 52.003906 13.304688 52.003906 L 16.933594 52.003906 C 17.171875 52.003906 17.402344 51.957031 17.625 51.867188 C 17.847656 51.773438 18.042969 51.644531 18.214844 51.472656 C 18.382812 51.304688 18.515625 51.105469 18.605469 50.882812 C 18.699219 50.664062 18.746094 50.429688 18.746094 50.191406 L 18.746094 48.375 L 33.257812 48.375 L 33.257812 50.191406 C 33.257812 50.429688 33.304688 50.664062 33.398438 50.882812 C 33.488281 51.105469 33.621094 51.304688 33.789062 51.472656 C 33.960938 51.644531 34.15625 51.773438 34.378906 51.867188 C 34.601562 51.957031 34.832031 52.003906 35.074219 52.003906 L 38.703125 52.003906 C 38.941406 52.003906 39.171875 51.957031 39.394531 51.867188 C 39.617188 51.773438 39.8125 51.644531 39.984375 51.472656 C 40.152344 51.304688 40.285156 51.105469 40.375 50.882812 C 40.46875 50.664062 40.515625 50.429688 40.515625 50.191406 L 40.515625 48.375 C 40.917969 48.375 41.300781 48.300781 41.671875 48.144531 C 42.042969 47.992188 42.367188 47.773438 42.652344 47.488281 C 42.9375 47.207031 43.152344 46.878906 43.308594 46.507812 C 43.460938 46.140625 43.539062 45.753906 43.539062 45.351562 L 43.539062 38.789062 C 43.539062 38.210938 43.386719 37.679688 43.078125 37.1875 L 41 33.863281 L 42.933594 33.863281 C 43.074219 33.863281 43.195312 33.820312 43.304688 33.734375 C 43.414062 33.648438 43.488281 33.539062 43.519531 33.40625 L 44.125 30.988281 C 44.148438 30.894531 44.148438 30.804688 44.128906 30.714844 C 44.109375 30.625 44.074219 30.542969 44.015625 30.46875 C 43.957031 30.394531 43.886719 30.335938 43.804688 30.296875 C 43.71875 30.253906 43.632812 30.234375 43.539062 30.234375 Z M 13.984375 29.5 C 14.125 29.078125 14.324219 28.691406 14.589844 28.332031 C 14.851562 27.972656 15.164062 27.664062 15.523438 27.40625 C 15.882812 27.144531 16.277344 26.945312 16.699219 26.8125 C 17.121094 26.675781 17.554688 26.605469 18 26.605469 L 34.320312 26.605469 C 34.792969 26.605469 35.25 26.683594 35.699219 26.835938 C 36.144531 26.988281 36.554688 27.210938 36.925781 27.503906 C 37.296875 27.792969 37.613281 28.136719 37.871094 28.53125 C 38.125 28.929688 38.3125 29.355469 38.425781 29.8125 L 39.222656 32.992188 L 38.230469 33.652344 C 36.8125 34.601562 35.246094 35.074219 33.535156 35.074219 L 18.46875 35.074219 C 16.757812 35.074219 15.195312 34.601562 13.773438 33.652344 L 12.8125 33.011719 Z M 9.242188 31.445312 L 11.015625 31.445312 L 11.320312 32.652344 L 9.542969 32.652344 Z M 17.535156 50.191406 C 17.535156 50.359375 17.476562 50.5 17.359375 50.617188 C 17.242188 50.734375 17.097656 50.796875 16.933594 50.796875 L 13.304688 50.796875 C 13.136719 50.796875 12.996094 50.734375 12.875 50.617188 C 12.757812 50.5 12.699219 50.359375 12.699219 50.191406 L 12.699219 48.375 L 17.535156 48.375 Z M 39.304688 50.191406 C 39.304688 50.359375 39.246094 50.5 39.128906 50.617188 C 39.011719 50.734375 38.867188 50.796875 38.703125 50.796875 L 35.074219 50.796875 C 34.90625 50.796875 34.761719 50.734375 34.644531 50.617188 C 34.527344 50.5 34.46875 50.359375 34.46875 50.191406 L 34.46875 48.375 L 39.304688 48.375 Z M 42.328125 38.789062 L 42.328125 45.351562 C 42.328125 45.59375 42.28125 45.824219 42.191406 46.046875 C 42.097656 46.269531 41.96875 46.464844 41.796875 46.636719 C 41.628906 46.804688 41.429688 46.9375 41.210938 47.027344 C 40.988281 47.121094 40.753906 47.167969 40.515625 47.167969 L 11.488281 47.167969 C 11.25 47.167969 11.019531 47.121094 10.796875 47.027344 C 10.574219 46.9375 10.378906 46.804688 10.207031 46.636719 C 10.039062 46.464844 9.90625 46.269531 9.8125 46.046875 C 9.722656 45.824219 9.675781 45.59375 9.675781 45.351562 L 9.675781 38.789062 C 9.675781 38.441406 9.765625 38.121094 9.949219 37.828125 L 12.277344 34.109375 L 13.101562 34.65625 C 14.726562 35.742188 16.515625 36.285156 18.46875 36.28125 L 33.535156 36.28125 C 35.488281 36.285156 37.277344 35.742188 38.902344 34.65625 L 39.726562 34.105469 L 42.054688 37.828125 C 42.238281 38.121094 42.328125 38.445312 42.328125 38.789062 Z M 42.460938 32.652344 L 40.683594 32.652344 L 40.988281 31.445312 L 42.765625 31.445312 Z M 42.460938 32.652344 " fill-opacity="1" fill-rule="nonzero"/></g><g clip-path="url(#e169986a3a)"><path fill="#0e3543" d="M 51.589844 8.496094 L 26.195312 0.03125 C 26.066406 -0.0117188 25.9375 -0.0117188 25.8125 0.03125 L 0.414062 8.496094 C 0.136719 8.589844 0 8.78125 0 9.070312 L 0 51.398438 C 0 51.566406 0.0585938 51.710938 0.175781 51.828125 C 0.296875 51.945312 0.4375 52.003906 0.605469 52.003906 L 4.835938 52.003906 C 5.003906 52.003906 5.148438 51.945312 5.265625 51.828125 C 5.382812 51.710938 5.441406 51.566406 5.441406 51.398438 L 5.441406 22.980469 L 46.5625 22.980469 L 46.5625 51.398438 C 46.5625 51.566406 46.621094 51.710938 46.738281 51.828125 C 46.859375 51.945312 47 52.003906 47.167969 52.003906 L 51.398438 52.003906 C 51.566406 52.003906 51.710938 51.945312 51.828125 51.828125 C 51.945312 51.710938 52.003906 51.566406 52.003906 51.398438 L 52.003906 9.070312 C 52.003906 8.78125 51.867188 8.589844 51.589844 8.496094 Z M 1.210938 9.507812 L 26.003906 1.242188 L 50.796875 9.507812 L 50.796875 12.09375 L 1.210938 12.09375 Z M 46.5625 16.933594 L 5.441406 16.933594 L 5.441406 15.722656 L 46.5625 15.722656 Z M 5.441406 18.140625 L 46.5625 18.140625 L 46.5625 19.351562 L 5.441406 19.351562 Z M 46.5625 14.511719 L 5.441406 14.511719 L 5.441406 13.304688 L 46.5625 13.304688 Z M 4.234375 50.796875 L 1.210938 50.796875 L 1.210938 13.304688 L 4.234375 13.304688 Z M 5.441406 21.769531 L 5.441406 20.558594 L 46.5625 20.558594 L 46.5625 21.769531 Z M 50.796875 50.796875 L 47.773438 50.796875 L 47.773438 13.304688 L 50.796875 13.304688 Z M 50.796875 50.796875 " fill-opacity="1" fill-rule="nonzero"/></g></g></g></g></g></svg>