<svg xmlns="http://www.w3.org/2000/svg" xmlns:xlink="http://www.w3.org/1999/xlink" width="70" zoomAndPan="magnify" viewBox="0 0 52.5 52.499999" height="70" preserveAspectRatio="xMidYMid meet" version="1.0"><defs><filter x="0%" y="0%" width="100%" height="100%" id="246808638f"><feColorMatrix values="0 0 0 0 1 0 0 0 0 1 0 0 0 0 1 0 0 0 1 0" color-interpolation-filters="sRGB"/></filter><clipPath id="8e5ff71394"><path d="M 0 0 L 52.003906 0 L 52.003906 52.003906 L 0 52.003906 Z M 0 0 " clip-rule="nonzero"/></clipPath><mask id="66fbd6a60e"><g filter="url(#246808638f)"><rect x="-5.25" width="63" fill="#000000" y="-5.25" height="62.999999" fill-opacity="0.7"/></g></mask><clipPath id="86e7949be9"><path d="M 42 0.03125 L 45 0.03125 L 45 4 L 42 4 Z M 42 0.03125 " clip-rule="nonzero"/></clipPath><clipPath id="dae9f9aa5e"><path d="M 0 7 L 51.972656 7 L 51.972656 47 L 0 47 Z M 0 7 " clip-rule="nonzero"/></clipPath><clipPath id="0919754c64"><path d="M 48 7 L 51.972656 7 L 51.972656 10 L 48 10 Z M 48 7 " clip-rule="nonzero"/></clipPath><clipPath id="025f612894"><path d="M 40 41 L 51.972656 41 L 51.972656 46 L 40 46 Z M 40 41 " clip-rule="nonzero"/></clipPath><clipPath id="c6acff724a"><path d="M 36 50 L 38 50 L 38 52.003906 L 36 52.003906 Z M 36 50 " clip-rule="nonzero"/></clipPath><clipPath id="09c9e85723"><rect x="0" width="53" y="0" height="53"/></clipPath></defs><g clip-path="url(#8e5ff71394)"><path fill="#ffffff" d="M 0 0 L 52.003906 0 L 52.003906 52.003906 L 0 52.003906 Z M 0 0 " fill-opacity="1" fill-rule="nonzero"/><path fill="#ffffff" d="M 0 0 L 52.003906 0 L 52.003906 52.003906 L 0 52.003906 Z M 0 0 " fill-opacity="1" fill-rule="nonzero"/><g mask="url(#66fbd6a60e)"><g transform="matrix(1, 0, 0, 1, 0, 0.000000000000000295)"><g clip-path="url(#09c9e85723)"><g clip-path="url(#86e7949be9)"><path fill="#0e3543" d="M 43.234375 0.03125 L 43.714844 0.03125 C 43.984375 0.1875 44.277344 0.414062 44.273438 0.757812 C 44.292969 1.414062 44.3125 2.074219 44.253906 2.730469 C 44.191406 3.273438 43.476562 3.53125 43.058594 3.203125 C 42.773438 3.007812 42.726562 2.640625 42.734375 2.324219 C 42.746094 1.78125 42.710938 1.238281 42.757812 0.699219 C 42.785156 0.40625 43.035156 0.21875 43.234375 0.03125 Z M 43.234375 0.03125 " fill-opacity="1" fill-rule="nonzero"/></g><path fill="#0e3543" d="M 37.746094 2.359375 C 38.015625 2.199219 38.363281 2.277344 38.585938 2.484375 C 38.953125 2.804688 39.28125 3.171875 39.636719 3.507812 C 39.828125 3.707031 40.070312 3.902344 40.113281 4.195312 C 40.214844 4.6875 39.699219 5.191406 39.207031 5.074219 C 38.914062 4.988281 38.707031 4.746094 38.496094 4.542969 C 38.160156 4.1875 37.789062 3.863281 37.472656 3.488281 C 37.167969 3.140625 37.332031 2.539062 37.746094 2.359375 Z M 37.746094 2.359375 " fill-opacity="1" fill-rule="nonzero"/><path fill="#0e3543" d="M 48.652344 2.34375 C 49.191406 2.066406 49.867188 2.679688 49.671875 3.242188 C 49.53125 3.601562 49.207031 3.835938 48.953125 4.109375 C 48.652344 4.394531 48.382812 4.71875 48.050781 4.964844 C 47.617188 5.292969 46.9375 4.917969 46.90625 4.398438 C 46.847656 3.933594 47.28125 3.640625 47.5625 3.339844 C 47.929688 3.011719 48.222656 2.59375 48.652344 2.34375 Z M 48.652344 2.34375 " fill-opacity="1" fill-rule="nonzero"/><path fill="#0e3543" d="M 42.726562 4.332031 C 43.851562 4.125 45.058594 4.382812 45.976562 5.066406 C 46.882812 5.710938 47.503906 6.734375 47.675781 7.832031 C 47.851562 8.980469 47.523438 10.195312 46.792969 11.097656 C 45.808594 12.347656 44.078125 12.960938 42.527344 12.5625 C 41.183594 12.246094 40.035156 11.21875 39.5625 9.921875 C 39.179688 8.914062 39.222656 7.753906 39.664062 6.773438 C 40.207031 5.523438 41.394531 4.585938 42.726562 4.332031 M 42.734375 5.902344 C 41.742188 6.1875 40.933594 7.09375 40.851562 8.136719 C 40.800781 8.695312 40.867188 9.28125 41.160156 9.773438 C 41.644531 10.695312 42.707031 11.253906 43.742188 11.144531 C 44.628906 11.097656 45.460938 10.539062 45.871094 9.753906 C 46.4375 8.722656 46.230469 7.320312 45.359375 6.515625 C 44.675781 5.863281 43.632812 5.640625 42.734375 5.902344 Z M 42.734375 5.902344 " fill-opacity="1" fill-rule="nonzero"/><g clip-path="url(#dae9f9aa5e)"><path fill="#0e3543" d="M 9.121094 9.695312 C 11.605469 8.222656 14.449219 7.359375 17.332031 7.207031 C 23.472656 6.769531 29.6875 9.777344 33.273438 14.757812 C 34.835938 16.890625 35.914062 19.375 36.4375 21.964844 C 36.5 22.339844 36.617188 22.78125 36.351562 23.105469 C 36.089844 23.46875 35.445312 23.519531 35.1875 23.132812 C 35.046875 22.898438 35.003906 22.621094 34.917969 22.363281 C 34.738281 21.757812 34.304688 21.234375 33.757812 20.925781 C 32.355469 20.140625 30.3125 20.78125 29.726562 22.308594 C 29.46875 22.882812 29.636719 23.519531 29.566406 24.117188 C 29.386719 24.699219 28.449219 24.742188 28.207031 24.191406 C 28.011719 23.675781 27.925781 23.09375 27.542969 22.667969 C 26.398438 21.265625 23.859375 21.429688 22.957031 23.015625 C 22.585938 23.605469 22.632812 24.320312 22.667969 24.984375 C 22.707031 25.597656 21.855469 25.960938 21.410156 25.574219 C 21.195312 25.359375 21.167969 25.042969 21.074219 24.769531 C 20.792969 23.722656 19.808594 22.929688 18.738281 22.832031 C 18.832031 23.789062 19.050781 24.726562 19.171875 25.675781 C 19.539062 27.929688 19.898438 30.1875 20.277344 32.4375 C 20.507812 32.460938 20.738281 32.480469 20.96875 32.484375 C 31.019531 32.492188 41.070312 32.488281 51.121094 32.488281 C 51.496094 32.429688 51.765625 32.714844 51.945312 33.007812 L 51.945312 33.46875 C 51.753906 33.746094 51.480469 34.011719 51.117188 33.972656 C 41.101562 33.976562 31.089844 33.972656 21.074219 33.972656 C 20.902344 33.976562 20.726562 33.984375 20.554688 33.992188 C 20.796875 35.792969 21.148438 37.574219 21.421875 39.367188 C 21.480469 39.664062 21.460938 40.03125 21.757812 40.203125 C 23.839844 41.714844 25.929688 43.328125 28.394531 44.15625 C 30.367188 44.835938 32.527344 44.699219 34.503906 44.121094 C 35.207031 43.945312 35.875 43.65625 36.574219 43.46875 C 37.066406 43.316406 37.574219 43.804688 37.46875 44.300781 C 37.464844 44.664062 37.121094 44.871094 36.8125 44.976562 C 34.542969 45.753906 32.117188 46.402344 29.699219 46.007812 C 27.117188 45.625 24.808594 44.277344 22.722656 42.765625 C 20.28125 41.058594 17.972656 39.101562 15.21875 37.902344 C 13.953125 37.367188 12.582031 37.042969 11.199219 37.054688 C 7.644531 36.902344 4.046875 38.476562 1.753906 41.203125 C 1.464844 41.523438 1.21875 42.042969 0.710938 42.007812 C 0.375 42.015625 0.144531 41.738281 -0.0234375 41.484375 L -0.0234375 41.039062 C 3.136719 36.492188 9.375 34.441406 14.644531 36.09375 C 15.910156 36.5 17.121094 37.082031 18.253906 37.777344 C 18.761719 38.082031 19.242188 38.433594 19.757812 38.726562 C 19.542969 37.152344 19.25 35.59375 19.039062 34.019531 C 18.542969 33.945312 18.039062 33.972656 17.542969 33.976562 C 11.964844 33.972656 6.390625 33.980469 0.816406 33.972656 C 0.449219 34.007812 0.175781 33.738281 -0.0234375 33.464844 L -0.0234375 33.015625 C 0.148438 32.769531 0.355469 32.460938 0.699219 32.492188 C 6.707031 32.46875 12.71875 32.496094 18.726562 32.472656 C 18.707031 32.140625 18.664062 31.808594 18.605469 31.480469 C 18.125 28.691406 17.699219 25.894531 17.199219 23.109375 C 16.273438 23.601562 15.660156 24.652344 15.707031 25.703125 C 15.695312 26.027344 15.757812 26.421875 15.5 26.675781 C 15.238281 26.929688 14.800781 26.84375 14.5625 26.605469 C 14.1875 26.257812 14.140625 25.71875 13.894531 25.296875 C 13.460938 24.472656 12.535156 23.988281 11.617188 23.992188 C 10.4375 23.960938 9.21875 24.707031 8.867188 25.867188 C 8.6875 26.382812 8.808594 26.925781 8.777344 27.457031 C 8.703125 28.050781 7.816406 28.238281 7.464844 27.777344 C 7.28125 27.5 7.242188 27.164062 7.125 26.863281 C 6.625 25.511719 4.945312 24.71875 3.59375 25.261719 C 2.566406 25.644531 1.851562 26.6875 1.824219 27.78125 C 1.804688 28.105469 1.871094 28.441406 1.78125 28.757812 C 1.515625 29.261719 0.675781 29.332031 0.355469 28.851562 C 0.175781 28.488281 0.171875 28.066406 0.113281 27.671875 C -0.0078125 26.203125 -0.0195312 24.722656 0.136719 23.253906 C 0.382812 21.449219 0.878906 19.671875 1.636719 18.011719 C 3.179688 14.546875 5.839844 11.59375 9.121094 9.695312 M 15.1875 10.019531 C 14.636719 12.398438 14.742188 14.859375 14.792969 17.28125 C 14.878906 19.03125 15.039062 20.773438 15.234375 22.515625 C 15.265625 22.53125 15.316406 22.566406 15.347656 22.585938 C 15.800781 22.226562 16.242188 21.828125 16.796875 21.628906 C 18.003906 21.105469 19.417969 21.21875 20.566406 21.839844 C 20.011719 19.035156 19.320312 16.25 18.355469 13.558594 C 17.941406 12.398438 17.457031 11.261719 16.839844 10.195312 C 16.554688 9.710938 16.238281 9.222656 15.769531 8.894531 C 15.410156 9.15625 15.308594 9.617188 15.1875 10.019531 M 21.503906 8.992188 C 24.292969 10.960938 26.242188 13.902344 27.597656 16.992188 C 28.128906 18.179688 28.488281 19.429688 28.882812 20.664062 C 29.300781 20.304688 29.660156 19.871094 30.15625 19.613281 C 31.324219 18.902344 32.800781 18.863281 34.054688 19.351562 C 32.058594 14.027344 27.085938 9.992188 21.503906 8.992188 M 17.949219 9.035156 C 18.992188 10.808594 19.714844 12.75 20.324219 14.707031 C 21.0625 16.988281 21.597656 19.324219 22.117188 21.65625 C 22.761719 20.964844 23.582031 20.410156 24.523438 20.230469 C 25.4375 20.015625 26.371094 20.21875 27.242188 20.515625 C 26.925781 19.277344 26.429688 18.09375 25.902344 16.933594 C 24.679688 14.355469 23.015625 11.882812 20.640625 10.242188 C 19.820312 9.695312 18.925781 9.210938 17.949219 9.035156 M 12.351562 10.640625 C 11.050781 11.867188 10.191406 13.484375 9.574219 15.144531 C 9.484375 15.347656 9.40625 15.597656 9.1875 15.703125 C 8.792969 15.917969 8.21875 15.738281 8.0625 15.300781 C 7.972656 15.050781 8.074219 14.789062 8.160156 14.550781 C 8.574219 13.464844 9.082031 12.410156 9.734375 11.449219 C 9.859375 11.265625 9.972656 11.074219 10.074219 10.878906 C 8.046875 12.011719 6.296875 13.605469 4.894531 15.445312 C 2.875 18.125 1.652344 21.417969 1.546875 24.777344 C 2.21875 24.230469 2.988281 23.785156 3.855469 23.640625 C 4.886719 23.425781 5.9375 23.734375 6.859375 24.191406 C 6.890625 23.414062 6.75 22.636719 6.84375 21.859375 C 6.875 20.769531 6.941406 19.675781 7.128906 18.601562 C 7.191406 18.214844 7.589844 17.941406 7.976562 18.019531 C 8.375 18.046875 8.707031 18.441406 8.628906 18.84375 C 8.394531 20.460938 8.289062 22.105469 8.390625 23.738281 C 8.667969 23.523438 8.929688 23.292969 9.226562 23.105469 C 10.25 22.453125 11.558594 22.269531 12.722656 22.621094 C 13.089844 22.71875 13.417969 22.933594 13.789062 23.027344 C 13.363281 19.609375 13.09375 16.15625 13.285156 12.707031 C 13.332031 11.6875 13.5 10.683594 13.6875 9.679688 C 13.175781 9.894531 12.753906 10.273438 12.351562 10.640625 Z M 12.351562 10.640625 " fill-opacity="1" fill-rule="nonzero"/></g><path fill="#0e3543" d="M 35.554688 7.765625 C 36.019531 7.644531 36.503906 7.722656 36.976562 7.703125 C 37.328125 7.714844 37.707031 7.65625 38.027344 7.820312 C 38.492188 8.082031 38.503906 8.832031 38.046875 9.109375 C 37.628906 9.351562 37.121094 9.207031 36.667969 9.246094 C 36.210938 9.210938 35.640625 9.378906 35.292969 8.992188 C 34.933594 8.632812 35.070312 7.933594 35.554688 7.765625 Z M 35.554688 7.765625 " fill-opacity="1" fill-rule="nonzero"/><g clip-path="url(#0919754c64)"><path fill="#0e3543" d="M 48.636719 8.449219 C 48.621094 8.0625 48.960938 7.726562 49.34375 7.714844 C 49.96875 7.683594 50.597656 7.6875 51.222656 7.714844 C 51.5625 7.710938 51.789062 7.996094 51.945312 8.265625 L 51.945312 8.742188 C 51.746094 8.96875 51.523438 9.234375 51.195312 9.230469 C 50.589844 9.257812 49.976562 9.257812 49.367188 9.234375 C 48.964844 9.226562 48.605469 8.859375 48.636719 8.449219 Z M 48.636719 8.449219 " fill-opacity="1" fill-rule="nonzero"/></g><path fill="#0e3543" d="M 39.089844 11.914062 C 39.519531 11.726562 40.058594 12.042969 40.117188 12.507812 C 40.199219 12.941406 39.8125 13.238281 39.546875 13.515625 C 39.152344 13.875 38.816406 14.308594 38.375 14.617188 C 37.847656 14.835938 37.207031 14.347656 37.328125 13.773438 C 37.421875 13.351562 37.839844 13.113281 38.105469 12.800781 C 38.433594 12.507812 38.695312 12.121094 39.089844 11.914062 Z M 39.089844 11.914062 " fill-opacity="1" fill-rule="nonzero"/><path fill="#0e3543" d="M 47.402344 11.910156 C 47.792969 11.746094 48.171875 12.003906 48.417969 12.289062 C 48.796875 12.703125 49.238281 13.0625 49.585938 13.507812 C 49.921875 13.972656 49.496094 14.707031 48.929688 14.65625 C 48.601562 14.691406 48.382812 14.40625 48.167969 14.207031 C 47.796875 13.8125 47.375 13.46875 47.039062 13.046875 C 46.742188 12.667969 46.953125 12.054688 47.402344 11.910156 Z M 47.402344 11.910156 " fill-opacity="1" fill-rule="nonzero"/><path fill="#0e3543" d="M 43.152344 13.683594 C 43.597656 13.429688 44.242188 13.746094 44.265625 14.273438 C 44.304688 14.894531 44.289062 15.523438 44.277344 16.144531 C 44.28125 16.542969 43.925781 16.90625 43.527344 16.890625 C 43.117188 16.917969 42.734375 16.550781 42.746094 16.136719 C 42.734375 15.554688 42.738281 14.96875 42.746094 14.382812 C 42.742188 14.101562 42.890625 13.808594 43.152344 13.683594 Z M 43.152344 13.683594 " fill-opacity="1" fill-rule="nonzero"/><path fill="#0e3543" d="M 33.691406 36.160156 C 35.269531 36.109375 36.851562 36.152344 38.433594 36.136719 C 41.273438 36.140625 44.113281 36.132812 46.953125 36.140625 C 47.453125 36.101562 47.867188 36.65625 47.679688 37.125 C 47.582031 37.476562 47.199219 37.65625 46.855469 37.628906 C 42.558594 37.625 38.257812 37.628906 33.960938 37.625 C 33.617188 37.652344 33.25 37.464844 33.152344 37.121094 C 32.992188 36.722656 33.277344 36.242188 33.691406 36.160156 Z M 33.691406 36.160156 " fill-opacity="1" fill-rule="nonzero"/><path fill="#0e3543" d="M 29.324219 39.265625 C 29.585938 39.21875 29.851562 39.238281 30.121094 39.238281 C 31.851562 39.25 33.585938 39.238281 35.320312 39.246094 C 35.71875 39.214844 36.117188 39.546875 36.117188 39.953125 C 36.164062 40.382812 35.753906 40.796875 35.320312 40.746094 C 33.375 40.746094 31.433594 40.75 29.488281 40.742188 C 29 40.78125 28.59375 40.203125 28.773438 39.753906 C 28.851562 39.507812 29.070312 39.3125 29.324219 39.265625 Z M 29.324219 39.265625 " fill-opacity="1" fill-rule="nonzero"/><g clip-path="url(#025f612894)"><path fill="#0e3543" d="M 43.351562 41.523438 C 45.191406 41.316406 47.101562 41.519531 48.8125 42.257812 C 49.769531 42.652344 50.640625 43.226562 51.453125 43.863281 C 51.664062 44.035156 51.898438 44.226562 51.914062 44.519531 C 51.984375 44.972656 51.566406 45.386719 51.121094 45.363281 C 50.773438 45.3125 50.523438 45.054688 50.253906 44.859375 C 48.976562 43.871094 47.433594 43.234375 45.832031 43.042969 C 44.464844 42.882812 43.074219 43.023438 41.738281 43.339844 C 41.433594 43.425781 41.070312 43.398438 40.863281 43.128906 C 40.515625 42.769531 40.671875 42.089844 41.148438 41.929688 C 41.859375 41.695312 42.613281 41.613281 43.351562 41.523438 Z M 43.351562 41.523438 " fill-opacity="1" fill-rule="nonzero"/></g><path fill="#0e3543" d="M 16.335938 41.769531 C 16.671875 41.675781 17.09375 41.75 17.253906 42.09375 C 17.5625 42.589844 17.136719 43.359375 16.527344 43.234375 C 15.78125 43.191406 15.664062 42.015625 16.335938 41.769531 Z M 16.335938 41.769531 " fill-opacity="1" fill-rule="nonzero"/><path fill="#0e3543" d="M 3.128906 43.308594 C 3.605469 43.054688 4.242188 43.449219 4.1875 44 C 4.234375 44.535156 3.605469 44.945312 3.132812 44.683594 C 2.597656 44.4375 2.582031 43.550781 3.128906 43.308594 Z M 3.128906 43.308594 " fill-opacity="1" fill-rule="nonzero"/><path fill="#0e3543" d="M 45.449219 46.339844 C 45.964844 45.992188 46.65625 46.53125 46.539062 47.109375 C 46.507812 47.554688 46.039062 47.863281 45.617188 47.734375 C 44.992188 47.601562 44.914062 46.632812 45.449219 46.339844 Z M 45.449219 46.339844 " fill-opacity="1" fill-rule="nonzero"/><path fill="#0e3543" d="M 13.628906 47.5625 C 14.101562 47.296875 14.785156 47.703125 14.703125 48.261719 C 14.753906 48.789062 14.105469 49.195312 13.652344 48.929688 C 13.117188 48.6875 13.109375 47.816406 13.628906 47.5625 Z M 13.628906 47.5625 " fill-opacity="1" fill-rule="nonzero"/><g clip-path="url(#c6acff724a)"><path fill="#0e3543" d="M 36.078125 51.367188 C 35.992188 50.945312 36.3125 50.449219 36.769531 50.472656 C 37.242188 50.425781 37.605469 50.929688 37.511719 51.371094 C 37.464844 51.644531 37.253906 51.835938 37.054688 52.003906 L 36.585938 52.003906 C 36.355469 51.855469 36.089844 51.667969 36.078125 51.367188 Z M 36.078125 51.367188 " fill-opacity="1" fill-rule="nonzero"/></g></g></g></g></g></svg>