<svg xmlns="http://www.w3.org/2000/svg" xmlns:xlink="http://www.w3.org/1999/xlink" width="70" zoomAndPan="magnify" viewBox="0 0 52.5 52.499999" height="70" preserveAspectRatio="xMidYMid meet" version="1.0"><defs><filter x="0%" y="0%" width="100%" height="100%" id="6276a4f914"><feColorMatrix values="0 0 0 0 1 0 0 0 0 1 0 0 0 0 1 0 0 0 1 0" color-interpolation-filters="sRGB"/></filter><clipPath id="291c06f478"><path d="M 0 0 L 52.003906 0 L 52.003906 52.003906 L 0 52.003906 Z M 0 0 " clip-rule="nonzero"/></clipPath><mask id="b1fa1251a7"><g filter="url(#6276a4f914)"><rect x="-5.25" width="63" fill="#000000" y="-5.25" height="62.999999" fill-opacity="0.7"/></g></mask><clipPath id="b56d2bbca4"><path d="M 1 21 L 50.519531 21 L 50.519531 50.519531 L 1 50.519531 Z M 1 21 " clip-rule="nonzero"/></clipPath><clipPath id="fba25726c9"><path d="M 36 19 L 50.519531 19 L 50.519531 24 L 36 24 Z M 36 19 " clip-rule="nonzero"/></clipPath><clipPath id="d196e06105"><path d="M 0 0 L 50.519531 0 L 50.519531 29 L 0 29 Z M 0 0 " clip-rule="nonzero"/></clipPath><clipPath id="ff9c748167"><rect x="0" width="53" y="0" height="53"/></clipPath></defs><g clip-path="url(#291c06f478)"><path fill="#ffffff" d="M 0 0 L 52.003906 0 L 52.003906 52.003906 L 0 52.003906 Z M 0 0 " fill-opacity="1" fill-rule="nonzero"/><path fill="#ffffff" d="M 0 0 L 52.003906 0 L 52.003906 52.003906 L 0 52.003906 Z M 0 0 " fill-opacity="1" fill-rule="nonzero"/><g mask="url(#b1fa1251a7)"><g transform="matrix(1, 0, 0, 1, 0, 0.000000000000000295)"><g clip-path="url(#ff9c748167)"><g clip-path="url(#b56d2bbca4)"><path fill="#0e3543" d="M 2.832031 49.25 L 49.582031 49.25 L 49.582031 23.042969 L 38.71875 23.042969 L 38.71875 29.320312 C 38.71875 29.625 38.472656 29.871094 38.167969 29.871094 L 26.757812 29.871094 L 26.757812 36.144531 C 26.757812 36.449219 26.511719 36.695312 26.207031 36.695312 L 14.792969 36.695312 L 14.792969 42.972656 C 14.792969 43.277344 14.546875 43.523438 14.246094 43.523438 L 2.832031 43.523438 Z M 50.132812 50.347656 L 2.28125 50.347656 C 1.976562 50.347656 1.730469 50.101562 1.730469 49.796875 L 1.730469 42.972656 C 1.730469 42.667969 1.976562 42.421875 2.28125 42.421875 L 13.695312 42.421875 L 13.695312 36.144531 C 13.695312 35.84375 13.941406 35.597656 14.246094 35.597656 L 25.65625 35.597656 L 25.65625 29.320312 C 25.65625 29.015625 25.902344 28.769531 26.207031 28.769531 L 37.621094 28.769531 L 37.621094 22.492188 C 37.621094 22.191406 37.867188 21.945312 38.167969 21.945312 L 50.132812 21.945312 C 50.4375 21.945312 50.683594 22.191406 50.683594 22.492188 L 50.683594 49.796875 C 50.683594 50.101562 50.4375 50.347656 50.132812 50.347656 Z M 50.132812 50.347656 " fill-opacity="1" fill-rule="evenodd"/></g><path fill="#0e3543" d="M 2.28125 43.523438 C 1.160156 43.523438 0.316406 42.71875 0.316406 41.648438 C 0.316406 40.617188 1.15625 39.773438 2.1875 39.773438 L 14.246094 39.773438 C 14.546875 39.773438 14.792969 40.023438 14.792969 40.324219 C 14.792969 40.628906 14.546875 40.875 14.246094 40.875 L 2.1875 40.875 C 1.761719 40.875 1.414062 41.222656 1.414062 41.648438 C 1.414062 42.183594 1.851562 42.421875 2.28125 42.421875 C 2.585938 42.421875 2.832031 42.667969 2.832031 42.972656 C 2.832031 43.277344 2.585938 43.523438 2.28125 43.523438 Z M 2.28125 43.523438 " fill-opacity="1" fill-rule="evenodd"/><path fill="#0e3543" d="M 14.246094 36.695312 C 13.125 36.695312 12.277344 35.890625 12.277344 34.824219 C 12.277344 33.789062 13.117188 32.949219 14.152344 32.949219 L 26.207031 32.949219 C 26.511719 32.949219 26.757812 33.195312 26.757812 33.5 C 26.757812 33.800781 26.511719 34.046875 26.207031 34.046875 L 14.152344 34.046875 C 13.726562 34.046875 13.378906 34.394531 13.378906 34.824219 C 13.378906 35.355469 13.8125 35.597656 14.246094 35.597656 C 14.550781 35.597656 14.796875 35.84375 14.796875 36.144531 C 14.796875 36.449219 14.550781 36.695312 14.246094 36.695312 Z M 14.246094 36.695312 " fill-opacity="1" fill-rule="evenodd"/><path fill="#0e3543" d="M 26.207031 29.871094 C 25.085938 29.871094 24.238281 29.066406 24.238281 27.996094 C 24.238281 26.964844 25.082031 26.125 26.113281 26.125 L 38.167969 26.125 C 38.472656 26.125 38.71875 26.371094 38.71875 26.671875 C 38.71875 26.976562 38.472656 27.222656 38.167969 27.222656 L 26.113281 27.222656 C 25.6875 27.222656 25.339844 27.570312 25.339844 27.996094 C 25.339844 28.53125 25.773438 28.769531 26.207031 28.769531 C 26.511719 28.769531 26.757812 29.015625 26.757812 29.320312 C 26.757812 29.625 26.511719 29.871094 26.207031 29.871094 Z M 26.207031 29.871094 " fill-opacity="1" fill-rule="evenodd"/><g clip-path="url(#fba25726c9)"><path fill="#0e3543" d="M 50.132812 23.042969 C 49.828125 23.042969 49.582031 22.796875 49.582031 22.496094 L 49.582031 20.398438 L 38.078125 20.398438 C 37.648438 20.398438 37.304688 20.742188 37.304688 21.171875 C 37.304688 21.707031 37.738281 21.945312 38.171875 21.945312 C 38.472656 21.945312 38.71875 22.191406 38.71875 22.496094 C 38.71875 22.796875 38.472656 23.042969 38.171875 23.042969 C 37.046875 23.042969 36.203125 22.238281 36.203125 21.171875 C 36.203125 20.136719 37.042969 19.296875 38.074219 19.296875 L 50.132812 19.296875 C 50.4375 19.296875 50.683594 19.542969 50.683594 19.847656 L 50.683594 22.492188 C 50.683594 22.796875 50.4375 23.042969 50.132812 23.042969 Z M 50.132812 23.042969 " fill-opacity="1" fill-rule="evenodd"/></g><path fill="#0e3543" d="M 6.316406 40.875 C 6.011719 40.875 5.765625 40.628906 5.765625 40.324219 L 5.765625 26.355469 C 5.765625 26.050781 6.011719 25.804688 6.316406 25.804688 C 6.621094 25.804688 6.867188 26.050781 6.867188 26.355469 L 6.867188 40.324219 C 6.867188 40.628906 6.621094 40.875 6.316406 40.875 Z M 8.792969 40.875 C 8.488281 40.875 8.242188 40.628906 8.242188 40.324219 L 8.242188 24.839844 C 8.242188 24.535156 8.488281 24.289062 8.792969 24.289062 C 9.097656 24.289062 9.34375 24.535156 9.34375 24.839844 L 9.34375 40.324219 C 9.34375 40.628906 9.097656 40.875 8.792969 40.875 Z M 8.792969 40.875 " fill-opacity="1" fill-rule="evenodd"/><path fill="#0e3543" d="M 18.941406 34.050781 C 18.636719 34.050781 18.390625 33.804688 18.390625 33.5 L 18.390625 18.628906 C 18.390625 18.328125 18.636719 18.082031 18.941406 18.082031 C 19.242188 18.082031 19.488281 18.328125 19.488281 18.628906 L 19.488281 33.5 C 19.488281 33.804688 19.242188 34.050781 18.941406 34.050781 Z M 21.417969 34.050781 C 21.113281 34.050781 20.867188 33.804688 20.867188 33.5 L 20.867188 17.113281 C 20.867188 16.8125 21.113281 16.566406 21.417969 16.566406 C 21.722656 16.566406 21.96875 16.8125 21.96875 17.113281 L 21.96875 33.5 C 21.96875 33.804688 21.722656 34.050781 21.417969 34.050781 Z M 21.417969 34.050781 " fill-opacity="1" fill-rule="evenodd"/><path fill="#0e3543" d="M 31.5625 27.222656 C 31.261719 27.222656 31.015625 26.976562 31.015625 26.671875 L 31.015625 10.90625 C 31.015625 10.601562 31.261719 10.355469 31.5625 10.355469 C 31.867188 10.355469 32.113281 10.601562 32.113281 10.90625 L 32.113281 26.671875 C 32.113281 26.976562 31.867188 27.222656 31.5625 27.222656 Z M 34.042969 27.222656 C 33.738281 27.222656 33.492188 26.976562 33.492188 26.671875 L 33.492188 9.390625 C 33.492188 9.085938 33.738281 8.839844 34.042969 8.839844 C 34.34375 8.839844 34.589844 9.085938 34.589844 9.390625 L 34.59375 26.671875 C 34.59375 26.976562 34.34375 27.222656 34.042969 27.222656 Z M 34.042969 27.222656 " fill-opacity="1" fill-rule="evenodd"/><path fill="#0e3543" d="M 44.1875 20.398438 C 43.882812 20.398438 43.636719 20.152344 43.636719 19.847656 L 43.636719 4.316406 C 43.636719 4.011719 43.882812 3.765625 44.1875 3.765625 C 44.492188 3.765625 44.738281 4.011719 44.738281 4.316406 L 44.738281 19.847656 C 44.738281 20.152344 44.492188 20.398438 44.1875 20.398438 Z M 46.667969 20.398438 C 46.363281 20.398438 46.117188 20.152344 46.117188 19.847656 L 46.117188 4.316406 C 46.117188 4.011719 46.363281 3.765625 46.664062 3.765625 C 46.96875 3.765625 47.214844 4.011719 47.214844 4.316406 L 47.214844 19.847656 C 47.214844 20.152344 46.96875 20.398438 46.667969 20.398438 Z M 46.667969 20.398438 " fill-opacity="1" fill-rule="evenodd"/><g clip-path="url(#d196e06105)"><path fill="#0e3543" d="M 1.566406 27.054688 C 1.746094 27.355469 2.046875 27.582031 2.390625 27.667969 C 2.722656 27.753906 3.058594 27.703125 3.34375 27.53125 L 42.042969 3.847656 C 42.128906 3.796875 42.226562 3.765625 42.328125 3.765625 L 48.269531 3.765625 C 48.992188 3.765625 49.582031 3.179688 49.582031 2.453125 C 49.582031 1.730469 48.992188 1.140625 48.269531 1.140625 L 41.488281 1.140625 L 2.058594 25.238281 C 1.460938 25.617188 1.246094 26.414062 1.566406 27.054688 Z M 2.710938 28.808594 C 2.515625 28.808594 2.316406 28.785156 2.117188 28.734375 C 1.484375 28.570312 0.933594 28.15625 0.609375 27.59375 C 0.605469 27.585938 0.601562 27.578125 0.597656 27.570312 C 0.0078125 26.421875 0.390625 24.988281 1.472656 24.308594 C 1.476562 24.304688 1.476562 24.304688 1.480469 24.304688 L 41.042969 0.121094 C 41.132812 0.0664062 41.230469 0.0390625 41.332031 0.0390625 L 48.269531 0.0390625 C 49.597656 0.0390625 50.683594 1.125 50.683594 2.453125 C 50.683594 3.785156 49.597656 4.867188 48.269531 4.867188 L 42.484375 4.867188 L 3.914062 28.46875 C 3.550781 28.695312 3.132812 28.808594 2.710938 28.808594 Z M 2.710938 28.808594 " fill-opacity="1" fill-rule="evenodd"/></g></g></g></g></g></svg>