<svg xmlns="http://www.w3.org/2000/svg" xmlns:xlink="http://www.w3.org/1999/xlink" width="70" zoomAndPan="magnify" viewBox="0 0 52.5 52.499999" height="70" preserveAspectRatio="xMidYMid meet" version="1.0"><defs><filter x="0%" y="0%" width="100%" height="100%" id="b80359b72b"><feColorMatrix values="0 0 0 0 1 0 0 0 0 1 0 0 0 0 1 0 0 0 1 0" color-interpolation-filters="sRGB"/></filter><clipPath id="e7685570cb"><path d="M 0 0 L 52.003906 0 L 52.003906 52.003906 L 0 52.003906 Z M 0 0 " clip-rule="nonzero"/></clipPath><clipPath id="632c236373"><path d="M 0 7 L 52.003906 7 L 52.003906 45 L 0 45 Z M 0 7 " clip-rule="nonzero"/></clipPath><mask id="b6e1fb12c3"><g filter="url(#b80359b72b)"><rect x="-5.25" width="63" fill="#000000" y="-5.25" height="62.999999" fill-opacity="0.7"/></g></mask><clipPath id="fa2c25a8ce"><path d="M 0 15 L 52 15 L 52 37.523438 L 0 37.523438 Z M 0 15 " clip-rule="nonzero"/></clipPath><clipPath id="355a9a41f6"><rect x="0" width="53" y="0" height="38"/></clipPath></defs><g clip-path="url(#e7685570cb)"><path fill="#ffffff" d="M 0 0 L 52.003906 0 L 52.003906 52.003906 L 0 52.003906 Z M 0 0 " fill-opacity="1" fill-rule="nonzero"/><path fill="#ffffff" d="M 0 0 L 52.003906 0 L 52.003906 52.003906 L 0 52.003906 Z M 0 0 " fill-opacity="1" fill-rule="nonzero"/></g><g clip-path="url(#632c236373)"><g mask="url(#b6e1fb12c3)"><g transform="matrix(1, 0, 0, 1, 0, 7)"><g clip-path="url(#355a9a41f6)"><path fill="#0e3543" d="M 23.457031 13.171875 C 23.457031 13.171875 24.039062 13.140625 24.039062 12.589844 C 24.039062 10.542969 22.375 8.882812 20.328125 8.882812 C 18.21875 8.882812 15.449219 8.882812 13.339844 8.882812 C 11.289062 8.882812 9.628906 10.542969 9.628906 12.589844 C 9.628906 13.140625 10.210938 13.171875 10.210938 13.171875 Z M 22.804688 12.007812 L 10.859375 12.007812 C 11.125 10.882812 12.132812 10.046875 13.339844 10.046875 C 13.339844 10.046875 20.328125 10.046875 20.328125 10.046875 C 21.535156 10.046875 22.542969 10.882812 22.804688 12.007812 Z M 22.804688 12.007812 " fill-opacity="1" fill-rule="evenodd"/><path fill="#0e3543" d="M 42.675781 13.171875 C 42.675781 13.171875 43.257812 13.140625 43.257812 12.589844 C 43.257812 10.542969 41.597656 8.882812 39.546875 8.882812 C 37.4375 8.882812 34.667969 8.882812 32.558594 8.882812 C 30.511719 8.882812 28.847656 10.542969 28.847656 12.589844 C 28.847656 13.140625 29.429688 13.171875 29.429688 13.171875 Z M 42.027344 12.007812 L 30.082031 12.007812 C 30.34375 10.882812 31.351562 10.046875 32.558594 10.046875 C 32.558594 10.046875 39.546875 10.046875 39.546875 10.046875 C 40.753906 10.046875 41.761719 10.882812 42.027344 12.007812 Z M 42.027344 12.007812 " fill-opacity="1" fill-rule="evenodd"/><path fill="#0e3543" d="M 47.359375 16.527344 C 47.359375 16.527344 47.941406 16.492188 47.941406 15.945312 C 47.941406 14.902344 47.527344 13.898438 46.789062 13.160156 C 46.050781 12.421875 45.050781 12.007812 44.007812 12.007812 C 36.023438 12.007812 15.96875 12.007812 7.988281 12.007812 C 6.945312 12.007812 5.945312 12.421875 5.207031 13.160156 C 4.46875 13.898438 4.054688 14.902344 4.054688 15.945312 C 4.054688 16.492188 4.636719 16.527344 4.636719 16.527344 Z M 46.714844 15.363281 L 5.28125 15.363281 C 5.390625 14.84375 5.648438 14.363281 6.027344 13.984375 C 6.546875 13.464844 7.253906 13.171875 7.988281 13.171875 C 15.96875 13.171875 36.023438 13.171875 44.007812 13.171875 C 44.742188 13.171875 45.445312 13.464844 45.964844 13.984375 C 46.347656 14.363281 46.605469 14.84375 46.714844 15.363281 Z M 46.714844 15.363281 " fill-opacity="1" fill-rule="evenodd"/><path fill="#0e3543" d="M 7.492188 1.722656 L 7.492188 12.59375 C 7.492188 12.914062 7.753906 13.171875 8.074219 13.171875 C 8.394531 13.171875 8.65625 12.914062 8.65625 12.59375 L 8.65625 1.722656 C 8.65625 1.402344 8.394531 1.140625 8.074219 1.140625 C 7.753906 1.140625 7.492188 1.402344 7.492188 1.722656 Z M 7.492188 1.722656 " fill-opacity="1" fill-rule="evenodd"/><path fill="#0e3543" d="M 44.230469 1.722656 L 44.230469 12.59375 C 44.230469 12.914062 44.488281 13.171875 44.8125 13.171875 C 45.132812 13.171875 45.394531 12.914062 45.394531 12.59375 L 45.394531 1.722656 C 45.394531 1.402344 45.132812 1.140625 44.8125 1.140625 C 44.488281 1.140625 44.230469 1.402344 44.230469 1.722656 Z M 44.230469 1.722656 " fill-opacity="1" fill-rule="evenodd"/><path fill="#0e3543" d="M 44.980469 4.296875 C 32.679688 0.507812 20.324219 0.375 7.898438 4.296875 C 7.59375 4.394531 7.421875 4.722656 7.515625 5.027344 C 7.617188 5.332031 7.941406 5.503906 8.246094 5.40625 C 20.441406 1.558594 32.5625 1.691406 44.640625 5.410156 C 44.945312 5.503906 45.269531 5.328125 45.363281 5.023438 C 45.457031 4.714844 45.289062 4.390625 44.980469 4.296875 Z M 44.980469 4.296875 " fill-opacity="1" fill-rule="evenodd"/><g clip-path="url(#fa2c25a8ce)"><path fill="#0e3543" d="M 51.402344 28.933594 L 51.984375 28.351562 L 51.984375 19.9375 C 51.984375 17.410156 49.9375 15.363281 47.410156 15.363281 L 4.585938 15.363281 C 2.058594 15.363281 0.0117188 17.410156 0.0117188 19.9375 L 0.0117188 35.488281 C 0.0117188 36.054688 0.234375 36.59375 0.632812 36.992188 C 1.035156 37.394531 1.574219 37.617188 2.140625 37.617188 C 2.707031 37.617188 3.246094 37.394531 3.648438 36.992188 C 4.046875 36.59375 4.269531 36.054688 4.269531 35.488281 C 4.269531 35.488281 4.269531 28.933594 4.269531 28.933594 C 4.269531 28.933594 47.726562 28.933594 47.726562 28.933594 C 47.726562 28.933594 47.726562 35.488281 47.726562 35.488281 C 47.726562 36.054688 47.949219 36.59375 48.347656 36.992188 C 48.746094 37.394531 49.289062 37.617188 49.855469 37.617188 C 50.417969 37.617188 50.960938 37.394531 51.359375 36.992188 C 51.761719 36.59375 51.984375 36.054688 51.984375 35.488281 C 51.984375 32.992188 51.984375 28.351562 51.984375 28.351562 Z M 50.820312 19.9375 L 50.820312 35.488281 C 50.820312 35.742188 50.71875 35.992188 50.539062 36.171875 C 50.355469 36.351562 50.109375 36.453125 49.855469 36.453125 C 49.597656 36.453125 49.351562 36.351562 49.171875 36.171875 C 48.992188 35.992188 48.890625 35.742188 48.890625 35.488281 C 48.890625 35.488281 48.890625 27.769531 48.890625 27.769531 L 3.105469 27.769531 L 3.105469 35.488281 C 3.105469 35.742188 3.003906 35.992188 2.824219 36.171875 C 2.640625 36.351562 2.398438 36.453125 2.140625 36.453125 C 1.882812 36.453125 1.640625 36.351562 1.457031 36.171875 C 1.277344 35.992188 1.175781 35.742188 1.175781 35.488281 L 1.175781 19.9375 C 1.175781 18.054688 2.703125 16.527344 4.585938 16.527344 L 47.410156 16.527344 C 49.292969 16.527344 50.820312 18.054688 50.820312 19.9375 Z M 50.820312 19.9375 " fill-opacity="1" fill-rule="evenodd"/></g></g></g></g></g></svg>