<svg xmlns="http://www.w3.org/2000/svg" xmlns:xlink="http://www.w3.org/1999/xlink" width="70" zoomAndPan="magnify" viewBox="0 0 52.5 52.499999" height="70" preserveAspectRatio="xMidYMid meet" version="1.0"><defs><filter x="0%" y="0%" width="100%" height="100%" id="7e68387f36"><feColorMatrix values="0 0 0 0 1 0 0 0 0 1 0 0 0 0 1 0 0 0 1 0" color-interpolation-filters="sRGB"/></filter><clipPath id="1067836d73"><path d="M 0 0 L 52.003906 0 L 52.003906 52.003906 L 0 52.003906 Z M 0 0 " clip-rule="nonzero"/></clipPath><clipPath id="0afb7c522d"><path d="M 0 0 L 52.003906 0 L 52.003906 52 L 0 52 Z M 0 0 " clip-rule="nonzero"/></clipPath><mask id="8967b77682"><g filter="url(#7e68387f36)"><rect x="-5.25" width="63" fill="#000000" y="-5.25" height="62.999999" fill-opacity="0.77"/></g></mask><clipPath id="657362ddc3"><path d="M 0 0.617188 L 52 0.617188 L 52 51.136719 L 0 51.136719 Z M 0 0.617188 " clip-rule="nonzero"/></clipPath><clipPath id="023f4c1bd6"><rect x="0" width="53" y="0" height="52"/></clipPath></defs><g clip-path="url(#1067836d73)"><path fill="#ffffff" d="M 0 0 L 52.003906 0 L 52.003906 52.003906 L 0 52.003906 Z M 0 0 " fill-opacity="1" fill-rule="nonzero"/><path fill="#ffffff" d="M 0 0 L 52.003906 0 L 52.003906 52.003906 L 0 52.003906 Z M 0 0 " fill-opacity="1" fill-rule="nonzero"/></g><g clip-path="url(#0afb7c522d)"><g mask="url(#8967b77682)"><g transform="matrix(1, 0, 0, 1, 0, 0.000000000000000278)"><g clip-path="url(#023f4c1bd6)"><g clip-path="url(#657362ddc3)"><path fill="#0e3543" d="M 51.191406 17.25 L 26.734375 0.949219 C 26.300781 0.621094 25.648438 0.621094 25.214844 0.949219 L 0.816406 17.25 C 0.164062 17.683594 0 18.5 0.433594 19.152344 C 0.707031 19.53125 1.140625 19.75 1.574219 19.75 C 1.847656 19.75 2.121094 19.640625 2.335938 19.53125 L 5.816406 17.195312 L 5.816406 49.964844 C 5.816406 50.722656 6.414062 51.375 7.226562 51.375 L 44.832031 51.375 C 45.59375 51.375 46.246094 50.777344 46.246094 49.964844 L 46.246094 17.25 L 49.722656 19.585938 C 50.375 20.019531 51.242188 19.859375 51.679688 19.207031 C 52.003906 18.5 51.789062 17.628906 51.191406 17.25 Z M 43.363281 48.605469 L 27.984375 48.605469 L 27.984375 46.324219 C 27.984375 46.050781 27.769531 45.832031 27.496094 45.832031 L 23.09375 45.832031 L 23.09375 42.953125 C 23.09375 42.683594 22.878906 42.464844 22.605469 42.464844 L 18.203125 42.464844 L 18.203125 39.585938 C 18.203125 39.3125 17.988281 39.09375 17.714844 39.09375 L 13.3125 39.09375 L 13.3125 36.214844 C 13.3125 35.941406 13.097656 35.726562 12.824219 35.726562 L 8.585938 35.726562 L 8.585938 28.445312 L 21.84375 28.445312 L 21.84375 23.609375 C 21.84375 21.324219 23.691406 19.421875 26.03125 19.421875 C 28.3125 19.421875 30.214844 21.269531 30.214844 23.609375 L 30.214844 28.445312 L 43.363281 28.445312 Z M 43.363281 48.605469 " fill-opacity="1" fill-rule="nonzero"/></g><path fill="#0e3543" d="M 27.386719 34.042969 L 27.386719 23.609375 C 27.386719 22.847656 26.789062 22.195312 25.976562 22.195312 C 25.214844 22.195312 24.5625 22.792969 24.5625 23.609375 L 24.5625 34.097656 L 22.386719 31.921875 C 21.84375 31.378906 20.976562 31.378906 20.433594 31.921875 C 19.890625 32.464844 19.890625 33.335938 20.433594 33.878906 L 24.996094 38.441406 C 25.539062 38.988281 26.410156 38.988281 26.953125 38.441406 L 31.519531 33.878906 C 32.0625 33.335938 32.0625 32.464844 31.519531 31.921875 C 30.972656 31.378906 30.105469 31.378906 29.5625 31.921875 Z M 27.386719 34.042969 " fill-opacity="1" fill-rule="nonzero"/></g></g></g></g></svg>