<svg xmlns="http://www.w3.org/2000/svg" xmlns:xlink="http://www.w3.org/1999/xlink" width="70" zoomAndPan="magnify" viewBox="0 0 52.5 52.499999" height="70" preserveAspectRatio="xMidYMid meet" version="1.0"><defs><filter x="0%" y="0%" width="100%" height="100%" id="30ac0f7fe1"><feColorMatrix values="0 0 0 0 1 0 0 0 0 1 0 0 0 0 1 0 0 0 1 0" color-interpolation-filters="sRGB"/></filter><clipPath id="c95327366c"><path d="M 0 0 L 52.003906 0 L 52.003906 52.003906 L 0 52.003906 Z M 0 0 " clip-rule="nonzero"/></clipPath><mask id="e2d71d45a8"><g filter="url(#30ac0f7fe1)"><rect x="-5.25" width="63" fill="#000000" y="-5.25" height="62.999999" fill-opacity="0.7"/></g></mask><clipPath id="8fb179587e"><path d="M 0 1 L 52 1 L 52 51.683594 L 0 51.683594 Z M 0 1 " clip-rule="nonzero"/></clipPath><clipPath id="7a9e34e406"><path d="M 32 0.421875 L 52 0.421875 L 52 25 L 32 25 Z M 32 0.421875 " clip-rule="nonzero"/></clipPath><clipPath id="ed894c187a"><rect x="0" width="53" y="0" height="53"/></clipPath></defs><g clip-path="url(#c95327366c)"><path fill="#ffffff" d="M 0 0 L 52.003906 0 L 52.003906 52.003906 L 0 52.003906 Z M 0 0 " fill-opacity="1" fill-rule="nonzero"/><path fill="#ffffff" d="M 0 0 L 52.003906 0 L 52.003906 52.003906 L 0 52.003906 Z M 0 0 " fill-opacity="1" fill-rule="nonzero"/><g mask="url(#e2d71d45a8)"><g transform="matrix(1, 0, 0, 1, 0, 0.000000000000000295)"><g clip-path="url(#ed894c187a)"><path fill="#0e3543" d="M 10.636719 16.683594 C 10.808594 16.515625 11.003906 16.382812 11.222656 16.28125 C 11.441406 16.179688 11.667969 16.117188 11.90625 16.09375 C 12.144531 16.070312 12.382812 16.085938 12.613281 16.144531 C 12.847656 16.199219 13.066406 16.292969 13.265625 16.425781 C 13.398438 16.503906 13.539062 16.546875 13.695312 16.546875 C 13.847656 16.550781 13.992188 16.515625 14.125 16.445312 C 14.261719 16.371094 14.371094 16.269531 14.449219 16.136719 C 14.53125 16.007812 14.574219 15.867188 14.578125 15.710938 C 14.582031 15.425781 14.632812 15.148438 14.726562 14.878906 C 14.820312 14.609375 14.957031 14.359375 15.128906 14.132812 C 15.304688 13.90625 15.511719 13.714844 15.75 13.554688 C 15.988281 13.394531 16.242188 13.277344 16.519531 13.203125 C 16.796875 13.128906 17.078125 13.097656 17.363281 13.113281 C 17.648438 13.128906 17.925781 13.1875 18.191406 13.292969 C 18.457031 13.398438 18.699219 13.542969 18.917969 13.730469 C 19.136719 13.914062 19.320312 14.128906 19.46875 14.371094 C 19.597656 14.570312 19.78125 14.699219 20.015625 14.75 C 20.246094 14.796875 20.464844 14.757812 20.664062 14.628906 C 20.867188 14.5 20.992188 14.320312 21.042969 14.085938 C 21.09375 13.851562 21.054688 13.632812 20.925781 13.433594 C 20.703125 13.078125 20.433594 12.761719 20.121094 12.480469 C 19.808594 12.203125 19.464844 11.972656 19.085938 11.796875 C 18.703125 11.617188 18.308594 11.496094 17.894531 11.429688 C 17.480469 11.367188 17.066406 11.359375 16.648438 11.414062 C 16.234375 11.472656 15.835938 11.582031 15.453125 11.753906 C 15.070312 11.925781 14.71875 12.144531 14.398438 12.417969 C 14.078125 12.6875 13.804688 13 13.574219 13.351562 C 13.347656 13.699219 13.171875 14.078125 13.050781 14.476562 C 12.390625 14.285156 11.734375 14.28125 11.074219 14.464844 C 10.414062 14.644531 9.851562 14.988281 9.386719 15.488281 C 8.917969 15.992188 8.621094 16.578125 8.484375 17.25 C 8.351562 17.917969 8.40625 18.574219 8.644531 19.21875 C 8.703125 19.394531 8.808594 19.539062 8.960938 19.648438 C 9.109375 19.757812 9.28125 19.8125 9.464844 19.8125 C 9.558594 19.8125 9.648438 19.796875 9.738281 19.765625 C 9.964844 19.691406 10.132812 19.550781 10.238281 19.335938 C 10.347656 19.121094 10.363281 18.902344 10.289062 18.675781 C 10.164062 18.335938 10.132812 17.988281 10.195312 17.632812 C 10.257812 17.277344 10.40625 16.960938 10.636719 16.683594 Z M 10.636719 16.683594 " fill-opacity="1" fill-rule="nonzero"/><g clip-path="url(#8fb179587e)"><path fill="#0e3543" d="M 0.867188 51.539062 L 50.6875 51.539062 C 50.925781 51.539062 51.132812 51.453125 51.300781 51.285156 C 51.46875 51.113281 51.554688 50.910156 51.554688 50.671875 L 51.554688 38.910156 C 51.554688 38.671875 51.46875 38.464844 51.300781 38.296875 C 51.132812 38.128906 50.925781 38.042969 50.6875 38.042969 L 50.378906 38.042969 C 50.273438 37.566406 50.109375 37.113281 49.882812 36.683594 C 49.65625 36.253906 49.375 35.859375 49.039062 35.503906 C 48.703125 35.152344 48.328125 34.847656 47.910156 34.597656 C 47.496094 34.34375 47.050781 34.152344 46.582031 34.023438 C 45.761719 33.832031 44.949219 33.855469 44.140625 34.089844 C 43.945312 33.667969 43.691406 33.28125 43.378906 32.933594 C 43.070312 32.585938 42.714844 32.289062 42.3125 32.050781 C 41.914062 31.808594 41.484375 31.632812 41.03125 31.519531 C 40.578125 31.40625 40.117188 31.363281 39.652344 31.386719 C 39.058594 31.425781 38.496094 31.582031 37.964844 31.84375 C 37.277344 31.019531 36.425781 30.4375 35.402344 30.105469 C 34.816406 29.910156 34.214844 29.839844 33.601562 29.890625 C 32.761719 29.964844 31.996094 30.246094 31.308594 30.726562 C 30.800781 30.191406 30.203125 29.796875 29.511719 29.546875 C 28.820312 29.292969 28.109375 29.203125 27.378906 29.285156 C 27.675781 29.1875 27.964844 29.0625 28.242188 28.910156 C 28.519531 28.761719 28.777344 28.585938 29.023438 28.386719 C 29.265625 28.1875 29.488281 27.964844 29.691406 27.722656 C 29.894531 27.484375 30.074219 27.226562 30.226562 26.949219 C 30.382812 26.675781 30.507812 26.386719 30.609375 26.089844 C 30.710938 25.792969 30.78125 25.484375 30.824219 25.171875 C 30.871094 24.863281 30.882812 24.546875 30.867188 24.234375 C 30.851562 23.917969 30.808594 23.609375 30.734375 23.300781 C 31.285156 22.976562 31.789062 22.585938 32.238281 22.132812 C 32.6875 21.675781 33.074219 21.171875 33.390625 20.613281 C 33.710938 20.058594 33.953125 19.472656 34.117188 18.851562 C 34.285156 18.234375 34.367188 17.605469 34.367188 16.964844 C 34.359375 16.460938 34.296875 15.964844 34.191406 15.472656 C 34.082031 14.984375 33.925781 14.507812 33.722656 14.046875 C 33.523438 13.585938 33.277344 13.148438 32.988281 12.738281 C 32.703125 12.324219 32.375 11.945312 32.011719 11.597656 C 31.652344 11.25 31.257812 10.9375 30.835938 10.667969 C 30.410156 10.398438 29.964844 10.167969 29.496094 9.988281 C 29.027344 9.804688 28.546875 9.667969 28.050781 9.578125 C 27.558594 9.488281 27.058594 9.449219 26.554688 9.460938 C 26.4375 9.460938 26.316406 9.460938 26.195312 9.46875 C 25.996094 8.257812 25.566406 7.132812 24.914062 6.09375 C 24.261719 5.050781 23.429688 4.179688 22.425781 3.476562 C 22.394531 3.449219 22.363281 3.421875 22.332031 3.398438 C 20.863281 2.394531 19.234375 1.890625 17.453125 1.894531 C 16.933594 1.902344 16.417969 1.953125 15.90625 2.050781 C 15.394531 2.148438 14.894531 2.289062 14.40625 2.472656 C 13.917969 2.660156 13.453125 2.882812 13.003906 3.148438 C 12.554688 3.414062 12.136719 3.71875 11.738281 4.054688 C 11.34375 4.394531 10.980469 4.765625 10.648438 5.167969 C 10.320312 5.570312 10.023438 5.996094 9.769531 6.449219 C 9.511719 6.902344 9.296875 7.375 9.121094 7.867188 C 8.945312 8.355469 8.816406 8.859375 8.726562 9.371094 C 8.132812 9.210938 7.527344 9.132812 6.910156 9.132812 C 6.464844 9.121094 6.023438 9.15625 5.585938 9.234375 C 5.148438 9.3125 4.726562 9.433594 4.3125 9.59375 C 3.898438 9.753906 3.503906 9.957031 3.128906 10.195312 C 2.753906 10.433594 2.40625 10.707031 2.085938 11.015625 C 1.765625 11.324219 1.476562 11.65625 1.222656 12.023438 C 0.96875 12.386719 0.75 12.773438 0.570312 13.179688 C 0.394531 13.585938 0.253906 14.003906 0.160156 14.4375 C 0.0625 14.871094 0.0117188 15.3125 0 15.757812 C 0.00390625 16.78125 0.238281 17.75 0.703125 18.664062 C 1.164062 19.578125 1.808594 20.339844 2.632812 20.949219 C 2.285156 21.304688 1.996094 21.703125 1.765625 22.144531 C 1.535156 22.585938 1.371094 23.050781 1.28125 23.539062 C 1.1875 24.03125 1.167969 24.523438 1.21875 25.019531 C 1.273438 25.511719 1.394531 25.992188 1.589844 26.449219 C 1.78125 26.90625 2.039062 27.328125 2.355469 27.710938 C 2.675781 28.09375 3.042969 28.425781 3.457031 28.699219 C 3.875 28.972656 4.320312 29.183594 4.796875 29.324219 C 5.273438 29.46875 5.761719 29.539062 6.257812 29.539062 L 13.976562 29.539062 L 14.578125 30.269531 L 14.578125 38.046875 L 0.867188 38.046875 C 0.625 38.046875 0.421875 38.128906 0.253906 38.300781 C 0.0859375 38.46875 0 38.671875 0 38.910156 L 0 50.671875 C 0 50.910156 0.0859375 51.113281 0.253906 51.285156 C 0.421875 51.453125 0.625 51.539062 0.867188 51.539062 Z M 49.824219 49.804688 L 1.730469 49.804688 L 1.730469 44.210938 C 2.816406 44.828125 3.988281 45.15625 5.238281 45.191406 C 6.488281 45.179688 7.671875 44.898438 8.789062 44.335938 C 9.710938 43.855469 10.695312 43.617188 11.738281 43.621094 C 12.492188 43.640625 13.199219 43.84375 13.851562 44.226562 C 14.777344 44.746094 15.769531 45.019531 16.832031 45.046875 C 17.929688 45.078125 18.972656 44.863281 19.96875 44.40625 C 20.78125 44.03125 21.632812 43.839844 22.527344 43.832031 C 23.492188 43.84375 24.414062 44.042969 25.296875 44.4375 C 26.359375 44.925781 27.472656 45.152344 28.640625 45.125 C 29.679688 45.097656 30.65625 44.835938 31.574219 44.34375 C 32.238281 43.96875 32.957031 43.777344 33.722656 43.769531 C 34.648438 43.765625 35.523438 43.980469 36.34375 44.414062 C 37.328125 44.917969 38.375 45.175781 39.480469 45.191406 L 39.671875 45.191406 C 40.636719 45.164062 41.546875 44.925781 42.40625 44.480469 C 43.085938 44.132812 43.804688 43.914062 44.5625 43.828125 C 46.386719 43.695312 48.144531 43.984375 49.828125 44.703125 L 49.828125 49.804688 Z M 39.761719 33.113281 C 40.109375 33.101562 40.449219 33.152344 40.777344 33.257812 C 41.109375 33.359375 41.410156 33.519531 41.6875 33.730469 C 41.964844 33.9375 42.195312 34.1875 42.386719 34.480469 C 42.574219 34.769531 42.710938 35.082031 42.792969 35.421875 C 42.824219 35.546875 42.878906 35.660156 42.964844 35.757812 C 43.046875 35.859375 43.144531 35.9375 43.261719 35.992188 C 43.378906 36.046875 43.503906 36.074219 43.632812 36.074219 C 43.761719 36.074219 43.886719 36.042969 44.003906 35.988281 C 44.695312 35.640625 45.417969 35.546875 46.175781 35.707031 C 46.742188 35.875 47.238281 36.164062 47.660156 36.578125 C 48.082031 36.992188 48.382812 37.480469 48.566406 38.042969 L 32.722656 38.042969 C 32.796875 37.523438 33 37.066406 33.34375 36.671875 C 33.699219 36.289062 34.128906 36.023438 34.632812 35.875 C 35.136719 35.726562 35.640625 35.71875 36.148438 35.84375 C 36.371094 35.894531 36.578125 35.863281 36.773438 35.746094 C 36.96875 35.632812 37.101562 35.46875 37.164062 35.253906 C 37.335938 34.660156 37.65625 34.171875 38.132812 33.78125 C 38.605469 33.390625 39.152344 33.167969 39.761719 33.113281 Z M 30.441406 32.414062 C 30.511719 32.523438 30.601562 32.613281 30.714844 32.683594 C 30.824219 32.75 30.945312 32.792969 31.074219 32.808594 C 31.203125 32.824219 31.328125 32.808594 31.453125 32.765625 C 31.574219 32.726562 31.683594 32.660156 31.777344 32.566406 C 32.320312 32.019531 32.976562 31.703125 33.746094 31.617188 C 34.128906 31.585938 34.503906 31.632812 34.871094 31.753906 C 35.546875 31.96875 36.117188 32.34375 36.585938 32.875 C 36.257812 33.226562 35.992188 33.617188 35.78125 34.046875 C 35.074219 33.988281 34.394531 34.085938 33.738281 34.347656 C 33.078125 34.609375 32.511719 35 32.039062 35.527344 C 31.417969 36.25 31.0625 37.085938 30.980469 38.035156 L 21.714844 38.035156 C 21.625 37.53125 21.679688 37.042969 21.875 36.574219 C 22.09375 36.097656 22.417969 35.707031 22.847656 35.40625 C 23.277344 35.105469 23.753906 34.9375 24.277344 34.898438 C 24.503906 34.875 24.691406 34.777344 24.839844 34.609375 C 24.988281 34.441406 25.0625 34.242188 25.054688 34.015625 C 25.03125 33.171875 25.308594 32.441406 25.890625 31.824219 C 26.160156 31.539062 26.480469 31.320312 26.84375 31.167969 C 27.167969 31.050781 27.503906 30.988281 27.851562 30.988281 C 28.199219 30.984375 28.535156 31.039062 28.863281 31.152344 C 29.191406 31.265625 29.492188 31.429688 29.761719 31.648438 C 30.035156 31.863281 30.261719 32.121094 30.441406 32.414062 Z M 26.1875 29.574219 C 25.597656 29.816406 25.078125 30.171875 24.636719 30.632812 C 23.921875 31.390625 23.496094 32.28125 23.363281 33.316406 C 22.675781 33.484375 22.0625 33.796875 21.519531 34.25 C 20.980469 34.707031 20.566406 35.257812 20.28125 35.902344 C 19.996094 36.589844 19.890625 37.304688 19.972656 38.042969 L 19.746094 38.042969 L 19.746094 29.65625 L 19.828125 29.535156 L 25.804688 29.535156 C 26.023438 29.535156 26.246094 29.519531 26.464844 29.488281 C 26.375 29.519531 26.277344 29.539062 26.1875 29.574219 Z M 6.257812 27.804688 C 5.472656 27.808594 4.777344 27.566406 4.164062 27.074219 C 3.953125 26.90625 3.765625 26.714844 3.597656 26.5 C 3.433594 26.285156 3.296875 26.054688 3.1875 25.808594 C 3.082031 25.558594 3.003906 25.300781 2.957031 25.035156 C 2.914062 24.769531 2.898438 24.5 2.921875 24.230469 C 2.941406 23.960938 2.992188 23.699219 3.078125 23.441406 C 3.160156 23.183594 3.277344 22.941406 3.417969 22.714844 C 3.5625 22.484375 3.734375 22.277344 3.925781 22.089844 C 4.121094 21.902344 4.335938 21.742188 4.570312 21.605469 C 4.867188 21.433594 5.011719 21.171875 5 20.828125 C 4.988281 20.488281 4.828125 20.238281 4.519531 20.085938 C 4.105469 19.890625 3.730469 19.644531 3.386719 19.34375 C 3.046875 19.042969 2.75 18.703125 2.503906 18.320312 C 2.257812 17.9375 2.070312 17.527344 1.9375 17.09375 C 1.804688 16.65625 1.738281 16.210938 1.730469 15.757812 C 1.742188 15.425781 1.78125 15.097656 1.855469 14.777344 C 1.929688 14.453125 2.035156 14.140625 2.167969 13.839844 C 2.304688 13.539062 2.46875 13.253906 2.660156 12.984375 C 2.851562 12.714844 3.066406 12.464844 3.304688 12.238281 C 3.546875 12.011719 3.804688 11.808594 4.085938 11.632812 C 4.367188 11.457031 4.660156 11.308594 4.96875 11.191406 C 5.277344 11.074219 5.59375 10.984375 5.921875 10.929688 C 6.246094 10.875 6.574219 10.851562 6.90625 10.859375 C 7.671875 10.863281 8.40625 11.019531 9.109375 11.332031 C 9.238281 11.386719 9.371094 11.410156 9.515625 11.402344 C 9.65625 11.390625 9.785156 11.351562 9.90625 11.277344 C 10.027344 11.203125 10.125 11.105469 10.199219 10.984375 C 10.269531 10.863281 10.3125 10.730469 10.320312 10.589844 C 10.339844 10.132812 10.402344 9.679688 10.507812 9.234375 C 10.613281 8.785156 10.761719 8.355469 10.949219 7.933594 C 11.136719 7.515625 11.363281 7.117188 11.625 6.742188 C 11.886719 6.367188 12.183594 6.019531 12.511719 5.695312 C 12.839844 5.375 13.195312 5.089844 13.578125 4.835938 C 13.957031 4.582031 14.363281 4.367188 14.785156 4.1875 C 15.207031 4.011719 15.644531 3.875 16.09375 3.777344 C 16.542969 3.683594 16.996094 3.628906 17.453125 3.621094 C 18.839844 3.621094 20.113281 4.003906 21.269531 4.773438 C 21.296875 4.796875 21.324219 4.820312 21.355469 4.839844 C 22.296875 5.488281 23.046875 6.304688 23.613281 7.292969 C 24.175781 8.285156 24.496094 9.347656 24.574219 10.484375 C 24.582031 10.605469 24.617188 10.71875 24.671875 10.824219 C 24.730469 10.929688 24.804688 11.023438 24.898438 11.097656 C 24.996094 11.171875 25.101562 11.222656 25.214844 11.253906 C 25.332031 11.285156 25.449219 11.292969 25.570312 11.273438 C 25.894531 11.21875 26.222656 11.191406 26.550781 11.1875 C 26.941406 11.179688 27.328125 11.207031 27.710938 11.273438 C 28.09375 11.339844 28.46875 11.441406 28.832031 11.582031 C 29.195312 11.722656 29.539062 11.894531 29.871094 12.105469 C 30.199219 12.3125 30.503906 12.550781 30.785156 12.816406 C 31.070312 13.085938 31.320312 13.378906 31.546875 13.695312 C 31.773438 14.015625 31.964844 14.351562 32.121094 14.707031 C 32.28125 15.0625 32.402344 15.429688 32.488281 15.808594 C 32.574219 16.1875 32.625 16.574219 32.636719 16.960938 C 32.632812 17.503906 32.554688 18.035156 32.398438 18.554688 C 32.242188 19.074219 32.019531 19.5625 31.726562 20.019531 C 31.429688 20.472656 31.078125 20.878906 30.667969 21.234375 C 30.257812 21.589844 29.808594 21.882812 29.316406 22.105469 C 29.109375 22.207031 28.964844 22.363281 28.882812 22.578125 C 28.800781 22.792969 28.800781 23.007812 28.890625 23.21875 C 29.058594 23.621094 29.144531 24.042969 29.144531 24.480469 C 29.140625 24.921875 29.054688 25.347656 28.886719 25.753906 C 28.714844 26.164062 28.476562 26.523438 28.160156 26.835938 C 27.847656 27.148438 27.488281 27.386719 27.078125 27.554688 C 26.671875 27.722656 26.246094 27.808594 25.804688 27.808594 L 20.980469 27.808594 L 24.078125 23.164062 C 24.265625 22.878906 24.28125 22.582031 24.117188 22.277344 C 23.957031 21.972656 23.703125 21.820312 23.355469 21.820312 L 19.917969 21.820312 C 19.617188 21.820312 19.378906 21.945312 19.207031 22.191406 L 16.933594 25.464844 L 14.304688 22.359375 C 14.140625 22.167969 13.933594 22.066406 13.683594 22.054688 C 13.433594 22.050781 13.21875 22.132812 13.035156 22.304688 L 10.839844 24.46875 C 10.679688 24.625 10.59375 24.8125 10.582031 25.039062 C 10.570312 25.261719 10.632812 25.460938 10.777344 25.632812 L 12.558594 27.808594 Z M 16.109375 29.40625 L 12.617188 25.144531 L 13.585938 24.191406 L 16.339844 27.4375 C 16.527344 27.652344 16.757812 27.753906 17.042969 27.742188 C 17.328125 27.730469 17.550781 27.605469 17.710938 27.371094 L 20.371094 23.546875 L 21.738281 23.546875 L 18.160156 28.914062 C 18.0625 29.058594 18.015625 29.21875 18.015625 29.390625 L 18.015625 38.039062 L 16.308594 38.039062 L 16.308594 29.957031 C 16.308594 29.75 16.242188 29.566406 16.109375 29.40625 Z M 15.441406 39.773438 L 49.824219 39.773438 L 49.824219 42.863281 C 48.058594 42.203125 46.238281 41.949219 44.363281 42.109375 C 43.421875 42.21875 42.53125 42.484375 41.6875 42.910156 C 41.042969 43.253906 40.355469 43.4375 39.625 43.464844 C 38.710938 43.472656 37.851562 43.261719 37.046875 42.832031 C 35.992188 42.296875 34.875 42.03125 33.691406 42.03125 C 32.671875 42.042969 31.714844 42.292969 30.820312 42.777344 C 30.121094 43.164062 29.375 43.371094 28.578125 43.390625 C 27.652344 43.414062 26.769531 43.230469 25.933594 42.832031 C 24.84375 42.355469 23.703125 42.113281 22.515625 42.105469 C 21.402344 42.113281 20.339844 42.34375 19.324219 42.804688 C 18.554688 43.167969 17.742188 43.34375 16.886719 43.320312 C 16.078125 43.304688 15.328125 43.089844 14.628906 42.683594 C 13.75 42.1875 12.804688 41.921875 11.792969 41.890625 C 10.492188 41.878906 9.261719 42.164062 8.101562 42.75 C 7.214844 43.214844 6.269531 43.453125 5.269531 43.464844 C 3.953125 43.394531 2.773438 42.960938 1.730469 42.15625 L 1.730469 39.773438 Z M 15.441406 39.773438 " fill-opacity="1" fill-rule="nonzero"/></g><g clip-path="url(#7a9e34e406)"><path fill="#0e3543" d="M 49.460938 18.949219 C 49.234375 18.046875 48.726562 17.347656 47.9375 16.851562 C 48.203125 16.550781 48.4375 16.226562 48.636719 15.878906 C 48.835938 15.53125 49.003906 15.167969 49.132812 14.785156 C 49.261719 14.40625 49.351562 14.015625 49.402344 13.617188 C 49.453125 13.21875 49.46875 12.820312 49.441406 12.421875 C 49.414062 12.019531 49.347656 11.625 49.242188 11.238281 C 49.136719 10.851562 48.996094 10.476562 48.816406 10.117188 C 48.636719 9.757812 48.425781 9.417969 48.179688 9.101562 C 47.933594 8.785156 47.660156 8.492188 47.355469 8.230469 C 47.5625 7.824219 47.667969 7.394531 47.671875 6.9375 C 47.671875 6.589844 47.609375 6.253906 47.492188 5.929688 C 47.371094 5.601562 47.199219 5.308594 46.972656 5.042969 C 46.746094 4.78125 46.484375 4.5625 46.179688 4.394531 C 45.878906 4.222656 45.554688 4.109375 45.214844 4.054688 C 45.121094 3.679688 44.96875 3.328125 44.757812 3.003906 C 44.546875 2.675781 44.289062 2.394531 43.984375 2.15625 C 43.675781 1.917969 43.339844 1.734375 42.976562 1.605469 C 42.609375 1.480469 42.230469 1.414062 41.84375 1.414062 C 41.402344 1.414062 40.972656 1.5 40.5625 1.664062 C 40.238281 1.28125 39.84375 0.988281 39.386719 0.777344 C 38.929688 0.566406 38.449219 0.464844 37.945312 0.464844 C 37.488281 0.464844 37.042969 0.554688 36.621094 0.730469 C 36.195312 0.90625 35.820312 1.15625 35.496094 1.484375 C 35.167969 1.808594 34.917969 2.183594 34.742188 2.609375 C 34.566406 3.03125 34.476562 3.476562 34.476562 3.933594 C 34.476562 4.03125 34.480469 4.128906 34.488281 4.226562 C 34.175781 4.351562 33.890625 4.523438 33.632812 4.75 C 33.378906 4.972656 33.171875 5.234375 33.007812 5.53125 C 32.84375 5.828125 32.734375 6.144531 32.679688 6.476562 C 32.625 6.8125 32.632812 7.148438 32.695312 7.480469 C 32.757812 7.8125 32.875 8.125 33.046875 8.417969 C 33.21875 8.710938 33.4375 8.964844 33.699219 9.179688 C 33.960938 9.398438 34.25 9.5625 34.570312 9.679688 C 34.886719 9.792969 35.21875 9.851562 35.554688 9.851562 L 37.96875 9.851562 C 37.636719 10.445312 37.410156 11.078125 37.289062 11.746094 C 37.167969 12.417969 37.160156 13.085938 37.261719 13.761719 C 37.367188 14.433594 37.574219 15.070312 37.890625 15.671875 C 38.207031 16.277344 38.613281 16.808594 39.109375 17.277344 C 38.859375 17.761719 38.730469 18.28125 38.726562 18.828125 C 38.726562 18.925781 38.730469 19.023438 38.738281 19.117188 C 38.421875 19.242188 38.136719 19.417969 37.882812 19.640625 C 37.628906 19.863281 37.417969 20.125 37.253906 20.421875 C 37.089844 20.71875 36.980469 21.035156 36.925781 21.371094 C 36.871094 21.703125 36.875 22.039062 36.941406 22.371094 C 37.003906 22.707031 37.121094 23.019531 37.292969 23.3125 C 37.464844 23.605469 37.683594 23.859375 37.945312 24.074219 C 38.207031 24.292969 38.496094 24.457031 38.816406 24.574219 C 39.136719 24.6875 39.464844 24.746094 39.804688 24.746094 L 49.003906 24.746094 C 49.371094 24.746094 49.726562 24.679688 50.066406 24.546875 C 50.410156 24.414062 50.714844 24.222656 50.988281 23.972656 C 51.257812 23.722656 51.472656 23.433594 51.632812 23.105469 C 51.792969 22.773438 51.890625 22.425781 51.917969 22.058594 C 51.945312 21.691406 51.90625 21.332031 51.800781 20.980469 C 51.695312 20.628906 51.527344 20.308594 51.296875 20.019531 C 51.070312 19.730469 50.796875 19.496094 50.480469 19.308594 C 50.164062 19.125 49.824219 19.003906 49.460938 18.945312 Z M 34.367188 6.9375 C 34.367188 6.78125 34.398438 6.632812 34.457031 6.488281 C 34.515625 6.34375 34.601562 6.21875 34.710938 6.105469 C 34.820312 5.996094 34.945312 5.910156 35.089844 5.847656 C 35.230469 5.789062 35.378906 5.753906 35.535156 5.753906 C 35.679688 5.75 35.8125 5.714844 35.9375 5.648438 C 36.0625 5.582031 36.164062 5.488281 36.242188 5.371094 C 36.324219 5.25 36.371094 5.121094 36.382812 4.980469 C 36.398438 4.839844 36.382812 4.703125 36.328125 4.570312 C 36.238281 4.359375 36.1875 4.140625 36.183594 3.910156 C 36.179688 3.679688 36.21875 3.457031 36.304688 3.246094 C 36.386719 3.03125 36.511719 2.839844 36.667969 2.675781 C 36.828125 2.511719 37.011719 2.382812 37.222656 2.289062 C 37.433594 2.199219 37.652344 2.152344 37.882812 2.148438 C 38.113281 2.140625 38.335938 2.183594 38.546875 2.265625 C 38.761719 2.351562 38.953125 2.472656 39.117188 2.628906 C 39.28125 2.789062 39.410156 2.972656 39.503906 3.183594 C 39.558594 3.300781 39.636719 3.398438 39.738281 3.480469 C 39.839844 3.5625 39.953125 3.617188 40.078125 3.648438 C 40.203125 3.679688 40.328125 3.679688 40.457031 3.65625 C 40.582031 3.628906 40.699219 3.578125 40.800781 3.5 C 41.105469 3.265625 41.453125 3.148438 41.839844 3.144531 C 42.070312 3.144531 42.292969 3.191406 42.503906 3.277344 C 42.71875 3.367188 42.90625 3.492188 43.070312 3.65625 C 43.234375 3.820312 43.359375 4.007812 43.445312 4.222656 C 43.535156 4.433594 43.578125 4.65625 43.578125 4.886719 C 43.578125 5.125 43.664062 5.332031 43.832031 5.5 C 44 5.667969 44.203125 5.753906 44.445312 5.753906 L 44.75 5.753906 C 44.910156 5.75 45.066406 5.777344 45.214844 5.832031 C 45.363281 5.890625 45.496094 5.976562 45.609375 6.089844 C 45.726562 6.199219 45.8125 6.328125 45.875 6.476562 C 45.9375 6.625 45.96875 6.777344 45.96875 6.9375 C 45.96875 7.097656 45.9375 7.25 45.875 7.398438 C 45.8125 7.546875 45.726562 7.675781 45.609375 7.789062 C 45.496094 7.898438 45.363281 7.984375 45.214844 8.042969 C 45.066406 8.101562 44.910156 8.128906 44.75 8.125 L 35.550781 8.125 C 35.394531 8.125 35.242188 8.09375 35.097656 8.03125 C 34.953125 7.972656 34.824219 7.886719 34.714844 7.777344 C 34.601562 7.664062 34.515625 7.535156 34.457031 7.390625 C 34.394531 7.246094 34.367188 7.09375 34.367188 6.9375 Z M 40.109375 9.851562 L 44.75 9.851562 C 45.25 9.847656 45.71875 9.722656 46.15625 9.476562 C 46.40625 9.6875 46.632812 9.925781 46.832031 10.1875 C 47.03125 10.449219 47.199219 10.730469 47.332031 11.027344 C 47.46875 11.328125 47.570312 11.640625 47.632812 11.960938 C 47.699219 12.285156 47.726562 12.609375 47.71875 12.941406 C 47.710938 13.269531 47.667969 13.59375 47.585938 13.910156 C 47.503906 14.230469 47.386719 14.535156 47.238281 14.828125 C 47.085938 15.121094 46.90625 15.394531 46.695312 15.644531 C 46.480469 15.894531 46.242188 16.121094 45.980469 16.320312 C 45.578125 16.328125 45.1875 16.410156 44.8125 16.558594 C 44.535156 16.234375 44.210938 15.972656 43.835938 15.769531 C 43.460938 15.566406 43.0625 15.4375 42.640625 15.382812 C 42.214844 15.328125 41.796875 15.351562 41.382812 15.453125 C 40.96875 15.550781 40.585938 15.722656 40.238281 15.964844 C 39.359375 15.105469 38.917969 14.058594 38.917969 12.832031 C 38.917969 11.679688 39.316406 10.6875 40.109375 9.851562 Z M 49.003906 23.015625 L 39.804688 23.015625 C 39.648438 23.015625 39.496094 22.988281 39.351562 22.925781 C 39.203125 22.867188 39.078125 22.785156 38.964844 22.671875 C 38.851562 22.5625 38.765625 22.4375 38.703125 22.292969 C 38.644531 22.148438 38.613281 21.996094 38.613281 21.839844 C 38.609375 21.683594 38.640625 21.53125 38.699219 21.386719 C 38.757812 21.238281 38.84375 21.113281 38.953125 21 C 39.0625 20.886719 39.191406 20.800781 39.335938 20.738281 C 39.480469 20.679688 39.628906 20.648438 39.785156 20.648438 C 39.929688 20.644531 40.0625 20.609375 40.1875 20.542969 C 40.3125 20.472656 40.414062 20.382812 40.492188 20.265625 C 40.574219 20.144531 40.621094 20.015625 40.636719 19.875 C 40.652344 19.734375 40.632812 19.597656 40.582031 19.464844 C 40.488281 19.253906 40.441406 19.035156 40.4375 18.804688 C 40.433594 18.574219 40.472656 18.355469 40.554688 18.140625 C 40.640625 17.925781 40.761719 17.738281 40.921875 17.570312 C 41.078125 17.40625 41.265625 17.277344 41.476562 17.183594 C 41.683594 17.09375 41.90625 17.046875 42.136719 17.042969 C 42.363281 17.039062 42.585938 17.078125 42.800781 17.160156 C 43.011719 17.246094 43.203125 17.367188 43.367188 17.527344 C 43.535156 17.683594 43.664062 17.871094 43.753906 18.082031 C 43.808594 18.195312 43.890625 18.296875 43.988281 18.375 C 44.089844 18.457031 44.203125 18.515625 44.328125 18.542969 C 44.453125 18.574219 44.582031 18.578125 44.707031 18.550781 C 44.832031 18.523438 44.949219 18.472656 45.050781 18.394531 C 45.359375 18.160156 45.703125 18.042969 46.089844 18.042969 C 46.320312 18.042969 46.542969 18.085938 46.753906 18.175781 C 46.96875 18.261719 47.15625 18.386719 47.320312 18.550781 C 47.484375 18.714844 47.609375 18.902344 47.695312 19.117188 C 47.785156 19.328125 47.828125 19.550781 47.828125 19.78125 C 47.828125 20.019531 47.914062 20.222656 48.082031 20.394531 C 48.253906 20.5625 48.457031 20.648438 48.695312 20.648438 L 49.003906 20.648438 C 49.164062 20.640625 49.316406 20.667969 49.464844 20.726562 C 49.617188 20.785156 49.746094 20.871094 49.863281 20.980469 C 49.976562 21.09375 50.066406 21.222656 50.128906 21.371094 C 50.1875 21.519531 50.21875 21.671875 50.21875 21.832031 C 50.21875 21.992188 50.1875 22.144531 50.128906 22.292969 C 50.066406 22.441406 49.976562 22.570312 49.863281 22.679688 C 49.746094 22.792969 49.617188 22.878906 49.464844 22.9375 C 49.316406 22.996094 49.164062 23.019531 49.003906 23.015625 Z M 49.003906 23.015625 " fill-opacity="1" fill-rule="nonzero"/></g></g></g></g></g></svg>