<svg xmlns="http://www.w3.org/2000/svg" xmlns:xlink="http://www.w3.org/1999/xlink" width="70" zoomAndPan="magnify" viewBox="0 0 52.5 52.499999" height="70" preserveAspectRatio="xMidYMid meet" version="1.0"><defs><filter x="0%" y="0%" width="100%" height="100%" id="b92bdd65fb"><feColorMatrix values="0 0 0 0 1 0 0 0 0 1 0 0 0 0 1 0 0 0 1 0" color-interpolation-filters="sRGB"/></filter><clipPath id="fbcd86d1d9"><path d="M 0 0 L 52.003906 0 L 52.003906 52.003906 L 0 52.003906 Z M 0 0 " clip-rule="nonzero"/></clipPath><mask id="6db480068c"><g filter="url(#b92bdd65fb)"><rect x="-5.25" width="63" fill="#000000" y="-5.25" height="62.999999" fill-opacity="0.7"/></g></mask><clipPath id="77d073f54e"><path d="M 0 0 L 52.003906 0 L 52.003906 52.003906 L 0 52.003906 Z M 0 0 " clip-rule="nonzero"/></clipPath><clipPath id="c396434dd6"><rect x="0" width="53" y="0" height="53"/></clipPath></defs><g clip-path="url(#fbcd86d1d9)"><g mask="url(#6db480068c)"><g transform="matrix(1, 0, 0, 1, 0, 0.000000000000000295)"><g clip-path="url(#c396434dd6)"><g clip-path="url(#77d073f54e)"><path fill="#0e3543" d="M 26.003906 51.460938 C 22.695312 51.460938 19.53125 50.824219 16.625 49.671875 C 16.761719 49.660156 16.90625 49.644531 17.046875 49.628906 C 18.292969 49.480469 18.972656 49.167969 19.121094 48.667969 C 19.332031 47.984375 18.464844 47.332031 17.792969 46.90625 C 17.332031 46.609375 17.355469 46.382812 17.363281 46.308594 C 17.402344 45.949219 17.917969 45.296875 20.164062 44.21875 C 21.855469 43.40625 24.082031 42.5625 26.234375 41.742188 C 29.355469 40.554688 32.304688 39.4375 33.507812 38.480469 C 33.6875 38.339844 34.226562 37.914062 34.089844 37.414062 C 33.886719 36.679688 32.433594 36.445312 29.660156 36.0625 C 26.472656 35.625 22.105469 35.023438 20.40625 33.050781 C 19.929688 32.5 19.78125 31.941406 19.949219 31.34375 C 20.292969 30.109375 21.996094 28.71875 24.867188 27.324219 C 26.8125 26.378906 28.695312 25.722656 29.136719 25.578125 C 29.976562 25.96875 30.859375 26.230469 31.792969 26.277344 L 51.457031 26.277344 C 51.3125 40.1875 39.949219 51.460938 26.003906 51.460938 Z M 1.609375 33.300781 C 1.945312 33.1875 2.554688 32.972656 3.171875 32.710938 C 4.914062 31.96875 5.132812 31.507812 5.128906 31.1875 C 5.125 30.691406 4.496094 30.511719 4.289062 30.449219 C 4.203125 30.425781 4.140625 30.40625 4.09375 30.386719 C 4.324219 30.261719 4.949219 30.023438 6.667969 29.664062 C 8.210938 29.339844 10.164062 29.007812 12.238281 28.652344 C 13.117188 28.5 14.023438 28.347656 14.890625 28.191406 C 15.269531 28.125 15.546875 28.066406 15.734375 28.011719 C 15.886719 27.96875 16.207031 27.875 16.175781 27.589844 C 16.140625 27.296875 15.796875 27.253906 15.230469 27.222656 C 14.816406 27.195312 14.214844 27.1875 13.4375 27.1875 C 12.136719 27.191406 10.328125 27.234375 8.058594 27.316406 C 4.855469 27.425781 1.621094 27.582031 0.597656 27.632812 C 0.5625 27.09375 0.542969 26.550781 0.542969 26.003906 C 0.542969 24.382812 0.695312 22.796875 0.988281 21.261719 C 4.136719 20.097656 6.355469 18.023438 8.144531 16.355469 C 8.933594 15.617188 9.679688 14.917969 10.394531 14.398438 C 11.402344 13.664062 12.191406 13.824219 13.203125 14.761719 L 12.058594 14.761719 L 12.058594 14.980469 L 13.429688 14.980469 C 13.53125 15.082031 13.636719 15.191406 13.742188 15.308594 L 11.660156 15.308594 L 11.660156 15.527344 L 13.941406 15.527344 C 14.039062 15.636719 14.136719 15.753906 14.238281 15.875 L 11.152344 15.875 L 11.152344 16.09375 L 14.421875 16.09375 C 14.519531 16.210938 14.617188 16.332031 14.722656 16.457031 L 11.660156 16.457031 L 11.660156 16.675781 L 14.898438 16.675781 C 14.984375 16.785156 15.070312 16.894531 15.160156 17.003906 L 11.976562 17.003906 L 11.976562 17.226562 L 15.332031 17.226562 C 15.40625 17.320312 15.484375 17.417969 15.5625 17.515625 L 11.027344 17.515625 L 11.027344 17.734375 L 15.734375 17.734375 C 15.816406 17.84375 15.902344 17.953125 15.992188 18.0625 L 11.621094 18.0625 L 11.621094 18.28125 L 16.164062 18.28125 C 16.25 18.390625 16.335938 18.5 16.425781 18.609375 L 11.507812 18.609375 L 11.507812 18.832031 L 16.597656 18.832031 C 16.679688 18.933594 16.765625 19.035156 16.847656 19.140625 L 12.40625 19.140625 L 12.40625 19.359375 L 17.027344 19.359375 C 17.101562 19.453125 17.179688 19.542969 17.253906 19.636719 C 17.21875 19.667969 17.183594 19.695312 17.144531 19.722656 L 12.328125 19.722656 L 12.328125 19.945312 L 16.875 19.945312 C 16.710938 20.078125 16.546875 20.21875 16.382812 20.363281 L 11.464844 20.363281 L 11.464844 20.582031 L 16.128906 20.582031 C 15.980469 20.714844 15.832031 20.84375 15.679688 20.980469 C 15.652344 21.003906 15.621094 21.03125 15.59375 21.058594 L 12.597656 21.058594 L 12.597656 21.277344 L 15.34375 21.277344 C 14.539062 21.984375 13.703125 22.695312 12.824219 23.253906 L 13.117188 23.714844 C 14.15625 23.058594 15.113281 22.210938 16.042969 21.390625 C 18.019531 19.640625 19.722656 18.132812 21.359375 19.222656 C 22.152344 19.75 23.035156 20.613281 23.964844 21.523438 C 25.269531 22.796875 26.765625 24.261719 28.46875 25.226562 C 26.472656 25.933594 20.214844 28.359375 19.421875 31.195312 C 19.203125 31.972656 19.394531 32.714844 19.992188 33.40625 C 21.824219 35.535156 26.128906 36.128906 29.585938 36.605469 C 30.726562 36.765625 31.710938 36.898438 32.449219 37.070312 C 33.417969 37.296875 33.546875 37.5 33.5625 37.558594 C 33.566406 37.574219 33.589844 37.71875 33.167969 38.050781 C 32.03125 38.953125 29.121094 40.058594 26.042969 41.230469 C 20.570312 43.3125 16.972656 44.785156 16.820312 46.253906 C 16.773438 46.671875 17.003906 47.046875 17.5 47.367188 C 18.652344 48.105469 18.617188 48.449219 18.597656 48.511719 C 18.472656 48.929688 16.886719 49.183594 15.457031 49.171875 C 8.835938 46.144531 3.726562 40.363281 1.609375 33.300781 Z M 12.144531 28.113281 C 11.75 28.179688 11.355469 28.246094 10.972656 28.3125 L 0.683594 28.65625 C 0.664062 28.5 0.652344 28.339844 0.636719 28.179688 C 5.074219 27.957031 11.472656 27.703125 14.324219 27.738281 C 13.601562 27.863281 12.863281 27.988281 12.144531 28.113281 Z M 6.566406 29.125 L 0.765625 29.355469 C 0.742188 29.195312 0.722656 29.035156 0.707031 28.875 L 9.417969 28.585938 C 8.375 28.769531 7.410156 28.949219 6.566406 29.125 Z M 3.835938 29.90625 L 0.863281 30.042969 C 0.839844 29.886719 0.816406 29.730469 0.792969 29.574219 L 5.386719 29.390625 C 4.605469 29.585938 4.125 29.75 3.835938 29.90625 Z M 4.359375 31.453125 L 1.15625 31.566406 C 1.121094 31.410156 1.085938 31.25 1.054688 31.089844 L 4.027344 30.945312 C 4.070312 30.957031 4.105469 30.96875 4.136719 30.976562 C 4.53125 31.089844 4.582031 31.195312 4.582031 31.195312 C 4.582031 31.195312 4.574219 31.28125 4.359375 31.453125 Z M 2.550781 32.375 C 2.113281 32.546875 1.710938 32.6875 1.457031 32.773438 C 1.425781 32.660156 1.394531 32.542969 1.367188 32.425781 Z M 3.136719 32.128906 L 1.308594 32.210938 C 1.273438 32.066406 1.238281 31.925781 1.207031 31.78125 L 4.019531 31.683594 C 3.8125 31.808594 3.527344 31.957031 3.136719 32.128906 Z M 3.625 30.746094 L 1.011719 30.875 C 0.972656 30.671875 0.933594 30.464844 0.902344 30.261719 L 3.535156 30.140625 C 3.472656 30.21875 3.449219 30.296875 3.445312 30.378906 C 3.433594 30.539062 3.511719 30.65625 3.625 30.746094 Z M 2.972656 15.15625 L 7.527344 16.183594 C 5.808594 17.785156 3.859375 19.539062 1.117188 20.628906 C 1.527344 18.714844 2.15625 16.882812 2.972656 15.15625 Z M 14.484375 3.304688 L 40.523438 20.988281 C 39.976562 21.597656 39.554688 22.320312 39.296875 23.117188 L 22.414062 19.3125 L 22.410156 19.332031 C 22.15625 19.121094 21.910156 18.929688 21.664062 18.765625 C 20.335938 17.882812 19.03125 18.355469 17.695312 19.308594 C 17.082031 18.570312 16.527344 17.863281 16.03125 17.230469 C 14.867188 15.742188 13.945312 14.570312 13.050781 13.929688 C 12.035156 13.210938 11.089844 13.21875 10.074219 13.957031 C 9.328125 14.496094 8.574219 15.203125 7.769531 15.953125 L 7.71875 16 L 3.070312 14.953125 C 5.496094 9.933594 9.523438 5.832031 14.484375 3.304688 Z M 26.003906 0.542969 C 28.316406 0.542969 30.5625 0.855469 32.695312 1.4375 L 42.949219 19.371094 C 42.078125 19.675781 41.304688 20.179688 40.675781 20.828125 L 14.707031 3.191406 C 18.113281 1.496094 21.949219 0.542969 26.003906 0.542969 Z M 45.789062 10 L 44.800781 19.042969 C 44.15625 19.050781 43.53125 19.164062 42.953125 19.367188 L 43.140625 19.261719 L 32.996094 1.519531 C 38.089844 2.976562 42.535156 5.984375 45.789062 10 Z M 47.511719 19.667969 L 49.785156 16.921875 C 50.835938 19.664062 51.425781 22.628906 51.457031 25.726562 L 50.683594 25.726562 C 50.722656 25.457031 50.742188 25.179688 50.742188 24.902344 C 50.742188 22.617188 49.425781 20.632812 47.511719 19.667969 Z M 45.019531 19.042969 L 45.980469 10.242188 C 47.515625 12.183594 48.773438 14.351562 49.695312 16.6875 L 47.308594 19.570312 C 46.609375 19.25 45.835938 19.0625 45.019531 19.042969 Z M 39.628906 25.726562 C 39.589844 25.457031 39.566406 25.179688 39.566406 24.902344 C 39.566406 21.972656 41.949219 19.589844 44.882812 19.589844 C 47.8125 19.589844 50.195312 21.972656 50.195312 24.902344 C 50.195312 25.179688 50.171875 25.457031 50.132812 25.726562 Z M 24.347656 21.132812 C 23.792969 20.589844 23.257812 20.066406 22.742188 19.613281 L 39.234375 23.328125 C 39.09375 23.828125 39.019531 24.359375 39.019531 24.902344 C 39.019531 25.179688 39.039062 25.457031 39.078125 25.726562 L 31.8125 25.726562 C 28.894531 25.578125 26.480469 23.214844 24.347656 21.132812 Z M 49.964844 15.878906 C 48.65625 12.785156 46.78125 10 44.390625 7.613281 C 42.003906 5.226562 39.222656 3.351562 36.125 2.039062 C 32.917969 0.683594 29.511719 -0.00390625 26.003906 -0.00390625 C 22.492188 -0.00390625 19.085938 0.683594 15.878906 2.039062 C 12.785156 3.351562 10 5.226562 7.613281 7.613281 C 5.226562 10 3.351562 12.785156 2.039062 15.878906 C 0.683594 19.085938 -0.00390625 22.492188 -0.00390625 26.003906 C -0.00390625 29.511719 0.683594 32.917969 2.039062 36.125 C 3.351562 39.222656 5.226562 42.003906 7.613281 44.390625 C 10 46.78125 12.785156 48.65625 15.878906 49.964844 C 19.085938 51.320312 22.492188 52.007812 26.003906 52.007812 C 29.511719 52.007812 32.917969 51.320312 36.125 49.964844 C 39.222656 48.65625 42.003906 46.78125 44.390625 44.390625 C 46.78125 42.003906 48.65625 39.222656 49.964844 36.125 C 51.320312 32.917969 52.007812 29.511719 52.007812 26.003906 C 52.007812 22.492188 51.320312 19.085938 49.964844 15.878906 " fill-opacity="1" fill-rule="nonzero"/></g><path fill="#0e3543" d="M 41.589844 33.367188 C 41.464844 33.34375 41.308594 33.316406 41.132812 33.28125 C 40.957031 33.25 40.757812 33.214844 40.539062 33.175781 C 40.109375 33.101562 39.605469 33.015625 39.066406 32.914062 C 38.933594 32.890625 38.796875 32.867188 38.660156 32.839844 C 38.523438 32.8125 38.382812 32.785156 38.246094 32.757812 C 37.964844 32.699219 37.683594 32.636719 37.410156 32.5625 C 37.136719 32.488281 36.867188 32.402344 36.628906 32.296875 C 36.511719 32.242188 36.402344 32.179688 36.328125 32.117188 C 36.289062 32.085938 36.261719 32.050781 36.246094 32.027344 C 36.230469 32.003906 36.226562 31.988281 36.226562 31.964844 C 36.226562 31.945312 36.234375 31.910156 36.257812 31.875 C 36.277344 31.835938 36.308594 31.792969 36.34375 31.753906 C 36.417969 31.671875 36.507812 31.597656 36.601562 31.527344 C 36.792969 31.386719 36.992188 31.269531 37.183594 31.164062 C 37.371094 31.054688 37.550781 30.964844 37.707031 30.882812 C 37.867188 30.804688 38.007812 30.730469 38.121094 30.675781 C 38.238281 30.617188 38.328125 30.570312 38.390625 30.539062 C 38.453125 30.507812 38.484375 30.492188 38.484375 30.492188 C 38.484375 30.492188 38.449219 30.496094 38.378906 30.511719 C 38.3125 30.523438 38.210938 30.542969 38.085938 30.574219 C 37.832031 30.628906 37.472656 30.71875 37.050781 30.875 C 36.839844 30.953125 36.613281 31.050781 36.378906 31.183594 C 36.261719 31.25 36.144531 31.328125 36.027344 31.433594 C 35.96875 31.488281 35.910156 31.546875 35.859375 31.625 C 35.808594 31.699219 35.761719 31.796875 35.746094 31.910156 C 35.738281 31.96875 35.738281 32.027344 35.746094 32.089844 C 35.757812 32.148438 35.777344 32.203125 35.800781 32.253906 C 35.851562 32.351562 35.914062 32.429688 35.980469 32.492188 C 36.117188 32.621094 36.257812 32.703125 36.398438 32.773438 C 36.683594 32.917969 36.976562 33.007812 37.269531 33.089844 C 37.5625 33.167969 37.855469 33.230469 38.144531 33.277344 C 38.289062 33.304688 38.433594 33.324219 38.574219 33.34375 C 38.71875 33.363281 38.859375 33.382812 38.996094 33.398438 C 39.550781 33.457031 40.066406 33.484375 40.511719 33.492188 C 40.730469 33.496094 40.933594 33.496094 41.117188 33.492188 C 41.296875 33.492188 41.453125 33.484375 41.582031 33.476562 C 41.710938 33.472656 41.8125 33.460938 41.882812 33.457031 C 41.953125 33.453125 41.988281 33.449219 41.988281 33.449219 C 41.988281 33.449219 41.953125 33.441406 41.882812 33.425781 C 41.816406 33.414062 41.714844 33.390625 41.589844 33.367188 " fill-opacity="1" fill-rule="nonzero"/><path fill="#0e3543" d="M 29.242188 47.414062 C 29.117188 47.390625 28.960938 47.363281 28.785156 47.328125 C 28.609375 47.296875 28.410156 47.261719 28.191406 47.222656 C 27.761719 47.148438 27.253906 47.0625 26.71875 46.960938 C 26.585938 46.9375 26.449219 46.910156 26.3125 46.886719 C 26.175781 46.859375 26.035156 46.832031 25.898438 46.800781 C 25.621094 46.742188 25.339844 46.683594 25.0625 46.605469 C 24.789062 46.535156 24.519531 46.449219 24.28125 46.34375 C 24.167969 46.289062 24.054688 46.226562 23.980469 46.164062 C 23.941406 46.132812 23.914062 46.097656 23.898438 46.074219 C 23.886719 46.050781 23.878906 46.035156 23.878906 46.011719 C 23.878906 45.992188 23.886719 45.957031 23.910156 45.921875 C 23.929688 45.882812 23.960938 45.839844 23.996094 45.800781 C 24.070312 45.71875 24.164062 45.644531 24.253906 45.574219 C 24.445312 45.433594 24.648438 45.3125 24.835938 45.207031 C 25.023438 45.101562 25.203125 45.011719 25.359375 44.929688 C 25.519531 44.847656 25.660156 44.777344 25.773438 44.71875 C 25.890625 44.664062 25.980469 44.617188 26.042969 44.585938 C 26.105469 44.554688 26.136719 44.539062 26.136719 44.539062 C 26.136719 44.539062 26.101562 44.542969 26.03125 44.558594 C 25.964844 44.570312 25.863281 44.589844 25.738281 44.617188 C 25.484375 44.675781 25.125 44.765625 24.703125 44.921875 C 24.492188 45 24.265625 45.09375 24.03125 45.230469 C 23.914062 45.296875 23.796875 45.375 23.679688 45.480469 C 23.621094 45.535156 23.5625 45.59375 23.511719 45.671875 C 23.460938 45.746094 23.414062 45.839844 23.398438 45.957031 C 23.390625 46.015625 23.390625 46.074219 23.398438 46.132812 C 23.410156 46.191406 23.429688 46.25 23.453125 46.300781 C 23.503906 46.398438 23.566406 46.476562 23.632812 46.539062 C 23.769531 46.664062 23.910156 46.75 24.050781 46.820312 C 24.335938 46.964844 24.628906 47.054688 24.921875 47.136719 C 25.214844 47.210938 25.507812 47.277344 25.796875 47.324219 C 25.941406 47.351562 26.085938 47.371094 26.226562 47.390625 C 26.371094 47.410156 26.511719 47.429688 26.648438 47.441406 C 27.203125 47.503906 27.71875 47.53125 28.164062 47.539062 C 28.382812 47.542969 28.589844 47.542969 28.769531 47.539062 C 28.949219 47.535156 29.105469 47.53125 29.234375 47.523438 C 29.363281 47.519531 29.464844 47.507812 29.535156 47.503906 C 29.605469 47.5 29.640625 47.496094 29.640625 47.496094 C 29.640625 47.496094 29.605469 47.488281 29.539062 47.472656 C 29.46875 47.460938 29.371094 47.4375 29.242188 47.414062 " fill-opacity="1" fill-rule="nonzero"/><path fill="#0e3543" d="M 38.984375 27.097656 L 38.984375 27.316406 L 50.929688 27.316406 L 50.929688 27.097656 L 38.984375 27.097656 " fill-opacity="1" fill-rule="nonzero"/><path fill="#0e3543" d="M 40.019531 28.117188 L 49.945312 28.117188 L 49.945312 27.898438 L 40.019531 27.898438 L 40.019531 28.117188 " fill-opacity="1" fill-rule="nonzero"/><path fill="#0e3543" d="M 41.078125 28.957031 L 48.960938 28.957031 L 48.960938 28.738281 L 41.078125 28.738281 L 41.078125 28.957031 " fill-opacity="1" fill-rule="nonzero"/><path fill="#0e3543" d="M 42.355469 29.835938 L 47.828125 29.835938 L 47.828125 29.617188 L 42.355469 29.617188 L 42.355469 29.835938 " fill-opacity="1" fill-rule="nonzero"/><path fill="#0e3543" d="M 43.59375 30.601562 L 46.625 30.601562 L 46.625 30.382812 L 43.59375 30.382812 L 43.59375 30.601562 " fill-opacity="1" fill-rule="nonzero"/></g></g></g></g></svg>