<svg xmlns="http://www.w3.org/2000/svg" xmlns:xlink="http://www.w3.org/1999/xlink" width="70" zoomAndPan="magnify" viewBox="0 0 52.5 52.499999" height="70" preserveAspectRatio="xMidYMid meet" version="1.0"><defs><filter x="0%" y="0%" width="100%" height="100%" id="949fc340eb"><feColorMatrix values="0 0 0 0 1 0 0 0 0 1 0 0 0 0 1 0 0 0 1 0" color-interpolation-filters="sRGB"/></filter><clipPath id="f11be762bd"><path d="M 0 0 L 52.003906 0 L 52.003906 52.003906 L 0 52.003906 Z M 0 0 " clip-rule="nonzero"/></clipPath><clipPath id="617470693d"><path d="M 0 1 L 52.003906 1 L 52.003906 52.003906 L 0 52.003906 Z M 0 1 " clip-rule="nonzero"/></clipPath><mask id="8a3cdaa536"><g filter="url(#949fc340eb)"><rect x="-5.25" width="63" fill="#000000" y="-5.25" height="62.999999" fill-opacity="0.7"/></g></mask><clipPath id="c7827425b7"><path d="M 0 0.558594 L 52.003906 0.558594 L 52.003906 51 L 0 51 Z M 0 0.558594 " clip-rule="nonzero"/></clipPath><clipPath id="d18e91d17e"><rect x="0" width="53" y="0" height="52"/></clipPath></defs><g clip-path="url(#f11be762bd)"><path fill="#ffffff" d="M 0 0 L 52.003906 0 L 52.003906 52.003906 L 0 52.003906 Z M 0 0 " fill-opacity="1" fill-rule="nonzero"/><path fill="#ffffff" d="M 0 0 L 52.003906 0 L 52.003906 52.003906 L 0 52.003906 Z M 0 0 " fill-opacity="1" fill-rule="nonzero"/></g><g clip-path="url(#617470693d)"><g mask="url(#8a3cdaa536)"><g transform="matrix(1, 0, 0, 1, 0, 1)"><g clip-path="url(#d18e91d17e)"><g clip-path="url(#c7827425b7)"><path fill="#0e3543" d="M 48.882812 26.4375 L 43.652344 26.4375 L 43.652344 7.25 C 43.652344 6.003906 43.292969 4.789062 42.617188 3.742188 C 41.53125 2.0625 39.761719 0.992188 37.765625 0.816406 C 35.785156 0.640625 33.84375 1.375 32.476562 2.839844 L 30.933594 4.488281 C 27.980469 4.730469 25.648438 7.207031 25.648438 10.21875 C 25.648438 10.792969 26.117188 11.261719 26.691406 11.261719 L 36.125 11.261719 C 36.699219 11.261719 37.164062 10.792969 37.164062 10.21875 C 37.164062 7.765625 35.617188 5.667969 33.449219 4.84375 L 33.996094 4.257812 C 34.921875 3.265625 36.234375 2.765625 37.582031 2.886719 C 38.933594 3.007812 40.132812 3.730469 40.871094 4.871094 C 41.328125 5.582031 41.570312 6.402344 41.570312 7.25 L 41.570312 26.4375 L 3.121094 26.4375 C 1.398438 26.4375 0 27.839844 0 29.558594 L 0 31.699219 C 0 32.273438 0.464844 32.738281 1.039062 32.738281 L 2.855469 32.738281 L 3.808594 35.984375 C 4.871094 39.597656 7.429688 42.496094 10.675781 44.101562 C 9.496094 45.789062 8.84375 47.824219 8.84375 49.886719 C 8.84375 50.460938 9.308594 50.929688 9.886719 50.929688 C 10.460938 50.929688 10.925781 50.460938 10.925781 49.886719 C 10.925781 48.121094 11.519531 46.375 12.65625 44.902344 L 12.664062 44.886719 C 13.886719 45.261719 15.171875 45.472656 16.492188 45.472656 L 35.277344 45.472656 C 36.671875 45.472656 38.027344 45.246094 39.3125 44.839844 L 39.402344 44.976562 C 40.484375 46.378906 41.078125 48.121094 41.078125 49.886719 C 41.078125 50.460938 41.546875 50.929688 42.121094 50.929688 C 42.695312 50.929688 43.160156 50.460938 43.160156 49.886719 C 43.160156 47.773438 42.476562 45.6875 41.285156 44.039062 C 44.582031 42.390625 47.179688 39.433594 48.261719 35.757812 L 49.148438 32.738281 L 50.964844 32.738281 C 51.539062 32.738281 52.003906 32.273438 52.003906 31.699219 L 52.003906 29.558594 C 52.003906 27.839844 50.605469 26.4375 48.882812 26.4375 Z M 34.9375 9.179688 L 27.878906 9.179688 C 28.328125 7.65625 29.742188 6.542969 31.40625 6.542969 C 33.074219 6.542969 34.484375 7.660156 34.9375 9.179688 Z M 46.265625 35.171875 C 44.839844 40.011719 40.320312 43.394531 35.277344 43.394531 L 16.492188 43.394531 C 11.585938 43.394531 7.191406 40.105469 5.804688 35.398438 L 5.023438 32.738281 L 46.980469 32.738281 Z M 49.925781 30.65625 L 2.082031 30.65625 L 2.082031 29.558594 C 2.082031 28.984375 2.546875 28.519531 3.121094 28.519531 L 48.882812 28.519531 C 49.457031 28.519531 49.925781 28.984375 49.925781 29.558594 Z M 49.925781 30.65625 " fill-opacity="1" fill-rule="nonzero"/></g><path fill="#0e3543" d="M 25.796875 22.972656 C 25.796875 23.546875 26.261719 24.011719 26.835938 24.011719 C 27.414062 24.011719 27.878906 23.546875 27.878906 22.972656 L 27.878906 21.933594 C 27.878906 21.359375 27.414062 20.890625 26.835938 20.890625 C 26.261719 20.890625 25.796875 21.359375 25.796875 21.933594 Z M 25.796875 22.972656 " fill-opacity="1" fill-rule="nonzero"/><path fill="#0e3543" d="M 25.796875 18.8125 C 25.796875 19.386719 26.261719 19.851562 26.835938 19.851562 C 27.414062 19.851562 27.878906 19.386719 27.878906 18.8125 L 27.878906 17.773438 C 27.878906 17.199219 27.414062 16.730469 26.835938 16.730469 C 26.261719 16.730469 25.796875 17.195312 25.796875 17.773438 Z M 25.796875 18.8125 " fill-opacity="1" fill-rule="nonzero"/><path fill="#0e3543" d="M 26.835938 15.691406 C 27.414062 15.691406 27.878906 15.226562 27.878906 14.652344 L 27.878906 13.613281 C 27.878906 13.039062 27.414062 12.570312 26.835938 12.570312 C 26.261719 12.570312 25.796875 13.035156 25.796875 13.613281 L 25.796875 14.652344 C 25.796875 15.226562 26.261719 15.691406 26.835938 15.691406 Z M 26.835938 15.691406 " fill-opacity="1" fill-rule="nonzero"/><path fill="#0e3543" d="M 34.640625 22.972656 C 34.640625 23.546875 35.109375 24.011719 35.683594 24.011719 C 36.257812 24.011719 36.722656 23.546875 36.722656 22.972656 L 36.722656 21.933594 C 36.722656 21.359375 36.257812 20.890625 35.683594 20.890625 C 35.109375 20.890625 34.640625 21.359375 34.640625 21.933594 Z M 34.640625 22.972656 " fill-opacity="1" fill-rule="nonzero"/><path fill="#0e3543" d="M 35.683594 15.691406 C 36.257812 15.691406 36.722656 15.226562 36.722656 14.652344 L 36.722656 13.613281 C 36.722656 13.039062 36.257812 12.570312 35.683594 12.570312 C 35.109375 12.570312 34.640625 13.035156 34.640625 13.613281 L 34.640625 14.652344 C 34.640625 15.226562 35.105469 15.691406 35.683594 15.691406 Z M 35.683594 15.691406 " fill-opacity="1" fill-rule="nonzero"/><path fill="#0e3543" d="M 34.640625 18.8125 C 34.640625 19.386719 35.109375 19.851562 35.683594 19.851562 C 36.257812 19.851562 36.722656 19.386719 36.722656 18.8125 L 36.722656 17.773438 C 36.722656 17.199219 36.257812 16.730469 35.683594 16.730469 C 35.109375 16.730469 34.640625 17.195312 34.640625 17.773438 Z M 34.640625 18.8125 " fill-opacity="1" fill-rule="nonzero"/><path fill="#0e3543" d="M 31.113281 15.691406 C 31.6875 15.691406 32.152344 15.226562 32.152344 14.652344 L 32.152344 13.613281 C 32.152344 13.039062 31.6875 12.570312 31.113281 12.570312 C 30.539062 12.570312 30.074219 13.035156 30.074219 13.613281 L 30.074219 14.652344 C 30.074219 15.226562 30.539062 15.691406 31.113281 15.691406 Z M 31.113281 15.691406 " fill-opacity="1" fill-rule="nonzero"/><path fill="#0e3543" d="M 30.074219 22.972656 C 30.074219 23.546875 30.539062 24.011719 31.113281 24.011719 C 31.6875 24.011719 32.152344 23.546875 32.152344 22.972656 L 32.152344 21.933594 C 32.152344 21.359375 31.6875 20.890625 31.113281 20.890625 C 30.539062 20.890625 30.074219 21.359375 30.074219 21.933594 Z M 30.074219 22.972656 " fill-opacity="1" fill-rule="nonzero"/><path fill="#0e3543" d="M 30.074219 18.8125 C 30.074219 19.386719 30.539062 19.851562 31.113281 19.851562 C 31.6875 19.851562 32.152344 19.386719 32.152344 18.8125 L 32.152344 17.773438 C 32.152344 17.199219 31.6875 16.730469 31.113281 16.730469 C 30.539062 16.730469 30.074219 17.195312 30.074219 17.773438 Z M 30.074219 18.8125 " fill-opacity="1" fill-rule="nonzero"/></g></g></g></g></svg>