<svg xmlns="http://www.w3.org/2000/svg" xmlns:xlink="http://www.w3.org/1999/xlink" width="70" zoomAndPan="magnify" viewBox="0 0 52.5 52.499999" height="70" preserveAspectRatio="xMidYMid meet" version="1.0"><defs><clipPath id="0cd1bf2bf1"><path d="M 0 0 L 52.003906 0 L 52.003906 52.003906 L 0 52.003906 Z M 0 0 " clip-rule="nonzero"/></clipPath><clipPath id="d3cc1d04da"><path d="M 0 3.25 L 52 3.25 L 52 48.570312 L 0 48.570312 Z M 0 3.25 " clip-rule="nonzero"/></clipPath></defs><g clip-path="url(#0cd1bf2bf1)"><path fill="#ffffff" d="M 0 0 L 52.003906 0 L 52.003906 52.003906 L 0 52.003906 Z M 0 0 " fill-opacity="1" fill-rule="nonzero"/><path fill="#ffffff" d="M 0 0 L 52.003906 0 L 52.003906 52.003906 L 0 52.003906 Z M 0 0 " fill-opacity="1" fill-rule="nonzero"/></g><g clip-path="url(#d3cc1d04da)"><path fill="#0e3543" d="M 25.996094 4.4375 C 25.765625 4.4375 25.53125 4.515625 25.34375 4.675781 L 1.503906 24.636719 C 1.207031 24.882812 1.105469 25.242188 1.230469 25.589844 C 1.339844 25.886719 1.640625 26.207031 2.15625 26.207031 L 6.332031 26.207031 C 7.597656 26.207031 8.628906 27.300781 8.628906 28.644531 L 8.628906 46.296875 C 8.628906 47.078125 9.199219 47.714844 9.902344 47.714844 L 42.09375 47.714844 C 42.796875 47.714844 43.367188 47.078125 43.367188 46.296875 L 43.367188 28.644531 C 43.367188 27.300781 44.398438 26.207031 45.664062 26.207031 L 49.839844 26.207031 C 50.355469 26.207031 50.65625 25.886719 50.761719 25.589844 C 50.890625 25.242188 50.789062 24.882812 50.492188 24.636719 L 41.09375 16.769531 C 40.914062 16.617188 40.8125 16.398438 40.8125 16.164062 L 40.8125 7.53125 C 40.8125 7.113281 40.472656 6.773438 40.050781 6.773438 L 36.164062 6.773438 C 35.746094 6.773438 35.40625 7.113281 35.40625 7.53125 L 35.40625 10.316406 C 35.40625 10.625 35.230469 10.898438 34.949219 11.03125 C 34.667969 11.160156 34.347656 11.121094 34.109375 10.921875 L 26.652344 4.675781 C 26.460938 4.515625 26.230469 4.4375 25.996094 4.4375 Z M 42.09375 48.734375 L 9.902344 48.734375 C 8.636719 48.734375 7.605469 47.640625 7.605469 46.296875 L 7.605469 28.644531 C 7.605469 27.863281 7.035156 27.226562 6.332031 27.226562 L 2.15625 27.226562 C 1.296875 27.226562 0.554688 26.71875 0.273438 25.9375 C -0.00390625 25.179688 0.214844 24.382812 0.847656 23.851562 L 24.6875 3.894531 C 25.445312 3.257812 26.546875 3.257812 27.304688 3.894531 L 34.382812 9.820312 L 34.382812 7.53125 C 34.382812 6.550781 35.183594 5.75 36.164062 5.75 L 40.050781 5.75 C 41.035156 5.75 41.832031 6.550781 41.832031 7.53125 L 41.832031 16.054688 L 51.148438 23.851562 C 51.777344 24.382812 51.996094 25.179688 51.722656 25.9375 C 51.4375 26.71875 50.699219 27.226562 49.839844 27.226562 L 45.664062 27.226562 C 44.960938 27.226562 44.386719 27.863281 44.386719 28.644531 L 44.386719 46.296875 C 44.386719 47.640625 43.359375 48.734375 42.09375 48.734375 " fill-opacity="1" fill-rule="nonzero"/></g></svg>