<?xml version="1.0" encoding="UTF-8" standalone="no"?>
<!DOCTYPE svg PUBLIC "-//W3C//DTD SVG 1.1//EN" "http://www.w3.org/Graphics/SVG/1.1/DTD/svg11.dtd">
<svg xmlns="http://www.w3.org/2000/svg" version="1.1" viewBox="0.00 0.00 180.00 60.00">
<g stroke-width="2.00" fill="none" stroke-linecap="butt">
<path stroke="#c1c0c1" vector-effect="non-scaling-stroke" d="
  M 34.28 29.56
  Q 36.21 35.16 42.21 32.85
  Q 43.32 32.43 44.25 31.21
  Q 44.37 31.05 44.56 31.11
  L 44.87 31.20
  Q 45.23 31.31 45.01 31.62
  Q 41.10 37.36 41.85 43.50
  Q 42.14 45.88 43.67 47.29
  A 1.80 1.79 40.4 0 0 46.30 47.08
  Q 47.07 46.08 47.15 44.79
  Q 47.49 38.97 48.13 35.68
  Q 48.27 34.92 48.14 34.34
  Q 47.97 33.59 47.83 33.10
  Q 47.62 32.39 48.21 31.95
  L 50.61 30.15
  Q 51.12 29.77 51.27 30.39
  Q 52.11 33.83 53.84 33.36
  Q 55.15 33.01 54.98 31.88
  A 0.93 0.90 7.4 0 0 54.43 31.19
  Q 52.36 30.32 53.18 28.42
  A 1.67 1.59 -63.9 0 0 52.52 26.34
  Q 52.32 26.23 52.29 26.20
  A 1.19 1.06 -59.0 0 0 50.50 26.76
  Q 49.87 28.46 48.14 29.51
  Q 47.68 29.79 47.17 29.64
  L 44.95 28.96
  Q 44.27 28.75 44.27 28.05
  L 44.27 25.54
  A 1.52 1.52 0.0 0 0 41.97 24.23
  Q 38.26 26.45 38.75 30.47
  Q 38.95 32.20 37.71 30.98
  Q 36.06 29.37 36.17 26.12
  Q 36.20 25.37 35.48 25.15
  L 35.17 25.06
  A 1.21 1.21 0.0 0 0 33.63 25.98
  Q 33.17 28.32 31.52 29.14
  Q 30.58 29.61 31.03 28.66
  Q 31.82 26.96 31.94 25.57
  Q 31.99 25.06 31.56 24.78
  Q 30.89 24.34 29.89 25.01
  A 0.96 0.91 83.0 0 0 29.52 25.51
  L 28.42 29.12
  A 1.62 1.60 89.0 0 1 27.43 30.16
  L 26.41 30.54
  Q 25.55 30.85 25.81 29.97
  L 27.61 24.08
  A 1.41 1.40 38.9 0 0 27.49 22.97
  Q 26.20 20.71 24.77 23.05
  Q 23.65 24.86 23.42 29.27
  A 1.25 1.25 0.0 0 1 22.61 30.38
  L 22.23 30.51
  Q 21.43 30.80 21.58 29.97
  C 22.62 24.05 23.04 19.02 24.80 13.63
  Q 25.50 11.49 27.71 4.31
  A 1.96 1.96 0.0 0 0 27.33 2.46
  Q 27.03 2.11 26.33 2.47
  Q 25.96 2.65 25.69 3.13
  Q 23.42 7.12 23.32 7.93
  Q 22.21 17.71 19.55 25.10
  Q 19.22 26.02 18.31 25.63
  Q 17.24 25.16 16.58 25.49
  A 0.74 0.73 -17.5 0 0 16.17 26.26
  Q 16.74 30.30 15.03 33.88
  A 0.99 0.97 2.0 0 1 14.48 34.38
  L 13.21 34.84
  Q 12.68 35.04 12.53 35.58
  Q 12.25 36.53 13.08 37.50
  Q 13.42 37.90 13.94 37.84
  Q 14.75 37.75 15.67 36.36
  Q 16.04 35.81 16.31 36.41
  C 16.61 37.09 16.74 37.88 17.40 38.33
  Q 18.22 38.87 19.05 38.32
  Q 19.54 37.98 19.90 37.13
  Q 20.46 35.82 20.77 34.88
  C 21.30 33.24 22.28 32.69 23.58 31.89
  Q 24.05 31.60 24.39 32.03
  Q 25.94 33.94 27.87 32.58
  Q 28.33 32.26 28.88 32.34
  Q 31.95 32.79 33.73 29.51
  Q 34.06 28.91 34.28 29.56"
/>
<path stroke="#c1c0c1" vector-effect="non-scaling-stroke" d="
  M 68.46 27.53
  L 70.04 33.61
  A 0.96 0.95 -87.7 0 0 70.62 34.25
  Q 72.42 34.93 73.26 31.95
  Q 73.86 29.80 74.63 31.90
  L 75.30 33.76
  A 0.61 0.60 80.9 0 0 75.83 34.15
  Q 77.24 34.24 77.58 33.29
  Q 78.90 29.55 78.97 29.45
  Q 79.40 28.83 79.52 29.50
  L 80.26 33.68
  Q 80.46 34.83 81.62 34.91
  Q 83.23 35.02 83.89 33.78
  A 0.66 0.66 0.0 0 0 83.34 32.81
  Q 82.06 32.75 81.75 31.25
  Q 79.94 22.56 83.22 12.49
  A 0.95 0.95 0.0 0 0 82.82 11.39
  Q 82.12 10.95 81.45 11.51
  A 0.95 0.93 -15.5 0 0 81.13 12.06
  Q 79.51 21.12 78.21 27.24
  Q 77.79 29.21 76.45 30.57
  A 0.47 0.47 0.0 0 1 75.65 30.32
  Q 75.10 27.22 75.45 24.50
  Q 76.18 18.92 77.74 12.56
  Q 78.01 11.48 77.25 11.06
  A 1.01 1.01 0.0 0 0 75.86 11.49
  C 73.57 16.03 73.77 20.61 73.41 26.88
  Q 73.33 28.39 72.03 30.62
  Q 71.74 31.11 71.47 30.61
  Q 68.88 25.68 70.54 20.31
  Q 72.54 13.82 73.32 10.04
  Q 73.63 8.53 72.06 8.79
  L 71.82 8.83
  Q 70.60 9.04 70.18 10.14
  Q 68.42 14.73 68.35 17.09
  C 68.24 20.72 68.04 24.26 66.55 27.62
  Q 65.02 31.07 64.86 31.63
  Q 64.05 34.44 61.95 33.47
  Q 61.02 33.05 60.89 34.06
  L 60.68 35.67
  Q 60.53 36.81 61.50 37.41
  Q 62.43 37.99 63.37 37.07
  C 66.12 34.41 67.15 30.65 67.99 27.53
  Q 68.23 26.63 68.46 27.53"
/>
<path stroke="#c1c0c1" vector-effect="non-scaling-stroke" d="
  M 102.7522 17.4157
  A 1.40 1.09 102.7 0 0 104.1233 16.2896
  A 1.40 1.09 102.7 0 0 103.3678 14.6843
  A 1.40 1.09 102.7 0 0 101.9967 15.8104
  A 1.40 1.09 102.7 0 0 102.7522 17.4157"
/>
<path stroke="#c1c0c1" vector-effect="non-scaling-stroke" d="
  M 109.34 29.38
  Q 109.56 26.75 110.82 22.89
  Q 111.02 22.26 110.45 21.93
  Q 110.08 21.73 109.61 21.80
  A 0.89 0.88 3.4 0 0 108.87 22.45
  Q 108.59 23.44 106.96 29.98
  Q 106.40 32.22 105.12 33.91
  Q 104.82 34.31 104.41 34.02
  Q 103.61 33.49 103.19 33.65
  Q 102.52 33.90 102.70 34.59
  L 103.08 36.08
  A 1.42 1.42 0.0 0 0 105.68 36.43
  L 107.53 33.22
  Q 107.83 32.71 108.42 32.76
  Q 110.56 32.95 111.50 30.36
  Q 111.74 29.68 112.22 30.22
  Q 113.93 32.13 116.00 31.98
  A 0.93 0.89 -23.9 0 1 116.71 32.24
  L 117.68 33.21
  Q 117.99 33.52 118.39 33.37
  L 124.12 31.28
  Q 124.58 31.11 125.05 31.22
  C 126.87 31.63 127.80 30.59 129.34 29.49
  Q 129.75 29.19 130.24 29.33
  Q 132.19 29.87 133.12 31.28
  Q 133.42 31.74 133.95 31.82
  Q 135.34 32.04 136.34 33.84
  Q 136.59 34.28 137.10 34.31
  Q 138.61 34.39 141.03 31.26
  Q 141.69 30.41 142.06 31.42
  L 142.31 32.11
  A 2.31 2.30 52.0 0 1 142.06 34.18
  C 140.14 37.08 139.05 38.43 139.74 42.06
  A 2.04 2.04 0.0 0 0 141.50 43.70
  Q 143.79 43.97 144.19 41.76
  Q 144.75 38.64 144.39 34.99
  A 0.90 0.87 -26.0 0 1 144.65 34.28
  L 147.13 31.80
  A 0.84 0.83 64.4 0 1 148.55 32.30
  Q 148.65 33.20 149.29 33.98
  Q 149.60 34.36 150.07 34.22
  Q 151.91 33.65 153.12 31.97
  A 0.57 0.57 0.0 0 1 154.05 31.98
  Q 156.34 35.26 159.12 32.35
  Q 159.22 32.24 160.69 30.74
  Q 161.05 30.37 161.31 30.82
  Q 162.73 33.33 164.80 32.44
  Q 165.71 32.04 165.72 31.06
  Q 165.73 30.51 165.17 30.47
  Q 162.09 30.26 162.13 27.30
  A 0.93 0.92 -85.8 0 0 161.33 26.37
  L 160.85 26.31
  A 0.52 0.52 0.0 0 0 160.27 26.80
  Q 160.12 29.60 157.66 31.22
  A 1.45 1.45 0.0 0 1 155.43 30.24
  Q 155.20 28.73 156.27 27.23
  Q 159.78 22.34 160.63 16.77
  A 1.39 1.38 -2.7 0 0 158.92 15.22
  Q 158.11 15.42 157.29 16.34
  C 154.46 19.52 153.58 24.18 153.43 28.58
  Q 153.42 29.09 152.93 29.22
  Q 150.60 29.84 149.05 29.63
  A 0.60 0.59 16.9 0 1 148.59 28.78
  Q 149.55 26.84 150.24 24.99
  Q 150.96 23.10 149.05 23.22
  A 1.30 1.27 -76.4 0 0 148.01 23.87
  Q 146.13 27.18 145.83 29.16
  Q 145.04 34.29 143.06 29.74
  Q 142.92 29.41 142.66 27.11
  A 1.77 1.74 21.7 0 0 142.23 26.14
  Q 139.80 23.42 137.05 26.04
  Q 135.24 27.76 135.17 30.20
  Q 135.16 30.62 134.86 30.32
  L 131.68 27.14
  Q 131.43 26.89 131.48 26.54
  L 131.62 25.49
  Q 131.69 24.89 131.15 24.63
  Q 130.32 24.24 129.60 25.12
  Q 128.86 26.01 127.66 28.16
  Q 127.46 28.53 126.85 28.80
  Q 126.22 29.08 126.27 28.40
  Q 126.35 27.31 127.46 25.47
  A 1.82 1.80 -39.5 0 0 127.62 23.90
  L 127.38 23.26
  A 0.76 0.76 0.0 0 0 125.97 23.22
  L 123.43 29.14
  A 0.74 0.71 3.8 0 1 122.94 29.55
  L 122.37 29.70
  Q 122.10 29.77 122.18 29.50
  L 123.94 23.74
  A 0.77 0.77 0.0 0 0 123.31 22.75
  L 119.78 22.29
  Q 119.20 22.21 118.81 22.66
  Q 116.24 25.68 116.33 29.80
  Q 116.34 30.38 115.81 30.15
  L 113.98 29.36
  Q 113.23 29.04 113.35 28.23
  L 113.95 24.24
  Q 114.09 23.32 113.22 23.13
  Q 113.20 23.13 113.18 23.12
  Q 112.21 22.90 111.97 23.90
  C 111.30 26.75 111.02 28.77 109.88 29.67
  Q 109.28 30.14 109.34 29.38"
/>
<path stroke="#c1c0c1" vector-effect="non-scaling-stroke" d="
  M 166.16 18.62
  L 165.37 15.80
  A 0.42 0.42 0.0 0 0 164.85 15.51
  L 164.74 15.54
  A 1.92 1.79 -15.6 0 0 163.37 17.78
  L 163.42 17.96
  A 1.92 1.79 -15.6 0 0 165.75 19.17
  L 165.87 19.13
  A 0.42 0.42 0.0 0 0 166.16 18.62"
/>
<path stroke="#c1c0c1" vector-effect="non-scaling-stroke" d="
  M 36.56 22.75
  C 37.26 21.20 37.52 20.34 39.34 20.03
  Q 39.85 19.95 39.94 19.44
  Q 40.09 18.54 39.33 17.86
  Q 38.16 16.79 37.29 18.11
  Q 36.19 19.76 35.59 21.80
  Q 35.46 22.24 35.78 22.57
  L 36.06 22.84
  A 0.31 0.31 0.0 0 0 36.56 22.75"
/>
<path stroke="#c1c0c1" vector-effect="non-scaling-stroke" d="
  M 55.06 17.94
  L 55.18 21.40
  A 0.46 0.46 0.0 0 0 55.65 21.84
  L 55.88 21.84
  A 1.83 1.79 88.1 0 0 57.61 19.95
  L 57.59 19.23
  A 1.83 1.79 88.1 0 0 55.74 17.46
  L 55.51 17.47
  A 0.46 0.46 0.0 0 0 55.06 17.94"
/>
<path stroke="#c1c0c1" vector-effect="non-scaling-stroke" d="
  M 95.37 29.21
  L 96.09 31.19
  Q 96.28 31.72 96.84 31.85
  Q 98.08 32.13 99.40 30.81
  Q 99.80 30.40 100.07 30.92
  Q 100.38 31.55 101.29 31.74
  A 0.91 0.90 86.1 0 0 102.33 30.54
  L 101.86 29.25
  Q 101.67 28.74 101.82 28.22
  Q 102.25 26.76 102.16 25.44
  A 0.63 0.62 -1.9 0 0 101.53 24.86
  Q 101.13 24.86 100.71 25.12
  Q 100.27 25.39 100.12 25.74
  Q 99.45 27.28 98.97 28.33
  Q 98.11 30.17 97.61 28.22
  Q 97.50 27.79 98.30 25.37
  A 0.90 0.89 31.7 0 0 98.08 24.46
  L 97.65 24.03
  Q 96.82 23.20 96.36 24.28
  Q 94.73 28.10 91.37 28.99
  A 0.51 0.51 0.0 0 1 90.74 28.43
  L 91.42 23.27
  A 1.13 1.12 -82.7 0 0 90.45 22.00
  L 87.35 21.59
  Q 86.93 21.53 86.59 21.78
  Q 85.70 22.42 85.18 23.62
  Q 82.91 28.80 84.39 32.85
  A 1.70 1.70 0.0 0 0 87.19 33.47
  L 88.97 31.69
  Q 89.35 31.30 89.89 31.39
  Q 92.75 31.85 94.85 29.13
  Q 95.18 28.70 95.37 29.21"
/>
<path stroke="#97b0ba" vector-effect="non-scaling-stroke" d="
  M 137.5639 50.8613
  A 0.68 0.68 0.0 0 0 136.8851 50.1801
  L 136.7651 50.1799
  A 0.68 0.68 0.0 0 0 136.0839 50.8587
  L 136.0761 55.3787
  A 0.68 0.68 0.0 0 0 136.7549 56.0599
  L 136.8749 56.0601
  A 0.68 0.68 0.0 0 0 137.5561 55.3813
  L 137.5639 50.8613"
/>
<path stroke="#97b0ba" vector-effect="non-scaling-stroke" d="
  M 142.90 54.87
  A 0.25 0.25 0.0 0 1 142.66 54.62
  L 142.58 50.47
  A 0.25 0.25 0.0 0 0 142.33 50.22
  L 141.60 50.22
  A 0.25 0.25 0.0 0 0 141.35 50.47
  L 141.24 55.71
  A 0.25 0.25 0.0 0 0 141.50 55.97
  L 145.24 55.94
  A 0.25 0.25 0.0 0 0 145.49 55.73
  L 145.57 55.24
  A 0.25 0.25 0.0 0 0 145.33 54.95
  L 142.90 54.87"
/>
<path stroke="#97b0ba" vector-effect="non-scaling-stroke" d="
  M 149.8935 50.7452
  A 0.55 0.55 0.0 0 0 149.3397 50.1991
  L 149.0597 50.2010
  A 0.55 0.55 0.0 0 0 148.5135 50.7549
  L 148.5465 55.4748
  A 0.55 0.55 0.0 0 0 149.1003 56.0209
  L 149.3803 56.0190
  A 0.55 0.55 0.0 0 0 149.9265 55.4651
  L 149.8935 50.7452"
/>
<path stroke="#97b0ba" vector-effect="non-scaling-stroke" d="
  M 4.81 53.14
  Q 4.81 56.13 8.56 56.02
  Q 9.98 55.98 10.01 54.91
  A 0.45 0.45 0.0 0 0 9.32 54.52
  C 8.03 55.31 6.16 54.97 6.16 53.14
  C 6.17 51.32 8.04 50.98 9.33 51.78
  A 0.45 0.45 0.0 0 0 10.02 51.39
  Q 9.99 50.32 8.57 50.28
  Q 4.82 50.15 4.81 53.14"
/>
<path stroke="#97b0ba" vector-effect="non-scaling-stroke" d="
  M 19.35 53.15
  A 3.03 3.03 0.0 0 0 16.32 50.12
  A 3.03 3.03 0.0 0 0 13.29 53.15
  A 3.03 3.03 0.0 0 0 16.32 56.18
  A 3.03 3.03 0.0 0 0 19.35 53.15"
/>
<path stroke="#97b0ba" vector-effect="non-scaling-stroke" d="
  M 24.93 53.58
  Q 25.65 54.54 26.99 55.91
  A 0.58 0.58 0.0 0 0 27.98 55.50
  L 27.98 50.78
  Q 27.98 50.24 27.44 50.24
  L 27.15 50.24
  Q 26.63 50.24 26.66 50.76
  L 26.79 53.01
  Q 26.82 53.63 26.30 53.25
  Q 26.24 53.20 25.84 52.67
  Q 25.12 51.70 23.78 50.33
  A 0.58 0.58 0.0 0 0 22.79 50.74
  L 22.79 55.46
  Q 22.79 56.00 23.33 56.00
  L 23.62 56.00
  Q 24.14 56.00 24.11 55.48
  L 23.98 53.23
  Q 23.95 52.61 24.47 52.99
  Q 24.53 53.04 24.93 53.58"
/>
<path stroke="#97b0ba" vector-effect="non-scaling-stroke" d="
  M 34.52 54.75
  Q 33.66 55.27 32.02 54.69
  Q 31.70 54.58 31.60 54.90
  L 31.51 55.20
  Q 31.43 55.47 31.68 55.60
  Q 33.50 56.46 35.31 55.66
  A 1.42 1.42 0.0 0 0 35.15 53.00
  L 33.18 52.40
  A 0.38 0.37 -3.5 0 1 32.95 52.20
  Q 32.84 51.99 32.87 51.79
  Q 32.94 51.38 33.35 51.38
  L 35.36 51.38
  Q 35.73 51.38 35.74 51.01
  Q 35.74 50.75 35.58 50.65
  Q 34.12 49.75 32.23 50.67
  A 1.39 1.38 54.2 0 0 31.87 52.90
  Q 32.55 53.56 34.40 54.00
  Q 35.38 54.23 34.52 54.75"
/>
<path stroke="#97b0ba" vector-effect="non-scaling-stroke" d="
  M 41.96 56.07
  Q 45.37 56.07 44.40 50.64
  Q 44.34 50.29 43.99 50.21
  Q 43.84 50.18 43.71 50.21
  Q 43.29 50.33 43.32 50.76
  Q 43.58 54.91 41.96 54.92
  Q 40.33 54.92 40.58 50.77
  Q 40.60 50.34 40.18 50.22
  Q 40.05 50.19 39.90 50.22
  Q 39.55 50.30 39.49 50.65
  Q 38.55 56.09 41.96 56.07"
/>
<path stroke="#97b0ba" vector-effect="non-scaling-stroke" d="
  M 49.87 54.90
  A 0.25 0.25 0.0 0 1 49.63 54.65
  L 49.55 50.56
  A 0.25 0.25 0.0 0 0 49.31 50.31
  L 48.63 50.28
  A 0.25 0.25 0.0 0 0 48.37 50.53
  L 48.29 55.68
  A 0.25 0.25 0.0 0 0 48.54 55.93
  L 52.12 55.92
  A 0.25 0.25 0.0 0 0 52.36 55.75
  L 52.52 55.28
  A 0.25 0.25 0.0 0 0 52.29 54.95
  L 49.87 54.90"
/>
<path stroke="#97b0ba" vector-effect="non-scaling-stroke" d="
  M 55.67 53.18
  Q 55.71 55.39 55.72 55.40
  Q 55.86 55.99 56.25 55.99
  L 59.69 55.99
  Q 60.00 55.99 60.00 55.68
  L 60.00 55.42
  A 0.45 0.45 0.0 0 0 59.55 54.97
  L 57.42 54.97
  Q 57.06 54.97 57.06 54.61
  L 57.06 54.17
  Q 57.06 53.70 57.54 53.73
  Q 59.36 53.86 59.63 53.10
  Q 59.33 52.35 57.52 52.55
  Q 57.04 52.60 57.02 52.13
  L 57.01 51.69
  Q 56.99 51.33 57.35 51.32
  L 59.48 51.24
  A 0.45 0.45 0.0 0 0 59.91 50.77
  L 59.90 50.51
  Q 59.89 50.20 59.58 50.21
  L 56.14 50.34
  Q 55.75 50.36 55.64 50.95
  Q 55.63 50.96 55.67 53.18"
/>
<path stroke="#97b0ba" vector-effect="non-scaling-stroke" d="
  M 67.38 53.31
  Q 66.09 52.27 65.56 51.48
  Q 63.58 48.52 63.55 51.75
  L 63.51 55.36
  Q 63.51 55.95 64.10 55.95
  L 64.48 55.95
  A 0.44 0.43 -2.4 0 0 64.92 55.48
  Q 64.84 54.45 64.90 53.95
  Q 65.09 52.32 65.90 53.75
  Q 67.03 55.75 68.21 56.03
  A 0.47 0.47 0.0 0 0 68.79 55.57
  Q 68.80 51.37 68.65 50.53
  Q 68.60 50.24 68.25 50.17
  Q 67.70 50.07 67.56 50.61
  Q 67.32 51.52 67.62 53.17
  Q 67.70 53.57 67.38 53.31"
/>
<path stroke="#97b0ba" vector-effect="non-scaling-stroke" d="
  M 74.37 55.99
  Q 75.47 55.99 75.02 51.98
  Q 74.95 51.41 75.53 51.41
  L 76.50 51.41
  Q 76.80 51.41 76.84 51.11
  L 76.88 50.77
  A 0.31 0.31 0.0 0 0 76.62 50.42
  Q 75.44 50.25 74.39 50.31
  Q 73.34 50.24 72.16 50.40
  A 0.31 0.31 0.0 0 0 71.90 50.75
  L 71.94 51.09
  Q 71.98 51.39 72.28 51.40
  L 73.25 51.40
  Q 73.83 51.41 73.75 51.98
  Q 73.28 55.98 74.37 55.99"
/>
<path stroke="#97b0ba" vector-effect="non-scaling-stroke" d="
  M 81.90 53.77
  L 83.42 53.77
  Q 83.84 53.77 83.84 53.35
  L 83.84 52.99
  Q 83.84 52.67 83.51 52.67
  L 81.91 52.67
  Q 81.49 52.67 81.49 52.26
  L 81.49 51.76
  A 0.60 0.60 0.0 0 1 82.17 51.16
  L 84.00 51.40
  A 0.31 0.31 0.0 0 0 84.35 51.09
  L 84.35 50.62
  A 0.41 0.40 90.0 0 0 83.95 50.21
  L 80.67 50.21
  Q 80.05 50.21 80.05 50.83
  L 80.05 55.53
  Q 80.05 56.01 80.53 56.00
  L 84.13 55.91
  A 0.24 0.21 -64.8 0 0 84.29 55.84
  Q 84.54 55.60 84.52 55.35
  Q 84.48 54.95 84.08 54.95
  L 81.77 54.95
  A 0.42 0.42 0.0 0 1 81.37 54.41
  L 81.47 54.10
  Q 81.57 53.77 81.90 53.77"
/>
<path stroke="#97b0ba" vector-effect="non-scaling-stroke" d="
  M 93.9318 50.7578
  A 0.56 0.56 0.0 0 0 93.3698 50.1997
  L 93.2098 50.2003
  A 0.56 0.56 0.0 0 0 92.6518 50.7622
  L 92.6682 55.4622
  A 0.56 0.56 0.0 0 0 93.2302 56.0203
  L 93.3902 56.0197
  A 0.56 0.56 0.0 0 0 93.9482 55.4578
  L 93.9318 50.7578"
/>
<path stroke="#97b0ba" vector-effect="non-scaling-stroke" d="
  M 100.99 55.33
  Q 101.53 55.33 102.27 53.65
  Q 102.60 52.93 102.92 53.65
  Q 103.19 54.26 102.94 55.47
  A 0.42 0.41 -84.2 0 0 103.34 55.97
  L 103.76 55.97
  Q 104.13 55.97 104.16 55.60
  Q 104.34 52.98 104.21 51.39
  Q 103.99 48.87 102.69 51.04
  Q 102.26 51.74 101.46 52.96
  Q 101.35 53.12 100.99 53.12
  Q 100.63 53.12 100.52 52.96
  Q 99.72 51.74 99.29 51.04
  Q 98.00 48.87 97.77 51.39
  Q 97.64 52.98 97.82 55.60
  Q 97.85 55.97 98.22 55.97
  L 98.64 55.97
  A 0.42 0.41 84.3 0 0 99.04 55.47
  Q 98.79 54.26 99.06 53.65
  Q 99.38 52.93 99.71 53.65
  Q 100.45 55.33 100.99 55.33"
/>
<path stroke="#97b0ba" vector-effect="non-scaling-stroke" d="
  M 109.48 53.45
  Q 109.63 53.65 110.54 55.00
  Q 110.82 55.42 111.31 55.31
  Q 111.55 55.26 111.71 55.08
  Q 111.80 54.98 111.94 54.20
  Q 112.05 53.65 112.44 53.54
  Q 113.07 53.36 113.07 54.01
  L 113.07 55.56
  Q 113.07 55.94 113.46 55.94
  L 113.84 55.94
  Q 114.37 55.94 114.36 55.41
  L 114.34 51.25
  Q 114.33 48.98 112.83 50.99
  Q 112.62 51.28 111.64 53.00
  A 0.55 0.51 43.7 0 1 110.74 52.99
  L 109.47 51.13
  Q 107.90 48.84 107.90 51.62
  L 107.90 55.47
  Q 107.90 55.95 108.37 55.95
  L 108.65 55.95
  A 0.49 0.49 0.0 0 0 109.14 55.46
  L 109.14 53.57
  Q 109.14 53.02 109.48 53.45"
/>
<path stroke="#97b0ba" vector-effect="non-scaling-stroke" d="
  M 123.95 53.16
  A 3.02 3.02 0.0 0 0 120.93 50.14
  A 3.02 3.02 0.0 0 0 117.91 53.16
  A 3.02 3.02 0.0 0 0 120.93 56.18
  A 3.02 3.02 0.0 0 0 123.95 53.16"
/>
<path stroke="#97b0ba" vector-effect="non-scaling-stroke" d="
  M 127.37 55.17
  A 0.91 0.91 0.0 0 0 128.35 56.08
  L 131.66 55.81
  A 0.91 0.91 0.0 0 0 132.49 54.82
  L 132.14 51.25
  A 0.91 0.91 0.0 0 0 131.33 50.44
  L 128.39 50.15
  A 0.91 0.91 0.0 0 0 127.39 51.05
  L 127.37 55.17"
/>
<path stroke="#97b0ba" vector-effect="non-scaling-stroke" d="
  M 156.11 54.80
  Q 157.21 54.80 158.05 55.71
  Q 158.33 56.03 158.72 56.00
  Q 159.30 55.95 159.07 55.41
  Q 157.63 52.00 156.71 50.51
  Q 156.59 50.31 156.43 50.25
  Q 156.19 50.15 156.11 50.15
  Q 156.02 50.15 155.78 50.25
  Q 155.62 50.31 155.51 50.51
  Q 154.59 52.00 153.16 55.42
  Q 152.93 55.96 153.51 56.01
  Q 153.90 56.04 154.18 55.72
  Q 155.02 54.80 156.11 54.80"
/>
<path stroke="#97b0ba" vector-effect="non-scaling-stroke" d="
  M 166.45 54.13
  L 166.79 53.78
  Q 167.17 53.41 167.30 52.89
  Q 167.89 50.65 164.24 50.19
  Q 162.36 49.96 162.36 51.85
  L 162.36 55.34
  Q 162.36 55.94 162.96 55.93
  Q 163.78 55.92 164.33 54.51
  A 0.27 0.27 0.0 0 1 164.81 54.46
  Q 165.69 55.81 166.79 56.01
  Q 167.30 56.10 167.12 55.44
  Q 167.05 55.21 166.46 54.69
  Q 166.16 54.41 166.45 54.13"
/>
<path stroke="#97b0ba" vector-effect="non-scaling-stroke" d="
  M 170.81 53.12
  Q 170.82 55.22 170.84 55.35
  Q 170.95 55.97 171.50 55.96
  L 174.80 55.93
  Q 174.99 55.93 175.04 55.75
  L 175.15 55.39
  Q 175.27 54.99 174.86 54.99
  L 172.51 54.99
  Q 172.06 54.99 172.06 54.55
  L 172.06 54.13
  Q 172.06 53.74 172.45 53.74
  Q 174.19 53.76 174.76 53.11
  Q 174.19 52.46 172.45 52.49
  Q 172.06 52.49 172.05 52.10
  L 172.05 51.68
  Q 172.05 51.24 172.50 51.24
  L 174.85 51.22
  Q 175.26 51.22 175.13 50.82
  L 175.02 50.46
  Q 174.97 50.28 174.78 50.28
  L 171.48 50.28
  Q 170.93 50.27 170.82 50.89
  Q 170.80 51.02 170.81 53.12"
/>
<path stroke="#c1c0c1" vector-effect="non-scaling-stroke" d="
  M 19.6249 29.7278
  A 1.90 0.30 96.5 0 0 20.1381 27.8740
  A 1.90 0.30 96.5 0 0 20.0551 25.9522
  A 1.90 0.30 96.5 0 0 19.5419 27.8060
  A 1.90 0.30 96.5 0 0 19.6249 29.7278"
/>
<path stroke="#c1c0c1" vector-effect="non-scaling-stroke" d="
  M 41.0744 30.8218
  A 2.42 1.00 107.2 0 0 42.7453 28.8057
  A 2.42 1.00 107.2 0 0 42.5056 26.1982
  A 2.42 1.00 107.2 0 0 40.8347 28.2143
  A 2.42 1.00 107.2 0 0 41.0744 30.8218"
/>
<path stroke="#c1c0c1" vector-effect="non-scaling-stroke" d="
  M 19.2594 33.2746
  A 0.76 0.76 0.0 0 0 18.7565 32.3247
  L 18.5844 32.2718
  A 0.76 0.76 0.0 0 0 17.6346 32.7747
  L 17.0406 34.7054
  A 0.76 0.76 0.0 0 0 17.5435 35.6553
  L 17.7156 35.7082
  A 0.76 0.76 0.0 0 0 18.6654 35.2053
  L 19.2594 33.2746"
/>
<path stroke="#c1c0c1" vector-effect="non-scaling-stroke" d="
  M 45.19 45.40
  L 46.54 34.26
  A 0.17 0.17 0.0 0 0 46.39 34.08
  L 46.29 34.06
  A 5.66 2.13 -83.1 0 0 43.49 39.43
  L 43.46 39.66
  A 5.66 2.13 -83.1 0 0 44.90 45.54
  L 45.00 45.55
  A 0.17 0.17 0.0 0 0 45.19 45.40"
/>
<path stroke="#c1c0c1" vector-effect="non-scaling-stroke" d="
  M 155.3168 26.0525
  A 4.75 0.89 111.4 0 0 157.8786 21.9547
  A 4.75 0.89 111.4 0 0 158.7832 17.2075
  A 4.75 0.89 111.4 0 0 156.2214 21.3053
  A 4.75 0.89 111.4 0 0 155.3168 26.0525"
/>
<path stroke="#c1c0c1" vector-effect="non-scaling-stroke" d="
  M 120.57 25.80
  Q 120.98 25.04 120.64 24.54
  Q 120.29 24.02 119.87 24.49
  Q 118.03 26.56 118.35 30.34
  Q 118.39 30.88 118.92 30.78
  Q 119.69 30.63 120.00 29.83
  C 120.23 29.27 119.93 26.98 120.57 25.80"
/>
<path stroke="#c1c0c1" vector-effect="non-scaling-stroke" d="
  M 137.4599 31.7231
  A 2.95 1.37 116.8 0 0 140.0128 29.7077
  A 2.95 1.37 116.8 0 0 140.1201 26.4569
  A 2.95 1.37 116.8 0 0 137.5672 28.4723
  A 2.95 1.37 116.8 0 0 137.4599 31.7231"
/>
<path stroke="#c1c0c1" vector-effect="non-scaling-stroke" d="
  M 141.6030 41.5413
  A 2.60 0.78 99.9 0 0 142.8184 39.1141
  A 2.60 0.78 99.9 0 0 142.4970 36.4187
  A 2.60 0.78 99.9 0 0 141.2816 38.8459
  A 2.60 0.78 99.9 0 0 141.6030 41.5413"
/>
<path stroke="#c1c0c1" vector-effect="non-scaling-stroke" d="
  M 86.1863 31.4875
  A 4.01 1.32 104.2 0 0 88.4497 27.9238
  A 4.01 1.32 104.2 0 0 88.1537 23.7125
  A 4.01 1.32 104.2 0 0 85.8903 27.2762
  A 4.01 1.32 104.2 0 0 86.1863 31.4875"
/>
<path stroke="#97b0ba" vector-effect="non-scaling-stroke" d="
  M 18.10 53.15
  A 1.80 1.80 0.0 0 0 16.30 51.35
  A 1.80 1.80 0.0 0 0 14.50 53.15
  A 1.80 1.80 0.0 0 0 16.30 54.95
  A 1.80 1.80 0.0 0 0 18.10 53.15"
/>
<path stroke="#97b0ba" vector-effect="non-scaling-stroke" d="
  M 122.72 53.15
  A 1.80 1.80 0.0 0 0 120.92 51.35
  A 1.80 1.80 0.0 0 0 119.12 53.15
  A 1.80 1.80 0.0 0 0 120.92 54.95
  A 1.80 1.80 0.0 0 0 122.72 53.15"
/>
<path stroke="#97b0ba" vector-effect="non-scaling-stroke" d="
  M 130.8667 51.8660
  A 1.07 0.77 -4.5 0 0 129.7396 51.1824
  A 1.07 0.77 -4.5 0 0 128.7333 52.0340
  A 1.07 0.77 -4.5 0 0 129.8604 52.7176
  A 1.07 0.77 -4.5 0 0 130.8667 51.8660"
/>
<path stroke="#97b0ba" vector-effect="non-scaling-stroke" d="
  M 131.1998 54.3703
  A 1.29 0.71 0.9 0 0 129.9212 53.6401
  A 1.29 0.71 0.9 0 0 128.6202 54.3297
  A 1.29 0.71 0.9 0 0 129.8988 55.0599
  A 1.29 0.71 0.9 0 0 131.1998 54.3703"
/>
<path stroke="#97b0ba" vector-effect="non-scaling-stroke" d="
  M 155.76 52.47
  Q 155.64 52.70 155.46 53.15
  Q 155.22 53.72 155.82 53.90
  Q 156.08 53.97 156.25 53.97
  Q 156.68 53.98 156.68 53.55
  L 156.68 52.71
  A 0.49 0.49 0.0 0 0 155.76 52.47"
/>
<path stroke="#97b0ba" vector-effect="non-scaling-stroke" d="
  M 166.0088 52.6220
  A 1.20 1.01 13.1 0 0 165.0689 51.3663
  A 1.20 1.01 13.1 0 0 163.6712 52.0780
  A 1.20 1.01 13.1 0 0 164.6111 53.3337
  A 1.20 1.01 13.1 0 0 166.0088 52.6220"
/>
</g>
<path fill="#ffffff" d="
  M 180.00 0.00
  L 180.00 60.00
  L 0.00 60.00
  L 0.00 0.00
  L 180.00 0.00
  Z
  M 34.28 29.56
  Q 36.21 35.16 42.21 32.85
  Q 43.32 32.43 44.25 31.21
  Q 44.37 31.05 44.56 31.11
  L 44.87 31.20
  Q 45.23 31.31 45.01 31.62
  Q 41.10 37.36 41.85 43.50
  Q 42.14 45.88 43.67 47.29
  A 1.80 1.79 40.4 0 0 46.30 47.08
  Q 47.07 46.08 47.15 44.79
  Q 47.49 38.97 48.13 35.68
  Q 48.27 34.92 48.14 34.34
  Q 47.97 33.59 47.83 33.10
  Q 47.62 32.39 48.21 31.95
  L 50.61 30.15
  Q 51.12 29.77 51.27 30.39
  Q 52.11 33.83 53.84 33.36
  Q 55.15 33.01 54.98 31.88
  A 0.93 0.90 7.4 0 0 54.43 31.19
  Q 52.36 30.32 53.18 28.42
  A 1.67 1.59 -63.9 0 0 52.52 26.34
  Q 52.32 26.23 52.29 26.20
  A 1.19 1.06 -59.0 0 0 50.50 26.76
  Q 49.87 28.46 48.14 29.51
  Q 47.68 29.79 47.17 29.64
  L 44.95 28.96
  Q 44.27 28.75 44.27 28.05
  L 44.27 25.54
  A 1.52 1.52 0.0 0 0 41.97 24.23
  Q 38.26 26.45 38.75 30.47
  Q 38.95 32.20 37.71 30.98
  Q 36.06 29.37 36.17 26.12
  Q 36.20 25.37 35.48 25.15
  L 35.17 25.06
  A 1.21 1.21 0.0 0 0 33.63 25.98
  Q 33.17 28.32 31.52 29.14
  Q 30.58 29.61 31.03 28.66
  Q 31.82 26.96 31.94 25.57
  Q 31.99 25.06 31.56 24.78
  Q 30.89 24.34 29.89 25.01
  A 0.96 0.91 83.0 0 0 29.52 25.51
  L 28.42 29.12
  A 1.62 1.60 89.0 0 1 27.43 30.16
  L 26.41 30.54
  Q 25.55 30.85 25.81 29.97
  L 27.61 24.08
  A 1.41 1.40 38.9 0 0 27.49 22.97
  Q 26.20 20.71 24.77 23.05
  Q 23.65 24.86 23.42 29.27
  A 1.25 1.25 0.0 0 1 22.61 30.38
  L 22.23 30.51
  Q 21.43 30.80 21.58 29.97
  C 22.62 24.05 23.04 19.02 24.80 13.63
  Q 25.50 11.49 27.71 4.31
  A 1.96 1.96 0.0 0 0 27.33 2.46
  Q 27.03 2.11 26.33 2.47
  Q 25.96 2.65 25.69 3.13
  Q 23.42 7.12 23.32 7.93
  Q 22.21 17.71 19.55 25.10
  Q 19.22 26.02 18.31 25.63
  Q 17.24 25.16 16.58 25.49
  A 0.74 0.73 -17.5 0 0 16.17 26.26
  Q 16.74 30.30 15.03 33.88
  A 0.99 0.97 2.0 0 1 14.48 34.38
  L 13.21 34.84
  Q 12.68 35.04 12.53 35.58
  Q 12.25 36.53 13.08 37.50
  Q 13.42 37.90 13.94 37.84
  Q 14.75 37.75 15.67 36.36
  Q 16.04 35.81 16.31 36.41
  C 16.61 37.09 16.74 37.88 17.40 38.33
  Q 18.22 38.87 19.05 38.32
  Q 19.54 37.98 19.90 37.13
  Q 20.46 35.82 20.77 34.88
  C 21.30 33.24 22.28 32.69 23.58 31.89
  Q 24.05 31.60 24.39 32.03
  Q 25.94 33.94 27.87 32.58
  Q 28.33 32.26 28.88 32.34
  Q 31.95 32.79 33.73 29.51
  Q 34.06 28.91 34.28 29.56
  Z
  M 68.46 27.53
  L 70.04 33.61
  A 0.96 0.95 -87.7 0 0 70.62 34.25
  Q 72.42 34.93 73.26 31.95
  Q 73.86 29.80 74.63 31.90
  L 75.30 33.76
  A 0.61 0.60 80.9 0 0 75.83 34.15
  Q 77.24 34.24 77.58 33.29
  Q 78.90 29.55 78.97 29.45
  Q 79.40 28.83 79.52 29.50
  L 80.26 33.68
  Q 80.46 34.83 81.62 34.91
  Q 83.23 35.02 83.89 33.78
  A 0.66 0.66 0.0 0 0 83.34 32.81
  Q 82.06 32.75 81.75 31.25
  Q 79.94 22.56 83.22 12.49
  A 0.95 0.95 0.0 0 0 82.82 11.39
  Q 82.12 10.95 81.45 11.51
  A 0.95 0.93 -15.5 0 0 81.13 12.06
  Q 79.51 21.12 78.21 27.24
  Q 77.79 29.21 76.45 30.57
  A 0.47 0.47 0.0 0 1 75.65 30.32
  Q 75.10 27.22 75.45 24.50
  Q 76.18 18.92 77.74 12.56
  Q 78.01 11.48 77.25 11.06
  A 1.01 1.01 0.0 0 0 75.86 11.49
  C 73.57 16.03 73.77 20.61 73.41 26.88
  Q 73.33 28.39 72.03 30.62
  Q 71.74 31.11 71.47 30.61
  Q 68.88 25.68 70.54 20.31
  Q 72.54 13.82 73.32 10.04
  Q 73.63 8.53 72.06 8.79
  L 71.82 8.83
  Q 70.60 9.04 70.18 10.14
  Q 68.42 14.73 68.35 17.09
  C 68.24 20.72 68.04 24.26 66.55 27.62
  Q 65.02 31.07 64.86 31.63
  Q 64.05 34.44 61.95 33.47
  Q 61.02 33.05 60.89 34.06
  L 60.68 35.67
  Q 60.53 36.81 61.50 37.41
  Q 62.43 37.99 63.37 37.07
  C 66.12 34.41 67.15 30.65 67.99 27.53
  Q 68.23 26.63 68.46 27.53
  Z
  M 102.7522 17.4157
  A 1.40 1.09 102.7 0 0 104.1233 16.2896
  A 1.40 1.09 102.7 0 0 103.3678 14.6843
  A 1.40 1.09 102.7 0 0 101.9967 15.8104
  A 1.40 1.09 102.7 0 0 102.7522 17.4157
  Z
  M 109.34 29.38
  Q 109.56 26.75 110.82 22.89
  Q 111.02 22.26 110.45 21.93
  Q 110.08 21.73 109.61 21.80
  A 0.89 0.88 3.4 0 0 108.87 22.45
  Q 108.59 23.44 106.96 29.98
  Q 106.40 32.22 105.12 33.91
  Q 104.82 34.31 104.41 34.02
  Q 103.61 33.49 103.19 33.65
  Q 102.52 33.90 102.70 34.59
  L 103.08 36.08
  A 1.42 1.42 0.0 0 0 105.68 36.43
  L 107.53 33.22
  Q 107.83 32.71 108.42 32.76
  Q 110.56 32.95 111.50 30.36
  Q 111.74 29.68 112.22 30.22
  Q 113.93 32.13 116.00 31.98
  A 0.93 0.89 -23.9 0 1 116.71 32.24
  L 117.68 33.21
  Q 117.99 33.52 118.39 33.37
  L 124.12 31.28
  Q 124.58 31.11 125.05 31.22
  C 126.87 31.63 127.80 30.59 129.34 29.49
  Q 129.75 29.19 130.24 29.33
  Q 132.19 29.87 133.12 31.28
  Q 133.42 31.74 133.95 31.82
  Q 135.34 32.04 136.34 33.84
  Q 136.59 34.28 137.10 34.31
  Q 138.61 34.39 141.03 31.26
  Q 141.69 30.41 142.06 31.42
  L 142.31 32.11
  A 2.31 2.30 52.0 0 1 142.06 34.18
  C 140.14 37.08 139.05 38.43 139.74 42.06
  A 2.04 2.04 0.0 0 0 141.50 43.70
  Q 143.79 43.97 144.19 41.76
  Q 144.75 38.64 144.39 34.99
  A 0.90 0.87 -26.0 0 1 144.65 34.28
  L 147.13 31.80
  A 0.84 0.83 64.4 0 1 148.55 32.30
  Q 148.65 33.20 149.29 33.98
  Q 149.60 34.36 150.07 34.22
  Q 151.91 33.65 153.12 31.97
  A 0.57 0.57 0.0 0 1 154.05 31.98
  Q 156.34 35.26 159.12 32.35
  Q 159.22 32.24 160.69 30.74
  Q 161.05 30.37 161.31 30.82
  Q 162.73 33.33 164.80 32.44
  Q 165.71 32.04 165.72 31.06
  Q 165.73 30.51 165.17 30.47
  Q 162.09 30.26 162.13 27.30
  A 0.93 0.92 -85.8 0 0 161.33 26.37
  L 160.85 26.31
  A 0.52 0.52 0.0 0 0 160.27 26.80
  Q 160.12 29.60 157.66 31.22
  A 1.45 1.45 0.0 0 1 155.43 30.24
  Q 155.20 28.73 156.27 27.23
  Q 159.78 22.34 160.63 16.77
  A 1.39 1.38 -2.7 0 0 158.92 15.22
  Q 158.11 15.42 157.29 16.34
  C 154.46 19.52 153.58 24.18 153.43 28.58
  Q 153.42 29.09 152.93 29.22
  Q 150.60 29.84 149.05 29.63
  A 0.60 0.59 16.9 0 1 148.59 28.78
  Q 149.55 26.84 150.24 24.99
  Q 150.96 23.10 149.05 23.22
  A 1.30 1.27 -76.4 0 0 148.01 23.87
  Q 146.13 27.18 145.83 29.16
  Q 145.04 34.29 143.06 29.74
  Q 142.92 29.41 142.66 27.11
  A 1.77 1.74 21.7 0 0 142.23 26.14
  Q 139.80 23.42 137.05 26.04
  Q 135.24 27.76 135.17 30.20
  Q 135.16 30.62 134.86 30.32
  L 131.68 27.14
  Q 131.43 26.89 131.48 26.54
  L 131.62 25.49
  Q 131.69 24.89 131.15 24.63
  Q 130.32 24.24 129.60 25.12
  Q 128.86 26.01 127.66 28.16
  Q 127.46 28.53 126.85 28.80
  Q 126.22 29.08 126.27 28.40
  Q 126.35 27.31 127.46 25.47
  A 1.82 1.80 -39.5 0 0 127.62 23.90
  L 127.38 23.26
  A 0.76 0.76 0.0 0 0 125.97 23.22
  L 123.43 29.14
  A 0.74 0.71 3.8 0 1 122.94 29.55
  L 122.37 29.70
  Q 122.10 29.77 122.18 29.50
  L 123.94 23.74
  A 0.77 0.77 0.0 0 0 123.31 22.75
  L 119.78 22.29
  Q 119.20 22.21 118.81 22.66
  Q 116.24 25.68 116.33 29.80
  Q 116.34 30.38 115.81 30.15
  L 113.98 29.36
  Q 113.23 29.04 113.35 28.23
  L 113.95 24.24
  Q 114.09 23.32 113.22 23.13
  Q 113.20 23.13 113.18 23.12
  Q 112.21 22.90 111.97 23.90
  C 111.30 26.75 111.02 28.77 109.88 29.67
  Q 109.28 30.14 109.34 29.38
  Z
  M 166.16 18.62
  L 165.37 15.80
  A 0.42 0.42 0.0 0 0 164.85 15.51
  L 164.74 15.54
  A 1.92 1.79 -15.6 0 0 163.37 17.78
  L 163.42 17.96
  A 1.92 1.79 -15.6 0 0 165.75 19.17
  L 165.87 19.13
  A 0.42 0.42 0.0 0 0 166.16 18.62
  Z
  M 36.56 22.75
  C 37.26 21.20 37.52 20.34 39.34 20.03
  Q 39.85 19.95 39.94 19.44
  Q 40.09 18.54 39.33 17.86
  Q 38.16 16.79 37.29 18.11
  Q 36.19 19.76 35.59 21.80
  Q 35.46 22.24 35.78 22.57
  L 36.06 22.84
  A 0.31 0.31 0.0 0 0 36.56 22.75
  Z
  M 55.06 17.94
  L 55.18 21.40
  A 0.46 0.46 0.0 0 0 55.65 21.84
  L 55.88 21.84
  A 1.83 1.79 88.1 0 0 57.61 19.95
  L 57.59 19.23
  A 1.83 1.79 88.1 0 0 55.74 17.46
  L 55.51 17.47
  A 0.46 0.46 0.0 0 0 55.06 17.94
  Z
  M 95.37 29.21
  L 96.09 31.19
  Q 96.28 31.72 96.84 31.85
  Q 98.08 32.13 99.40 30.81
  Q 99.80 30.40 100.07 30.92
  Q 100.38 31.55 101.29 31.74
  A 0.91 0.90 86.1 0 0 102.33 30.54
  L 101.86 29.25
  Q 101.67 28.74 101.82 28.22
  Q 102.25 26.76 102.16 25.44
  A 0.63 0.62 -1.9 0 0 101.53 24.86
  Q 101.13 24.86 100.71 25.12
  Q 100.27 25.39 100.12 25.74
  Q 99.45 27.28 98.97 28.33
  Q 98.11 30.17 97.61 28.22
  Q 97.50 27.79 98.30 25.37
  A 0.90 0.89 31.7 0 0 98.08 24.46
  L 97.65 24.03
  Q 96.82 23.20 96.36 24.28
  Q 94.73 28.10 91.37 28.99
  A 0.51 0.51 0.0 0 1 90.74 28.43
  L 91.42 23.27
  A 1.13 1.12 -82.7 0 0 90.45 22.00
  L 87.35 21.59
  Q 86.93 21.53 86.59 21.78
  Q 85.70 22.42 85.18 23.62
  Q 82.91 28.80 84.39 32.85
  A 1.70 1.70 0.0 0 0 87.19 33.47
  L 88.97 31.69
  Q 89.35 31.30 89.89 31.39
  Q 92.75 31.85 94.85 29.13
  Q 95.18 28.70 95.37 29.21
  Z
  M 137.5639 50.8613
  A 0.68 0.68 0.0 0 0 136.8851 50.1801
  L 136.7651 50.1799
  A 0.68 0.68 0.0 0 0 136.0839 50.8587
  L 136.0761 55.3787
  A 0.68 0.68 0.0 0 0 136.7549 56.0599
  L 136.8749 56.0601
  A 0.68 0.68 0.0 0 0 137.5561 55.3813
  L 137.5639 50.8613
  Z
  M 142.90 54.87
  A 0.25 0.25 0.0 0 1 142.66 54.62
  L 142.58 50.47
  A 0.25 0.25 0.0 0 0 142.33 50.22
  L 141.60 50.22
  A 0.25 0.25 0.0 0 0 141.35 50.47
  L 141.24 55.71
  A 0.25 0.25 0.0 0 0 141.50 55.97
  L 145.24 55.94
  A 0.25 0.25 0.0 0 0 145.49 55.73
  L 145.57 55.24
  A 0.25 0.25 0.0 0 0 145.33 54.95
  L 142.90 54.87
  Z
  M 149.8935 50.7452
  A 0.55 0.55 0.0 0 0 149.3397 50.1991
  L 149.0597 50.2010
  A 0.55 0.55 0.0 0 0 148.5135 50.7549
  L 148.5465 55.4748
  A 0.55 0.55 0.0 0 0 149.1003 56.0209
  L 149.3803 56.0190
  A 0.55 0.55 0.0 0 0 149.9265 55.4651
  L 149.8935 50.7452
  Z
  M 4.81 53.14
  Q 4.81 56.13 8.56 56.02
  Q 9.98 55.98 10.01 54.91
  A 0.45 0.45 0.0 0 0 9.32 54.52
  C 8.03 55.31 6.16 54.97 6.16 53.14
  C 6.17 51.32 8.04 50.98 9.33 51.78
  A 0.45 0.45 0.0 0 0 10.02 51.39
  Q 9.99 50.32 8.57 50.28
  Q 4.82 50.15 4.81 53.14
  Z
  M 19.35 53.15
  A 3.03 3.03 0.0 0 0 16.32 50.12
  A 3.03 3.03 0.0 0 0 13.29 53.15
  A 3.03 3.03 0.0 0 0 16.32 56.18
  A 3.03 3.03 0.0 0 0 19.35 53.15
  Z
  M 24.93 53.58
  Q 25.65 54.54 26.99 55.91
  A 0.58 0.58 0.0 0 0 27.98 55.50
  L 27.98 50.78
  Q 27.98 50.24 27.44 50.24
  L 27.15 50.24
  Q 26.63 50.24 26.66 50.76
  L 26.79 53.01
  Q 26.82 53.63 26.30 53.25
  Q 26.24 53.20 25.84 52.67
  Q 25.12 51.70 23.78 50.33
  A 0.58 0.58 0.0 0 0 22.79 50.74
  L 22.79 55.46
  Q 22.79 56.00 23.33 56.00
  L 23.62 56.00
  Q 24.14 56.00 24.11 55.48
  L 23.98 53.23
  Q 23.95 52.61 24.47 52.99
  Q 24.53 53.04 24.93 53.58
  Z
  M 34.52 54.75
  Q 33.66 55.27 32.02 54.69
  Q 31.70 54.58 31.60 54.90
  L 31.51 55.20
  Q 31.43 55.47 31.68 55.60
  Q 33.50 56.46 35.31 55.66
  A 1.42 1.42 0.0 0 0 35.15 53.00
  L 33.18 52.40
  A 0.38 0.37 -3.5 0 1 32.95 52.20
  Q 32.84 51.99 32.87 51.79
  Q 32.94 51.38 33.35 51.38
  L 35.36 51.38
  Q 35.73 51.38 35.74 51.01
  Q 35.74 50.75 35.58 50.65
  Q 34.12 49.75 32.23 50.67
  A 1.39 1.38 54.2 0 0 31.87 52.90
  Q 32.55 53.56 34.40 54.00
  Q 35.38 54.23 34.52 54.75
  Z
  M 41.96 56.07
  Q 45.37 56.07 44.40 50.64
  Q 44.34 50.29 43.99 50.21
  Q 43.84 50.18 43.71 50.21
  Q 43.29 50.33 43.32 50.76
  Q 43.58 54.91 41.96 54.92
  Q 40.33 54.92 40.58 50.77
  Q 40.60 50.34 40.18 50.22
  Q 40.05 50.19 39.90 50.22
  Q 39.55 50.30 39.49 50.65
  Q 38.55 56.09 41.96 56.07
  Z
  M 49.87 54.90
  A 0.25 0.25 0.0 0 1 49.63 54.65
  L 49.55 50.56
  A 0.25 0.25 0.0 0 0 49.31 50.31
  L 48.63 50.28
  A 0.25 0.25 0.0 0 0 48.37 50.53
  L 48.29 55.68
  A 0.25 0.25 0.0 0 0 48.54 55.93
  L 52.12 55.92
  A 0.25 0.25 0.0 0 0 52.36 55.75
  L 52.52 55.28
  A 0.25 0.25 0.0 0 0 52.29 54.95
  L 49.87 54.90
  Z
  M 55.67 53.18
  Q 55.71 55.39 55.72 55.40
  Q 55.86 55.99 56.25 55.99
  L 59.69 55.99
  Q 60.00 55.99 60.00 55.68
  L 60.00 55.42
  A 0.45 0.45 0.0 0 0 59.55 54.97
  L 57.42 54.97
  Q 57.06 54.97 57.06 54.61
  L 57.06 54.17
  Q 57.06 53.70 57.54 53.73
  Q 59.36 53.86 59.63 53.10
  Q 59.33 52.35 57.52 52.55
  Q 57.04 52.60 57.02 52.13
  L 57.01 51.69
  Q 56.99 51.33 57.35 51.32
  L 59.48 51.24
  A 0.45 0.45 0.0 0 0 59.91 50.77
  L 59.90 50.51
  Q 59.89 50.20 59.58 50.21
  L 56.14 50.34
  Q 55.75 50.36 55.64 50.95
  Q 55.63 50.96 55.67 53.18
  Z
  M 67.38 53.31
  Q 66.09 52.27 65.56 51.48
  Q 63.58 48.52 63.55 51.75
  L 63.51 55.36
  Q 63.51 55.95 64.10 55.95
  L 64.48 55.95
  A 0.44 0.43 -2.4 0 0 64.92 55.48
  Q 64.84 54.45 64.90 53.95
  Q 65.09 52.32 65.90 53.75
  Q 67.03 55.75 68.21 56.03
  A 0.47 0.47 0.0 0 0 68.79 55.57
  Q 68.80 51.37 68.65 50.53
  Q 68.60 50.24 68.25 50.17
  Q 67.70 50.07 67.56 50.61
  Q 67.32 51.52 67.62 53.17
  Q 67.70 53.57 67.38 53.31
  Z
  M 74.37 55.99
  Q 75.47 55.99 75.02 51.98
  Q 74.95 51.41 75.53 51.41
  L 76.50 51.41
  Q 76.80 51.41 76.84 51.11
  L 76.88 50.77
  A 0.31 0.31 0.0 0 0 76.62 50.42
  Q 75.44 50.25 74.39 50.31
  Q 73.34 50.24 72.16 50.40
  A 0.31 0.31 0.0 0 0 71.90 50.75
  L 71.94 51.09
  Q 71.98 51.39 72.28 51.40
  L 73.25 51.40
  Q 73.83 51.41 73.75 51.98
  Q 73.28 55.98 74.37 55.99
  Z
  M 81.90 53.77
  L 83.42 53.77
  Q 83.84 53.77 83.84 53.35
  L 83.84 52.99
  Q 83.84 52.67 83.51 52.67
  L 81.91 52.67
  Q 81.49 52.67 81.49 52.26
  L 81.49 51.76
  A 0.60 0.60 0.0 0 1 82.17 51.16
  L 84.00 51.40
  A 0.31 0.31 0.0 0 0 84.35 51.09
  L 84.35 50.62
  A 0.41 0.40 90.0 0 0 83.95 50.21
  L 80.67 50.21
  Q 80.05 50.21 80.05 50.83
  L 80.05 55.53
  Q 80.05 56.01 80.53 56.00
  L 84.13 55.91
  A 0.24 0.21 -64.8 0 0 84.29 55.84
  Q 84.54 55.60 84.52 55.35
  Q 84.48 54.95 84.08 54.95
  L 81.77 54.95
  A 0.42 0.42 0.0 0 1 81.37 54.41
  L 81.47 54.10
  Q 81.57 53.77 81.90 53.77
  Z
  M 93.9318 50.7578
  A 0.56 0.56 0.0 0 0 93.3698 50.1997
  L 93.2098 50.2003
  A 0.56 0.56 0.0 0 0 92.6518 50.7622
  L 92.6682 55.4622
  A 0.56 0.56 0.0 0 0 93.2302 56.0203
  L 93.3902 56.0197
  A 0.56 0.56 0.0 0 0 93.9482 55.4578
  L 93.9318 50.7578
  Z
  M 100.99 55.33
  Q 101.53 55.33 102.27 53.65
  Q 102.60 52.93 102.92 53.65
  Q 103.19 54.26 102.94 55.47
  A 0.42 0.41 -84.2 0 0 103.34 55.97
  L 103.76 55.97
  Q 104.13 55.97 104.16 55.60
  Q 104.34 52.98 104.21 51.39
  Q 103.99 48.87 102.69 51.04
  Q 102.26 51.74 101.46 52.96
  Q 101.35 53.12 100.99 53.12
  Q 100.63 53.12 100.52 52.96
  Q 99.72 51.74 99.29 51.04
  Q 98.00 48.87 97.77 51.39
  Q 97.64 52.98 97.82 55.60
  Q 97.85 55.97 98.22 55.97
  L 98.64 55.97
  A 0.42 0.41 84.3 0 0 99.04 55.47
  Q 98.79 54.26 99.06 53.65
  Q 99.38 52.93 99.71 53.65
  Q 100.45 55.33 100.99 55.33
  Z
  M 109.48 53.45
  Q 109.63 53.65 110.54 55.00
  Q 110.82 55.42 111.31 55.31
  Q 111.55 55.26 111.71 55.08
  Q 111.80 54.98 111.94 54.20
  Q 112.05 53.65 112.44 53.54
  Q 113.07 53.36 113.07 54.01
  L 113.07 55.56
  Q 113.07 55.94 113.46 55.94
  L 113.84 55.94
  Q 114.37 55.94 114.36 55.41
  L 114.34 51.25
  Q 114.33 48.98 112.83 50.99
  Q 112.62 51.28 111.64 53.00
  A 0.55 0.51 43.7 0 1 110.74 52.99
  L 109.47 51.13
  Q 107.90 48.84 107.90 51.62
  L 107.90 55.47
  Q 107.90 55.95 108.37 55.95
  L 108.65 55.95
  A 0.49 0.49 0.0 0 0 109.14 55.46
  L 109.14 53.57
  Q 109.14 53.02 109.48 53.45
  Z
  M 123.95 53.16
  A 3.02 3.02 0.0 0 0 120.93 50.14
  A 3.02 3.02 0.0 0 0 117.91 53.16
  A 3.02 3.02 0.0 0 0 120.93 56.18
  A 3.02 3.02 0.0 0 0 123.95 53.16
  Z
  M 127.37 55.17
  A 0.91 0.91 0.0 0 0 128.35 56.08
  L 131.66 55.81
  A 0.91 0.91 0.0 0 0 132.49 54.82
  L 132.14 51.25
  A 0.91 0.91 0.0 0 0 131.33 50.44
  L 128.39 50.15
  A 0.91 0.91 0.0 0 0 127.39 51.05
  L 127.37 55.17
  Z
  M 156.11 54.80
  Q 157.21 54.80 158.05 55.71
  Q 158.33 56.03 158.72 56.00
  Q 159.30 55.95 159.07 55.41
  Q 157.63 52.00 156.71 50.51
  Q 156.59 50.31 156.43 50.25
  Q 156.19 50.15 156.11 50.15
  Q 156.02 50.15 155.78 50.25
  Q 155.62 50.31 155.51 50.51
  Q 154.59 52.00 153.16 55.42
  Q 152.93 55.96 153.51 56.01
  Q 153.90 56.04 154.18 55.72
  Q 155.02 54.80 156.11 54.80
  Z
  M 166.45 54.13
  L 166.79 53.78
  Q 167.17 53.41 167.30 52.89
  Q 167.89 50.65 164.24 50.19
  Q 162.36 49.96 162.36 51.85
  L 162.36 55.34
  Q 162.36 55.94 162.96 55.93
  Q 163.78 55.92 164.33 54.51
  A 0.27 0.27 0.0 0 1 164.81 54.46
  Q 165.69 55.81 166.79 56.01
  Q 167.30 56.10 167.12 55.44
  Q 167.05 55.21 166.46 54.69
  Q 166.16 54.41 166.45 54.13
  Z
  M 170.81 53.12
  Q 170.82 55.22 170.84 55.35
  Q 170.95 55.97 171.50 55.96
  L 174.80 55.93
  Q 174.99 55.93 175.04 55.75
  L 175.15 55.39
  Q 175.27 54.99 174.86 54.99
  L 172.51 54.99
  Q 172.06 54.99 172.06 54.55
  L 172.06 54.13
  Q 172.06 53.74 172.45 53.74
  Q 174.19 53.76 174.76 53.11
  Q 174.19 52.46 172.45 52.49
  Q 172.06 52.49 172.05 52.10
  L 172.05 51.68
  Q 172.05 51.24 172.50 51.24
  L 174.85 51.22
  Q 175.26 51.22 175.13 50.82
  L 175.02 50.46
  Q 174.97 50.28 174.78 50.28
  L 171.48 50.28
  Q 170.93 50.27 170.82 50.89
  Q 170.80 51.02 170.81 53.12
  Z"
/>
<path fill="#828183" d="
  M 33.73 29.51
  Q 31.95 32.79 28.88 32.34
  Q 28.33 32.26 27.87 32.58
  Q 25.94 33.94 24.39 32.03
  Q 24.05 31.60 23.58 31.89
  C 22.28 32.69 21.30 33.24 20.77 34.88
  Q 20.46 35.82 19.90 37.13
  Q 19.54 37.98 19.05 38.32
  Q 18.22 38.87 17.40 38.33
  C 16.74 37.88 16.61 37.09 16.31 36.41
  Q 16.04 35.81 15.67 36.36
  Q 14.75 37.75 13.94 37.84
  Q 13.42 37.90 13.08 37.50
  Q 12.25 36.53 12.53 35.58
  Q 12.68 35.04 13.21 34.84
  L 14.48 34.38
  A 0.99 0.97 2.0 0 0 15.03 33.88
  Q 16.74 30.30 16.17 26.26
  A 0.74 0.73 -17.5 0 1 16.58 25.49
  Q 17.24 25.16 18.31 25.63
  Q 19.22 26.02 19.55 25.10
  Q 22.21 17.71 23.32 7.93
  Q 23.42 7.12 25.69 3.13
  Q 25.96 2.65 26.33 2.47
  Q 27.03 2.11 27.33 2.46
  A 1.96 1.96 0.0 0 1 27.71 4.31
  Q 25.50 11.49 24.80 13.63
  C 23.04 19.02 22.62 24.05 21.58 29.97
  Q 21.43 30.80 22.23 30.51
  L 22.61 30.38
  A 1.25 1.25 0.0 0 0 23.42 29.27
  Q 23.65 24.86 24.77 23.05
  Q 26.20 20.71 27.49 22.97
  A 1.41 1.40 38.9 0 1 27.61 24.08
  L 25.81 29.97
  Q 25.55 30.85 26.41 30.54
  L 27.43 30.16
  A 1.62 1.60 89.0 0 0 28.42 29.12
  L 29.52 25.51
  A 0.96 0.91 83.0 0 1 29.89 25.01
  Q 30.89 24.34 31.56 24.78
  Q 31.99 25.06 31.94 25.57
  Q 31.82 26.96 31.03 28.66
  Q 30.58 29.61 31.52 29.14
  Q 33.17 28.32 33.63 25.98
  A 1.21 1.21 0.0 0 1 35.17 25.06
  L 35.48 25.15
  Q 36.20 25.37 36.17 26.12
  Q 36.06 29.37 37.71 30.98
  Q 38.95 32.20 38.75 30.47
  Q 38.26 26.45 41.97 24.23
  A 1.52 1.52 0.0 0 1 44.27 25.54
  L 44.27 28.05
  Q 44.27 28.75 44.95 28.96
  L 47.17 29.64
  Q 47.68 29.79 48.14 29.51
  Q 49.87 28.46 50.50 26.76
  A 1.19 1.06 -59.0 0 1 52.29 26.20
  Q 52.32 26.23 52.52 26.34
  A 1.67 1.59 -63.9 0 1 53.18 28.42
  Q 52.36 30.32 54.43 31.19
  A 0.93 0.90 7.4 0 1 54.98 31.88
  Q 55.15 33.01 53.84 33.36
  Q 52.11 33.83 51.27 30.39
  Q 51.12 29.77 50.61 30.15
  L 48.21 31.95
  Q 47.62 32.39 47.83 33.10
  Q 47.97 33.59 48.14 34.34
  Q 48.27 34.92 48.13 35.68
  Q 47.49 38.97 47.15 44.79
  Q 47.07 46.08 46.30 47.08
  A 1.80 1.79 40.4 0 1 43.67 47.29
  Q 42.14 45.88 41.85 43.50
  Q 41.10 37.36 45.01 31.62
  Q 45.23 31.31 44.87 31.20
  L 44.56 31.11
  Q 44.37 31.05 44.25 31.21
  Q 43.32 32.43 42.21 32.85
  Q 36.21 35.16 34.28 29.56
  Q 34.06 28.91 33.73 29.51
  Z
  M 19.6249 29.7278
  A 1.90 0.30 96.5 0 0 20.1381 27.8740
  A 1.90 0.30 96.5 0 0 20.0551 25.9522
  A 1.90 0.30 96.5 0 0 19.5419 27.8060
  A 1.90 0.30 96.5 0 0 19.6249 29.7278
  Z
  M 41.0744 30.8218
  A 2.42 1.00 107.2 0 0 42.7453 28.8057
  A 2.42 1.00 107.2 0 0 42.5056 26.1982
  A 2.42 1.00 107.2 0 0 40.8347 28.2143
  A 2.42 1.00 107.2 0 0 41.0744 30.8218
  Z
  M 19.2594 33.2746
  A 0.76 0.76 0.0 0 0 18.7565 32.3247
  L 18.5844 32.2718
  A 0.76 0.76 0.0 0 0 17.6346 32.7747
  L 17.0406 34.7054
  A 0.76 0.76 0.0 0 0 17.5435 35.6553
  L 17.7156 35.7082
  A 0.76 0.76 0.0 0 0 18.6654 35.2053
  L 19.2594 33.2746
  Z
  M 45.19 45.40
  L 46.54 34.26
  A 0.17 0.17 0.0 0 0 46.39 34.08
  L 46.29 34.06
  A 5.66 2.13 -83.1 0 0 43.49 39.43
  L 43.46 39.66
  A 5.66 2.13 -83.1 0 0 44.90 45.54
  L 45.00 45.55
  A 0.17 0.17 0.0 0 0 45.19 45.40
  Z"
/>
<path fill="#828183" d="
  M 67.99 27.53
  C 67.15 30.65 66.12 34.41 63.37 37.07
  Q 62.43 37.99 61.50 37.41
  Q 60.53 36.81 60.68 35.67
  L 60.89 34.06
  Q 61.02 33.05 61.95 33.47
  Q 64.05 34.44 64.86 31.63
  Q 65.02 31.07 66.55 27.62
  C 68.04 24.26 68.24 20.72 68.35 17.09
  Q 68.42 14.73 70.18 10.14
  Q 70.60 9.04 71.82 8.83
  L 72.06 8.79
  Q 73.63 8.53 73.32 10.04
  Q 72.54 13.82 70.54 20.31
  Q 68.88 25.68 71.47 30.61
  Q 71.74 31.11 72.03 30.62
  Q 73.33 28.39 73.41 26.88
  C 73.77 20.61 73.57 16.03 75.86 11.49
  A 1.01 1.01 0.0 0 1 77.25 11.06
  Q 78.01 11.48 77.74 12.56
  Q 76.18 18.92 75.45 24.50
  Q 75.10 27.22 75.65 30.32
  A 0.47 0.47 0.0 0 0 76.45 30.57
  Q 77.79 29.21 78.21 27.24
  Q 79.51 21.12 81.13 12.06
  A 0.95 0.93 -15.5 0 1 81.45 11.51
  Q 82.12 10.95 82.82 11.39
  A 0.95 0.95 0.0 0 1 83.22 12.49
  Q 79.94 22.56 81.75 31.25
  Q 82.06 32.75 83.34 32.81
  A 0.66 0.66 0.0 0 1 83.89 33.78
  Q 83.23 35.02 81.62 34.91
  Q 80.46 34.83 80.26 33.68
  L 79.52 29.50
  Q 79.40 28.83 78.97 29.45
  Q 78.90 29.55 77.58 33.29
  Q 77.24 34.24 75.83 34.15
  A 0.61 0.60 80.9 0 1 75.30 33.76
  L 74.63 31.90
  Q 73.86 29.80 73.26 31.95
  Q 72.42 34.93 70.62 34.25
  A 0.96 0.95 -87.7 0 1 70.04 33.61
  L 68.46 27.53
  Q 68.23 26.63 67.99 27.53
  Z"
/>
<ellipse fill="#828183" cx="0.00" cy="0.00" transform="translate(103.06,16.05) rotate(102.7)" rx="1.40" ry="1.09"/>
<path fill="#828183" d="
  M 109.88 29.67
  C 111.02 28.77 111.30 26.75 111.97 23.90
  Q 112.21 22.90 113.18 23.12
  Q 113.20 23.13 113.22 23.13
  Q 114.09 23.32 113.95 24.24
  L 113.35 28.23
  Q 113.23 29.04 113.98 29.36
  L 115.81 30.15
  Q 116.34 30.38 116.33 29.80
  Q 116.24 25.68 118.81 22.66
  Q 119.20 22.21 119.78 22.29
  L 123.31 22.75
  A 0.77 0.77 0.0 0 1 123.94 23.74
  L 122.18 29.50
  Q 122.10 29.77 122.37 29.70
  L 122.94 29.55
  A 0.74 0.71 3.8 0 0 123.43 29.14
  L 125.97 23.22
  A 0.76 0.76 0.0 0 1 127.38 23.26
  L 127.62 23.90
  A 1.82 1.80 -39.5 0 1 127.46 25.47
  Q 126.35 27.31 126.27 28.40
  Q 126.22 29.08 126.85 28.80
  Q 127.46 28.53 127.66 28.16
  Q 128.86 26.01 129.60 25.12
  Q 130.32 24.24 131.15 24.63
  Q 131.69 24.89 131.62 25.49
  L 131.48 26.54
  Q 131.43 26.89 131.68 27.14
  L 134.86 30.32
  Q 135.16 30.62 135.17 30.20
  Q 135.24 27.76 137.05 26.04
  Q 139.80 23.42 142.23 26.14
  A 1.77 1.74 21.7 0 1 142.66 27.11
  Q 142.92 29.41 143.06 29.74
  Q 145.04 34.29 145.83 29.16
  Q 146.13 27.18 148.01 23.87
  A 1.30 1.27 -76.4 0 1 149.05 23.22
  Q 150.96 23.10 150.24 24.99
  Q 149.55 26.84 148.59 28.78
  A 0.60 0.59 16.9 0 0 149.05 29.63
  Q 150.60 29.84 152.93 29.22
  Q 153.42 29.09 153.43 28.58
  C 153.58 24.18 154.46 19.52 157.29 16.34
  Q 158.11 15.42 158.92 15.22
  A 1.39 1.38 -2.7 0 1 160.63 16.77
  Q 159.78 22.34 156.27 27.23
  Q 155.20 28.73 155.43 30.24
  A 1.45 1.45 0.0 0 0 157.66 31.22
  Q 160.12 29.60 160.27 26.80
  A 0.52 0.52 0.0 0 1 160.85 26.31
  L 161.33 26.37
  A 0.93 0.92 -85.8 0 1 162.13 27.30
  Q 162.09 30.26 165.17 30.47
  Q 165.73 30.51 165.72 31.06
  Q 165.71 32.04 164.80 32.44
  Q 162.73 33.33 161.31 30.82
  Q 161.05 30.37 160.69 30.74
  Q 159.22 32.24 159.12 32.35
  Q 156.34 35.26 154.05 31.98
  A 0.57 0.57 0.0 0 0 153.12 31.97
  Q 151.91 33.65 150.07 34.22
  Q 149.60 34.36 149.29 33.98
  Q 148.65 33.20 148.55 32.30
  A 0.84 0.83 64.4 0 0 147.13 31.80
  L 144.65 34.28
  A 0.90 0.87 -26.0 0 0 144.39 34.99
  Q 144.75 38.64 144.19 41.76
  Q 143.79 43.97 141.50 43.70
  A 2.04 2.04 0.0 0 1 139.74 42.06
  C 139.05 38.43 140.14 37.08 142.06 34.18
  A 2.31 2.30 52.0 0 0 142.31 32.11
  L 142.06 31.42
  Q 141.69 30.41 141.03 31.26
  Q 138.61 34.39 137.10 34.31
  Q 136.59 34.28 136.34 33.84
  Q 135.34 32.04 133.95 31.82
  Q 133.42 31.74 133.12 31.28
  Q 132.19 29.87 130.24 29.33
  Q 129.75 29.19 129.34 29.49
  C 127.80 30.59 126.87 31.63 125.05 31.22
  Q 124.58 31.11 124.12 31.28
  L 118.39 33.37
  Q 117.99 33.52 117.68 33.21
  L 116.71 32.24
  A 0.93 0.89 -23.9 0 0 116.00 31.98
  Q 113.93 32.13 112.22 30.22
  Q 111.74 29.68 111.50 30.36
  Q 110.56 32.95 108.42 32.76
  Q 107.83 32.71 107.53 33.22
  L 105.68 36.43
  A 1.42 1.42 0.0 0 1 103.08 36.08
  L 102.70 34.59
  Q 102.52 33.90 103.19 33.65
  Q 103.61 33.49 104.41 34.02
  Q 104.82 34.31 105.12 33.91
  Q 106.40 32.22 106.96 29.98
  Q 108.59 23.44 108.87 22.45
  A 0.89 0.88 3.4 0 1 109.61 21.80
  Q 110.08 21.73 110.45 21.93
  Q 111.02 22.26 110.82 22.89
  Q 109.56 26.75 109.34 29.38
  Q 109.28 30.14 109.88 29.67
  Z
  M 155.3168 26.0525
  A 4.75 0.89 111.4 0 0 157.8786 21.9547
  A 4.75 0.89 111.4 0 0 158.7832 17.2075
  A 4.75 0.89 111.4 0 0 156.2214 21.3053
  A 4.75 0.89 111.4 0 0 155.3168 26.0525
  Z
  M 120.57 25.80
  Q 120.98 25.04 120.64 24.54
  Q 120.29 24.02 119.87 24.49
  Q 118.03 26.56 118.35 30.34
  Q 118.39 30.88 118.92 30.78
  Q 119.69 30.63 120.00 29.83
  C 120.23 29.27 119.93 26.98 120.57 25.80
  Z
  M 137.4599 31.7231
  A 2.95 1.37 116.8 0 0 140.0128 29.7077
  A 2.95 1.37 116.8 0 0 140.1201 26.4569
  A 2.95 1.37 116.8 0 0 137.5672 28.4723
  A 2.95 1.37 116.8 0 0 137.4599 31.7231
  Z
  M 141.6030 41.5413
  A 2.60 0.78 99.9 0 0 142.8184 39.1141
  A 2.60 0.78 99.9 0 0 142.4970 36.4187
  A 2.60 0.78 99.9 0 0 141.2816 38.8459
  A 2.60 0.78 99.9 0 0 141.6030 41.5413
  Z"
/>
<path fill="#828183" d="
  M 166.16 18.62
  A 0.42 0.42 0.0 0 1 165.87 19.13
  L 165.75 19.17
  A 1.92 1.79 -15.6 0 1 163.42 17.96
  L 163.37 17.78
  A 1.92 1.79 -15.6 0 1 164.74 15.54
  L 164.85 15.51
  A 0.42 0.42 0.0 0 1 165.37 15.80
  L 166.16 18.62
  Z"
/>
<ellipse fill="#ffffff" cx="0.00" cy="0.00" transform="translate(157.05,21.63) rotate(111.4)" rx="4.75" ry="0.89"/>
<path fill="#828183" d="
  M 39.34 20.03
  C 37.52 20.34 37.26 21.20 36.56 22.75
  A 0.31 0.31 0.0 0 1 36.06 22.84
  L 35.78 22.57
  Q 35.46 22.24 35.59 21.80
  Q 36.19 19.76 37.29 18.11
  Q 38.16 16.79 39.33 17.86
  Q 40.09 18.54 39.94 19.44
  Q 39.85 19.95 39.34 20.03
  Z"
/>
<path fill="#828183" d="
  M 55.06 17.94
  A 0.46 0.46 0.0 0 1 55.51 17.47
  L 55.74 17.46
  A 1.83 1.79 88.1 0 1 57.59 19.23
  L 57.61 19.95
  A 1.83 1.79 88.1 0 1 55.88 21.84
  L 55.65 21.84
  A 0.46 0.46 0.0 0 1 55.18 21.40
  L 55.06 17.94
  Z"
/>
<path fill="#828183" d="
  M 94.85 29.13
  Q 92.75 31.85 89.89 31.39
  Q 89.35 31.30 88.97 31.69
  L 87.19 33.47
  A 1.70 1.70 0.0 0 1 84.39 32.85
  Q 82.91 28.80 85.18 23.62
  Q 85.70 22.42 86.59 21.78
  Q 86.93 21.53 87.35 21.59
  L 90.45 22.00
  A 1.13 1.12 -82.7 0 1 91.42 23.27
  L 90.74 28.43
  A 0.51 0.51 0.0 0 0 91.37 28.99
  Q 94.73 28.10 96.36 24.28
  Q 96.82 23.20 97.65 24.03
  L 98.08 24.46
  A 0.90 0.89 31.7 0 1 98.30 25.37
  Q 97.50 27.79 97.61 28.22
  Q 98.11 30.17 98.97 28.33
  Q 99.45 27.28 100.12 25.74
  Q 100.27 25.39 100.71 25.12
  Q 101.13 24.86 101.53 24.86
  A 0.63 0.62 -1.9 0 1 102.16 25.44
  Q 102.25 26.76 101.82 28.22
  Q 101.67 28.74 101.86 29.25
  L 102.33 30.54
  A 0.91 0.90 86.1 0 1 101.29 31.74
  Q 100.38 31.55 100.07 30.92
  Q 99.80 30.40 99.40 30.81
  Q 98.08 32.13 96.84 31.85
  Q 96.28 31.72 96.09 31.19
  L 95.37 29.21
  Q 95.18 28.70 94.85 29.13
  Z
  M 86.1863 31.4875
  A 4.01 1.32 104.2 0 0 88.4497 27.9238
  A 4.01 1.32 104.2 0 0 88.1537 23.7125
  A 4.01 1.32 104.2 0 0 85.8903 27.2762
  A 4.01 1.32 104.2 0 0 86.1863 31.4875
  Z"
/>
<ellipse fill="#ffffff" cx="0.00" cy="0.00" transform="translate(87.17,27.60) rotate(104.2)" rx="4.01" ry="1.32"/>
<path fill="#ffffff" d="
  M 120.57 25.80
  C 119.93 26.98 120.23 29.27 120.00 29.83
  Q 119.69 30.63 118.92 30.78
  Q 118.39 30.88 118.35 30.34
  Q 118.03 26.56 119.87 24.49
  Q 120.29 24.02 120.64 24.54
  Q 120.98 25.04 120.57 25.80
  Z"
/>
<ellipse fill="#ffffff" cx="0.00" cy="0.00" transform="translate(19.84,27.84) rotate(96.5)" rx="1.90" ry="0.30"/>
<ellipse fill="#ffffff" cx="0.00" cy="0.00" transform="translate(41.79,28.51) rotate(107.2)" rx="2.42" ry="1.00"/>
<ellipse fill="#ffffff" cx="0.00" cy="0.00" transform="translate(138.79,29.09) rotate(116.8)" rx="2.95" ry="1.37"/>
<rect fill="#ffffff" x="-0.85" y="-1.77" transform="translate(18.15,33.99) rotate(17.1)" width="1.70" height="3.54" rx="0.76"/>
<path fill="#ffffff" d="
  M 45.19 45.40
  A 0.17 0.17 0.0 0 1 45.00 45.55
  L 44.90 45.54
  A 5.66 2.13 -83.1 0 1 43.46 39.66
  L 43.49 39.43
  A 5.66 2.13 -83.1 0 1 46.29 34.06
  L 46.39 34.08
  A 0.17 0.17 0.0 0 1 46.54 34.26
  L 45.19 45.40
  Z"
/>
<ellipse fill="#ffffff" cx="0.00" cy="0.00" transform="translate(142.05,38.98) rotate(99.9)" rx="2.60" ry="0.78"/>
<rect fill="#2e6175" x="-0.74" y="-2.94" transform="translate(136.82,53.12) rotate(0.1)" width="1.48" height="5.88" rx="0.68"/>
<path fill="#2e6175" d="
  M 142.90 54.87
  L 145.33 54.95
  A 0.25 0.25 0.0 0 1 145.57 55.24
  L 145.49 55.73
  A 0.25 0.25 0.0 0 1 145.24 55.94
  L 141.50 55.97
  A 0.25 0.25 0.0 0 1 141.24 55.71
  L 141.35 50.47
  A 0.25 0.25 0.0 0 1 141.60 50.22
  L 142.33 50.22
  A 0.25 0.25 0.0 0 1 142.58 50.47
  L 142.66 54.62
  A 0.25 0.25 0.0 0 0 142.90 54.87
  Z"
/>
<rect fill="#2e6175" x="-0.69" y="-2.91" transform="translate(149.22,53.11) rotate(-0.4)" width="1.38" height="5.82" rx="0.55"/>
<path fill="#2e6175" d="
  M 6.16 53.14
  C 6.16 54.97 8.03 55.31 9.32 54.52
  A 0.45 0.45 0.0 0 1 10.01 54.91
  Q 9.98 55.98 8.56 56.02
  Q 4.81 56.13 4.81 53.14
  Q 4.82 50.15 8.57 50.28
  Q 9.99 50.32 10.02 51.39
  A 0.45 0.45 0.0 0 1 9.33 51.78
  C 8.04 50.98 6.17 51.32 6.16 53.14
  Z"
/>
<path fill="#2e6175" d="
  M 19.35 53.15
  A 3.03 3.03 0.0 0 1 16.32 56.18
  A 3.03 3.03 0.0 0 1 13.29 53.15
  A 3.03 3.03 0.0 0 1 16.32 50.12
  A 3.03 3.03 0.0 0 1 19.35 53.15
  Z
  M 18.10 53.15
  A 1.80 1.80 0.0 0 0 16.30 51.35
  A 1.80 1.80 0.0 0 0 14.50 53.15
  A 1.80 1.80 0.0 0 0 16.30 54.95
  A 1.80 1.80 0.0 0 0 18.10 53.15
  Z"
/>
<path fill="#2e6175" d="
  M 25.84 52.67
  Q 26.24 53.20 26.30 53.25
  Q 26.82 53.63 26.79 53.01
  L 26.66 50.76
  Q 26.63 50.24 27.15 50.24
  L 27.44 50.24
  Q 27.98 50.24 27.98 50.78
  L 27.98 55.50
  A 0.58 0.58 0.0 0 1 26.99 55.91
  Q 25.65 54.54 24.93 53.58
  Q 24.53 53.04 24.47 52.99
  Q 23.95 52.61 23.98 53.23
  L 24.11 55.48
  Q 24.14 56.00 23.62 56.00
  L 23.33 56.00
  Q 22.79 56.00 22.79 55.46
  L 22.79 50.74
  A 0.58 0.58 0.0 0 1 23.78 50.33
  Q 25.12 51.70 25.84 52.67
  Z"
/>
<path fill="#2e6175" d="
  M 34.52 54.75
  Q 35.38 54.23 34.40 54.00
  Q 32.55 53.56 31.87 52.90
  A 1.39 1.38 54.2 0 1 32.23 50.67
  Q 34.12 49.75 35.58 50.65
  Q 35.74 50.75 35.74 51.01
  Q 35.73 51.38 35.36 51.38
  L 33.35 51.38
  Q 32.94 51.38 32.87 51.79
  Q 32.84 51.99 32.95 52.20
  A 0.38 0.37 -3.5 0 0 33.18 52.40
  L 35.15 53.00
  A 1.42 1.42 0.0 0 1 35.31 55.66
  Q 33.50 56.46 31.68 55.60
  Q 31.43 55.47 31.51 55.20
  L 31.60 54.90
  Q 31.70 54.58 32.02 54.69
  Q 33.66 55.27 34.52 54.75
  Z"
/>
<path fill="#2e6175" d="
  M 41.96 54.92
  Q 43.58 54.91 43.32 50.76
  Q 43.29 50.33 43.71 50.21
  Q 43.84 50.18 43.99 50.21
  Q 44.34 50.29 44.40 50.64
  Q 45.37 56.07 41.96 56.07
  Q 38.55 56.09 39.49 50.65
  Q 39.55 50.30 39.90 50.22
  Q 40.05 50.19 40.18 50.22
  Q 40.60 50.34 40.58 50.77
  Q 40.33 54.92 41.96 54.92
  Z"
/>
<path fill="#2e6175" d="
  M 49.87 54.90
  L 52.29 54.95
  A 0.25 0.25 0.0 0 1 52.52 55.28
  L 52.36 55.75
  A 0.25 0.25 0.0 0 1 52.12 55.92
  L 48.54 55.93
  A 0.25 0.25 0.0 0 1 48.29 55.68
  L 48.37 50.53
  A 0.25 0.25 0.0 0 1 48.63 50.28
  L 49.31 50.31
  A 0.25 0.25 0.0 0 1 49.55 50.56
  L 49.63 54.65
  A 0.25 0.25 0.0 0 0 49.87 54.90
  Z"
/>
<path fill="#2e6175" d="
  M 59.63 53.10
  Q 59.36 53.86 57.54 53.73
  Q 57.06 53.70 57.06 54.17
  L 57.06 54.61
  Q 57.06 54.97 57.42 54.97
  L 59.55 54.97
  A 0.45 0.45 0.0 0 1 60.00 55.42
  L 60.00 55.68
  Q 60.00 55.99 59.69 55.99
  L 56.25 55.99
  Q 55.86 55.99 55.72 55.40
  Q 55.71 55.39 55.67 53.18
  Q 55.63 50.96 55.64 50.95
  Q 55.75 50.36 56.14 50.34
  L 59.58 50.21
  Q 59.89 50.20 59.90 50.51
  L 59.91 50.77
  A 0.45 0.45 0.0 0 1 59.48 51.24
  L 57.35 51.32
  Q 56.99 51.33 57.01 51.69
  L 57.02 52.13
  Q 57.04 52.60 57.52 52.55
  Q 59.33 52.35 59.63 53.10
  Z"
/>
<path fill="#2e6175" d="
  M 67.62 53.17
  Q 67.32 51.52 67.56 50.61
  Q 67.70 50.07 68.25 50.17
  Q 68.60 50.24 68.65 50.53
  Q 68.80 51.37 68.79 55.57
  A 0.47 0.47 0.0 0 1 68.21 56.03
  Q 67.03 55.75 65.90 53.75
  Q 65.09 52.32 64.90 53.95
  Q 64.84 54.45 64.92 55.48
  A 0.44 0.43 -2.4 0 1 64.48 55.95
  L 64.10 55.95
  Q 63.51 55.95 63.51 55.36
  L 63.55 51.75
  Q 63.58 48.52 65.56 51.48
  Q 66.09 52.27 67.38 53.31
  Q 67.70 53.57 67.62 53.17
  Z"
/>
<path fill="#2e6175" d="
  M 74.39 50.31
  Q 75.44 50.25 76.62 50.42
  A 0.31 0.31 0.0 0 1 76.88 50.77
  L 76.84 51.11
  Q 76.80 51.41 76.50 51.41
  L 75.53 51.41
  Q 74.95 51.41 75.02 51.98
  Q 75.47 55.99 74.37 55.99
  Q 73.28 55.98 73.75 51.98
  Q 73.83 51.41 73.25 51.40
  L 72.28 51.40
  Q 71.98 51.39 71.94 51.09
  L 71.90 50.75
  A 0.31 0.31 0.0 0 1 72.16 50.40
  Q 73.34 50.24 74.39 50.31
  Z"
/>
<path fill="#2e6175" d="
  M 81.90 53.77
  Q 81.57 53.77 81.47 54.10
  L 81.37 54.41
  A 0.42 0.42 0.0 0 0 81.77 54.95
  L 84.08 54.95
  Q 84.48 54.95 84.52 55.35
  Q 84.54 55.60 84.29 55.84
  A 0.24 0.21 -64.8 0 1 84.13 55.91
  L 80.53 56.00
  Q 80.05 56.01 80.05 55.53
  L 80.05 50.83
  Q 80.05 50.21 80.67 50.21
  L 83.95 50.21
  A 0.41 0.40 -90.0 0 1 84.35 50.62
  L 84.35 51.09
  A 0.31 0.31 0.0 0 1 84.00 51.40
  L 82.17 51.16
  A 0.60 0.60 0.0 0 0 81.49 51.76
  L 81.49 52.26
  Q 81.49 52.67 81.91 52.67
  L 83.51 52.67
  Q 83.84 52.67 83.84 52.99
  L 83.84 53.35
  Q 83.84 53.77 83.42 53.77
  L 81.90 53.77
  Z"
/>
<rect fill="#2e6175" x="-0.64" y="-2.91" transform="translate(93.30,53.11) rotate(-0.2)" width="1.28" height="5.82" rx="0.56"/>
<path fill="#2e6175" d="
  M 100.99 53.12
  Q 101.35 53.12 101.46 52.96
  Q 102.26 51.74 102.69 51.04
  Q 103.99 48.87 104.21 51.39
  Q 104.34 52.98 104.16 55.60
  Q 104.13 55.97 103.76 55.97
  L 103.34 55.97
  A 0.42 0.41 -84.2 0 1 102.94 55.47
  Q 103.19 54.26 102.92 53.65
  Q 102.60 52.93 102.27 53.65
  Q 101.53 55.33 100.99 55.33
  Q 100.45 55.33 99.71 53.65
  Q 99.38 52.93 99.06 53.65
  Q 98.79 54.26 99.04 55.47
  A 0.42 0.41 84.3 0 1 98.64 55.97
  L 98.22 55.97
  Q 97.85 55.97 97.82 55.60
  Q 97.64 52.98 97.77 51.39
  Q 98.00 48.87 99.29 51.04
  Q 99.72 51.74 100.52 52.96
  Q 100.63 53.12 100.99 53.12
  Z"
/>
<path fill="#2e6175" d="
  M 109.14 53.57
  L 109.14 55.46
  A 0.49 0.49 0.0 0 1 108.65 55.95
  L 108.37 55.95
  Q 107.90 55.95 107.90 55.47
  L 107.90 51.62
  Q 107.90 48.84 109.47 51.13
  L 110.74 52.99
  A 0.55 0.51 43.7 0 0 111.64 53.00
  Q 112.62 51.28 112.83 50.99
  Q 114.33 48.98 114.34 51.25
  L 114.36 55.41
  Q 114.37 55.94 113.84 55.94
  L 113.46 55.94
  Q 113.07 55.94 113.07 55.56
  L 113.07 54.01
  Q 113.07 53.36 112.44 53.54
  Q 112.05 53.65 111.94 54.20
  Q 111.80 54.98 111.71 55.08
  Q 111.55 55.26 111.31 55.31
  Q 110.82 55.42 110.54 55.00
  Q 109.63 53.65 109.48 53.45
  Q 109.14 53.02 109.14 53.57
  Z"
/>
<path fill="#2e6175" d="
  M 123.95 53.16
  A 3.02 3.02 0.0 0 1 120.93 56.18
  A 3.02 3.02 0.0 0 1 117.91 53.16
  A 3.02 3.02 0.0 0 1 120.93 50.14
  A 3.02 3.02 0.0 0 1 123.95 53.16
  Z
  M 122.72 53.15
  A 1.80 1.80 0.0 0 0 120.92 51.35
  A 1.80 1.80 0.0 0 0 119.12 53.15
  A 1.80 1.80 0.0 0 0 120.92 54.95
  A 1.80 1.80 0.0 0 0 122.72 53.15
  Z"
/>
<path fill="#2e6175" d="
  M 127.37 55.17
  L 127.39 51.05
  A 0.91 0.91 0.0 0 1 128.39 50.15
  L 131.33 50.44
  A 0.91 0.91 0.0 0 1 132.14 51.25
  L 132.49 54.82
  A 0.91 0.91 0.0 0 1 131.66 55.81
  L 128.35 56.08
  A 0.91 0.91 0.0 0 1 127.37 55.17
  Z
  M 130.8667 51.8660
  A 1.07 0.77 -4.5 0 0 129.7396 51.1824
  A 1.07 0.77 -4.5 0 0 128.7333 52.0340
  A 1.07 0.77 -4.5 0 0 129.8604 52.7176
  A 1.07 0.77 -4.5 0 0 130.8667 51.8660
  Z
  M 131.1998 54.3703
  A 1.29 0.71 0.9 0 0 129.9212 53.6401
  A 1.29 0.71 0.9 0 0 128.6202 54.3297
  A 1.29 0.71 0.9 0 0 129.8988 55.0599
  A 1.29 0.71 0.9 0 0 131.1998 54.3703
  Z"
/>
<path fill="#2e6175" d="
  M 156.11 50.15
  Q 156.19 50.15 156.43 50.25
  Q 156.59 50.31 156.71 50.51
  Q 157.63 52.00 159.07 55.41
  Q 159.30 55.95 158.72 56.00
  Q 158.33 56.03 158.05 55.71
  Q 157.21 54.80 156.11 54.80
  Q 155.02 54.80 154.18 55.72
  Q 153.90 56.04 153.51 56.01
  Q 152.93 55.96 153.16 55.42
  Q 154.59 52.00 155.51 50.51
  Q 155.62 50.31 155.78 50.25
  Q 156.02 50.15 156.11 50.15
  Z
  M 155.76 52.47
  Q 155.64 52.70 155.46 53.15
  Q 155.22 53.72 155.82 53.90
  Q 156.08 53.97 156.25 53.97
  Q 156.68 53.98 156.68 53.55
  L 156.68 52.71
  A 0.49 0.49 0.0 0 0 155.76 52.47
  Z"
/>
<path fill="#2e6175" d="
  M 166.46 54.69
  Q 167.05 55.21 167.12 55.44
  Q 167.30 56.10 166.79 56.01
  Q 165.69 55.81 164.81 54.46
  A 0.27 0.27 0.0 0 0 164.33 54.51
  Q 163.78 55.92 162.96 55.93
  Q 162.36 55.94 162.36 55.34
  L 162.36 51.85
  Q 162.36 49.96 164.24 50.19
  Q 167.89 50.65 167.30 52.89
  Q 167.17 53.41 166.79 53.78
  L 166.45 54.13
  Q 166.16 54.41 166.46 54.69
  Z
  M 166.0088 52.6220
  A 1.20 1.01 13.1 0 0 165.0689 51.3663
  A 1.20 1.01 13.1 0 0 163.6712 52.0780
  A 1.20 1.01 13.1 0 0 164.6111 53.3337
  A 1.20 1.01 13.1 0 0 166.0088 52.6220
  Z"
/>
<path fill="#2e6175" d="
  M 174.76 53.11
  Q 174.19 53.76 172.45 53.74
  Q 172.06 53.74 172.06 54.13
  L 172.06 54.55
  Q 172.06 54.99 172.51 54.99
  L 174.86 54.99
  Q 175.27 54.99 175.15 55.39
  L 175.04 55.75
  Q 174.99 55.93 174.80 55.93
  L 171.50 55.96
  Q 170.95 55.97 170.84 55.35
  Q 170.82 55.22 170.81 53.12
  Q 170.80 51.02 170.82 50.89
  Q 170.93 50.27 171.48 50.28
  L 174.78 50.28
  Q 174.97 50.28 175.02 50.46
  L 175.13 50.82
  Q 175.26 51.22 174.85 51.22
  L 172.50 51.24
  Q 172.05 51.24 172.05 51.68
  L 172.05 52.10
  Q 172.06 52.49 172.45 52.49
  Q 174.19 52.46 174.76 53.11
  Z"
/>
<circle fill="#ffffff" cx="120.92" cy="53.15" r="1.80"/>
<ellipse fill="#ffffff" cx="0.00" cy="0.00" transform="translate(129.80,51.95) rotate(-4.5)" rx="1.07" ry="0.77"/>
<ellipse fill="#ffffff" cx="0.00" cy="0.00" transform="translate(164.84,52.35) rotate(13.1)" rx="1.20" ry="1.01"/>
<circle fill="#ffffff" cx="16.30" cy="53.15" r="1.80"/>
<path fill="#ffffff" d="
  M 156.68 52.71
  L 156.68 53.55
  Q 156.68 53.98 156.25 53.97
  Q 156.08 53.97 155.82 53.90
  Q 155.22 53.72 155.46 53.15
  Q 155.64 52.70 155.76 52.47
  A 0.49 0.49 0.0 0 1 156.68 52.71
  Z"
/>
<ellipse fill="#ffffff" cx="0.00" cy="0.00" transform="translate(129.91,54.35) rotate(0.9)" rx="1.29" ry="0.71"/>
</svg>
